<svg xmlns="http://www.w3.org/2000/svg" viewBox="0 0 64 64" fill="none">
  <g fill="#ffffff" fill-rule="evenodd">
    <path d="M 8.25 58.62 L 8.38 58.28 L 8.59 58.04 L 8.84 57.82 L 9.09 57.60 L 9.33 57.38 L 9.60 57.18 L 9.84 56.96 L 10.09 56.75 L 10.35 56.54 L 10.60 56.33 L 10.86 56.12 L 11.10 55.90 L 11.37 55.70 L 11.61 55.48 L 11.87 55.28 L 12.13 55.08 L 12.40 54.87 L 12.64 54.66 L 12.90 54.45 L 13.16 54.25 L 13.43 54.05 L 13.67 53.83 L 13.93 53.63 L 14.19 53.42 L 14.46 53.22 L 14.70 53.00 L 14.96 52.80 L 15.22 52.60 L 15.49 52.39 L 15.75 52.19 L 16.01 51.99 L 16.27 51.78 L 16.53 51.58 L 16.79 51.38 L 17.05 51.18 L 17.31 50.97 L 17.58 50.77 L 17.84 50.57 L 18.11 50.38 L 18.37 50.17 L 18.63 49.97 L 18.91 49.78 L 19.17 49.58 L 19.45 49.39 L 19.71 49.19 L 19.97 48.98 L 20.22 48.77 L 20.45 48.53 L 20.68 48.30 L 20.88 48.04 L 21.09 47.78 L 21.27 47.50 L 21.45 47.21 L 21.62 46.92 L 21.80 46.63 L 21.96 46.33 L 22.13 46.04 L 22.29 45.73 L 22.45 45.43 L 22.62 45.14 L 22.78 44.84 L 22.94 44.53 L 23.12 44.24 L 23.28 43.94 L 23.44 43.63 L 23.60 43.33 L 23.76 43.02 L 23.90 42.70 L 24.07 42.41 L 24.22 42.09 L 24.36 41.77 L 24.52 41.47 L 24.67 41.15 L 24.81 40.83 L 24.96 40.51 L 25.09 40.18 L 25.24 39.86 L 25.38 39.54 L 25.50 39.19 L 25.63 38.86 L 25.73 38.50 L 25.66 38.16 L 25.51 37.84 L 25.38 37.51 L 25.29 37.13 L 25.24 36.73 L 25.26 36.29 L 25.32 35.88 L 25.42 35.52 L 25.58 35.22 L 25.76 34.93 L 25.98 34.68 L 26.22 34.46 L 26.48 34.26 L 26.79 34.10 L 27.14 33.98 L 27.53 33.91 L 27.92 33.84 L 28.19 33.65 L 28.33 33.35 L 27.95 33.26 L 27.64 33.10 L 27.37 32.91 L 27.09 32.72 L 26.82 32.53 L 26.56 32.33 L 26.29 32.13 L 26.03 31.92 L 25.77 31.72 L 25.39 31.63 L 25.05 31.52 L 24.67 31.43 L 24.32 31.31 L 23.94 31.23 L 23.60 31.11 L 23.22 31.02 L 22.87 30.91 L 22.49 30.82 L 22.13 30.72 L 21.77 30.62 L 21.41 30.52 L 21.04 30.41 L 20.67 30.33 L 20.30 30.23 L 19.94 30.12 L 19.58 30.02 L 19.21 29.92 L 18.87 29.81 L 18.49 29.72 L 18.13 29.62 L 17.76 29.52 L 17.39 29.43 L 17.04 29.31 L 16.68 29.21 L 16.31 29.11 L 15.95 29.01 L 15.59 28.91 L 15.22 28.80 L 14.86 28.70 L 14.50 28.60 L 14.14 28.50 L 13.77 28.40 L 13.41 28.30 L 13.06 28.18 L 12.69 28.09 L 12.34 27.98 L 11.96 27.89 L 11.61 27.77 L 11.25 27.67 L 10.89 27.57 L 10.52 27.47 L 10.16 27.37 L 9.81 27.25 L 9.44 27.16 L 9.09 27.05 L 9.04 26.74 L 9.16 26.40 L 9.49 26.44 L 9.87 26.53 L 10.22 26.64 L 10.60 26.73 L 10.96 26.83 L 11.32 26.93 L 11.70 27.02 L 12.05 27.14 L 12.42 27.22 L 12.79 27.32 L 13.15 27.43 L 13.51 27.53 L 13.88 27.63 L 14.25 27.72 L 14.60 27.83 L 14.98 27.92 L 15.33 28.04 L 15.70 28.12 L 16.07 28.22 L 16.43 28.33 L 16.81 28.41 L 17.15 28.53 L 17.53 28.62 L 17.88 28.73 L 18.26 28.82 L 18.62 28.92 L 18.98 29.02 L 19.35 29.12 L 19.71 29.22 L 20.07 29.33 L 20.43 29.43 L 20.81 29.52 L 21.16 29.63 L 21.54 29.72 L 21.88 29.83 L 22.26 29.92 L 22.62 30.02 L 22.99 30.12 L 23.35 30.23 L 23.71 30.33 L 24.07 30.43 L 24.09 30.33 L 23.84 30.11 L 23.60 29.89 L 23.35 29.67 L 23.10 29.46 L 22.87 29.22 L 22.62 29.01 L 22.39 28.78 L 22.16 28.54 L 21.94 28.30 L 21.71 28.06 L 21.51 27.80 L 21.29 27.56 L 21.09 27.30 L 20.90 27.02 L 20.74 26.72 L 20.59 26.40 L 20.53 25.99 L 20.59 25.58 L 20.74 25.26 L 20.94 25.00 L 21.19 24.79 L 21.46 24.60 L 21.74 24.41 L 22.01 24.22 L 22.30 24.05 L 22.59 23.87 L 22.87 23.68 L 23.16 23.51 L 23.44 23.32 L 23.73 23.15 L 24.00 22.96 L 24.29 22.78 L 24.57 22.59 L 24.84 22.41 L 25.13 22.23 L 25.41 22.04 L 25.68 21.85 L 25.96 21.67 L 26.24 21.48 L 26.53 21.30 L 26.80 21.12 L 27.08 20.93 L 27.35 20.74 L 27.63 20.55 L 27.90 20.36 L 28.18 20.17 L 28.46 19.98 L 28.72 19.78 L 28.99 19.59 L 29.25 19.39 L 29.52 19.19 L 29.78 18.98 L 30.02 18.76 L 30.24 18.52 L 30.46 18.27 L 30.65 18.00 L 30.84 17.72 L 30.99 17.42 L 31.13 17.08 L 31.23 16.72 L 31.30 16.33 L 31.36 15.92 L 31.39 15.49 L 31.39 15.02 L 31.33 14.62 L 31.21 14.27 L 31.02 13.99 L 30.82 13.73 L 30.63 13.45 L 30.49 13.14 L 30.37 12.79 L 30.34 12.35 L 30.37 11.92 L 30.49 11.57 L 30.63 11.25 L 30.84 10.99 L 31.07 10.76 L 31.34 10.57 L 31.66 10.42 L 32.01 10.31 L 32.43 10.26 L 32.85 10.28 L 33.26 10.34 L 33.61 10.45 L 33.91 10.61 L 34.19 10.80 L 34.43 11.02 L 34.64 11.28 L 34.82 11.55 L 34.97 11.87 L 35.09 12.22 L 35.16 12.61 L 35.16 13.08 L 35.10 13.48 L 34.97 13.82 L 34.80 14.11 L 34.58 14.35 L 34.32 14.56 L 34.03 14.73 L 33.69 14.86 L 33.35 14.98 L 33.00 15.09 L 32.75 15.31 L 32.61 15.63 L 32.52 16.01 L 32.46 16.41 L 32.43 16.85 L 32.42 17.27 L 32.49 17.66 L 32.72 17.89 L 32.97 18.11 L 33.21 18.33 L 33.46 18.55 L 33.71 18.76 L 33.95 18.98 L 34.19 19.21 L 34.43 19.43 L 34.67 19.66 L 34.91 19.88 L 35.16 20.10 L 35.41 20.32 L 35.67 20.52 L 35.91 20.74 L 36.19 20.93 L 36.45 21.13 L 36.73 21.32 L 37.00 21.51 L 37.28 21.70 L 37.57 21.87 L 37.86 22.04 L 38.16 22.20 L 38.45 22.38 L 38.77 22.52 L 39.08 22.68 L 39.39 22.83 L 39.71 22.97 L 40.03 23.12 L 40.35 23.26 L 40.67 23.41 L 40.99 23.55 L 41.31 23.70 L 41.63 23.84 L 41.95 23.99 L 42.25 24.15 L 42.57 24.29 L 42.89 24.44 L 43.20 24.60 L 43.50 24.76 L 43.81 24.92 L 44.11 25.08 L 44.39 25.18 L 44.59 24.92 L 44.79 24.65 L 44.99 24.39 L 45.20 24.13 L 45.42 23.89 L 45.60 23.61 L 45.82 23.36 L 46.02 23.10 L 46.23 22.84 L 46.43 22.58 L 46.63 22.32 L 46.84 22.06 L 47.04 21.80 L 47.24 21.54 L 47.45 21.27 L 47.65 21.01 L 47.84 20.74 L 48.04 20.48 L 48.24 20.22 L 48.45 19.95 L 48.65 19.69 L 48.84 19.42 L 49.04 19.16 L 49.23 18.88 L 49.43 18.62 L 49.64 18.36 L 49.84 18.10 L 50.03 17.82 L 50.22 17.55 L 50.42 17.28 L 50.61 17.01 L 50.81 16.75 L 51.00 16.47 L 51.20 16.21 L 51.39 15.94 L 51.58 15.66 L 51.78 15.40 L 51.97 15.12 L 52.16 14.85 L 52.36 14.59 L 52.55 14.31 L 52.74 14.04 L 52.93 13.76 L 53.12 13.48 L 53.32 13.22 L 53.51 12.95 L 53.70 12.67 L 53.90 12.41 L 54.09 12.13 L 54.28 11.86 L 54.47 11.58 L 54.66 11.31 L 54.85 11.03 L 55.03 10.76 L 55.22 10.48 L 55.43 10.22 L 55.61 9.94 L 55.80 9.67 L 55.99 9.39 L 56.18 9.12 L 56.38 8.86 L 56.57 8.58 L 56.78 8.32 L 57.02 8.10 Z"/>
    <path d="M 57.56 8.00 L 57.67 8.03 L 57.78 8.07 L 57.89 8.10 L 57.98 8.16 L 58.05 8.23 L 58.12 8.30 L 58.20 8.38 L 58.25 8.46 L 58.28 8.58 L 58.31 8.70 L 58.34 8.81 L 58.34 8.96 L 58.31 9.07 L 58.28 9.19 L 58.33 9.29 L 58.39 9.38 L 58.43 9.48 L 58.47 9.58 L 58.52 9.68 L 58.55 9.80 L 58.59 9.90 L 58.62 10.02 L 58.66 10.12 L 58.68 10.25 L 58.69 10.38 L 58.72 10.50 L 58.72 10.64 L 58.75 10.76 L 58.75 10.90 L 58.75 11.05 L 58.75 11.19 L 58.75 11.34 L 58.76 11.44 L 58.75 11.57 L 58.75 11.71 L 58.75 11.86 L 58.75 12.00 L 58.75 12.15 L 58.72 12.27 L 58.72 12.41 L 58.70 12.54 L 58.69 12.67 L 58.69 12.82 L 58.66 12.93 L 58.66 13.08 L 58.63 13.19 L 58.63 13.34 L 58.60 13.45 L 58.57 13.57 L 58.57 13.72 L 58.55 13.83 L 58.52 13.95 L 58.50 14.08 L 58.49 14.21 L 58.46 14.33 L 58.43 14.44 L 58.40 14.56 L 58.37 14.67 L 58.37 14.82 L 58.34 14.93 L 58.31 15.05 L 58.28 15.17 L 58.25 15.28 L 58.23 15.40 L 58.20 15.52 L 58.17 15.63 L 58.14 15.75 L 58.11 15.86 L 58.08 15.98 L 58.05 16.10 L 58.02 16.21 L 57.99 16.33 L 57.96 16.44 L 57.94 16.56 L 57.91 16.68 L 57.88 16.79 L 57.85 16.91 L 57.81 17.01 L 57.76 17.11 L 57.73 17.23 L 57.70 17.34 L 57.67 17.46 L 57.63 17.56 L 57.60 17.68 L 57.56 17.78 L 57.53 17.89 L 57.50 18.01 L 57.46 18.11 L 57.41 18.21 L 57.38 18.33 L 57.34 18.43 L 57.30 18.53 L 57.27 18.65 L 57.24 18.76 L 57.18 18.85 L 57.15 18.97 L 57.12 19.08 L 57.08 19.19 L 57.04 19.29 L 57.01 19.40 L 56.96 19.50 L 56.92 19.61 L 56.88 19.71 L 56.83 19.81 L 56.80 19.93 L 56.76 20.03 L 56.72 20.13 L 56.67 20.23 L 56.63 20.33 L 56.60 20.45 L 56.54 20.53 L 56.51 20.65 L 56.46 20.74 L 56.41 20.84 L 56.37 20.94 L 56.34 21.06 L 56.28 21.14 L 56.25 21.26 L 56.21 21.36 L 56.17 21.46 L 56.11 21.55 L 56.06 21.65 L 56.02 21.75 L 55.98 21.85 L 55.93 21.96 L 55.89 22.06 L 55.85 22.16 L 55.79 22.25 L 55.76 22.36 L 55.70 22.45 L 55.66 22.55 L 55.61 22.65 L 55.56 22.74 L 55.51 22.84 L 55.47 22.94 L 55.41 23.03 L 55.37 23.13 L 55.32 23.23 L 55.27 23.32 L 55.22 23.42 L 55.18 23.52 L 55.12 23.61 L 55.06 23.70 L 55.02 23.80 L 54.98 23.90 L 54.92 23.99 L 54.87 24.09 L 54.83 24.19 L 54.77 24.28 L 54.72 24.36 L 54.67 24.47 L 54.63 24.57 L 54.57 24.65 L 54.51 24.74 L 54.47 24.84 L 54.41 24.93 L 54.37 25.03 L 54.31 25.12 L 54.25 25.21 L 54.21 25.31 L 54.16 25.41 L 54.11 25.50 L 54.05 25.58 L 53.99 25.67 L 53.95 25.77 L 53.90 25.87 L 53.84 25.96 L 53.79 26.05 L 53.73 26.13 L 53.67 26.22 L 53.63 26.32 L 53.57 26.41 L 53.51 26.50 L 53.47 26.60 L 53.41 26.69 L 53.35 26.77 L 53.29 26.86 L 53.24 26.95 L 53.19 27.05 L 53.13 27.14 L 53.08 27.22 L 53.02 27.31 L 52.96 27.40 L 52.92 27.50 L 52.86 27.59 L 52.80 27.67 L 52.74 27.76 L 52.68 27.85 L 52.64 27.95 L 52.58 28.04 L 52.52 28.12 L 52.47 28.21 L 52.41 28.30 L 52.35 28.38 L 52.31 28.48 L 52.25 28.57 L 52.26 28.64 L 52.36 28.69 L 52.45 28.75 L 52.52 28.82 L 52.60 28.89 L 52.67 28.96 L 52.71 29.07 L 52.77 29.15 L 52.77 29.30 L 52.77 29.44 L 52.74 29.56 L 52.70 29.66 L 52.65 29.76 L 52.58 29.83 L 52.52 29.92 L 52.45 29.99 L 52.36 30.05 L 52.28 30.11 L 52.18 30.15 L 52.06 30.18 L 51.94 30.21 L 51.83 30.24 L 51.71 30.27 L 51.57 30.27 L 51.42 30.27 L 51.28 30.27 L 51.16 30.24 L 51.10 30.33 L 51.04 30.41 L 50.97 30.49 L 50.91 30.57 L 50.86 30.66 L 50.80 30.75 L 50.74 30.84 L 50.68 30.92 L 50.62 31.01 L 50.57 31.10 L 50.51 31.18 L 50.45 31.27 L 50.39 31.36 L 50.32 31.43 L 50.26 31.52 L 50.20 31.60 L 50.15 31.69 L 50.09 31.78 L 50.01 31.85 L 49.96 31.94 L 49.90 32.02 L 49.84 32.11 L 49.78 32.20 L 49.72 32.29 L 49.67 32.37 L 49.61 32.46 L 49.54 32.53 L 49.48 32.62 L 49.42 32.71 L 49.36 32.79 L 49.29 32.87 L 49.23 32.95 L 49.17 33.04 L 49.12 33.13 L 49.06 33.21 L 48.98 33.29 L 48.93 33.37 L 48.85 33.45 L 48.80 33.53 L 48.74 33.62 L 48.68 33.71 L 48.61 33.78 L 48.55 33.87 L 48.49 33.95 L 48.42 34.03 L 48.36 34.11 L 48.30 34.20 L 48.23 34.27 L 48.17 34.36 L 48.11 34.45 L 48.04 34.52 L 47.98 34.61 L 47.93 34.69 L 47.85 34.77 L 47.79 34.85 L 47.74 34.94 L 47.66 35.01 L 47.61 35.10 L 47.53 35.17 L 47.48 35.26 L 47.40 35.33 L 47.35 35.42 L 47.29 35.51 L 47.21 35.58 L 47.16 35.67 L 47.08 35.74 L 47.03 35.83 L 46.95 35.90 L 46.90 35.99 L 46.82 36.06 L 46.76 36.15 L 46.71 36.23 L 46.62 36.29 L 46.56 36.38 L 46.56 36.46 L 46.66 36.51 L 46.78 36.54 L 46.91 36.55 L 47.03 36.58 L 47.13 36.62 L 47.24 36.65 L 47.36 36.68 L 47.48 36.71 L 47.59 36.74 L 47.71 36.77 L 47.82 36.80 L 47.94 36.83 L 48.06 36.86 L 48.17 36.88 L 48.29 36.91 L 48.40 36.94 L 48.52 36.97 L 48.64 37.00 L 48.75 37.03 L 48.85 37.07 L 48.97 37.10 L 49.09 37.13 L 49.20 37.16 L 49.32 37.19 L 49.42 37.23 L 49.54 37.26 L 49.65 37.29 L 49.77 37.32 L 49.88 37.35 L 50.00 37.38 L 50.12 37.41 L 50.23 37.44 L 50.35 37.47 L 50.46 37.49 L 50.58 37.52 L 50.70 37.55 L 50.81 37.58 L 50.93 37.61 L 51.04 37.64 L 51.16 37.67 L 51.28 37.70 L 51.39 37.73 L 51.49 37.77 L 51.61 37.80 L 51.73 37.83 L 51.84 37.86 L 51.96 37.89 L 52.07 37.92 L 52.19 37.94 L 52.31 37.97 L 52.42 38.00 L 52.52 38.05 L 52.64 38.07 L 52.76 38.10 L 52.87 38.13 L 52.99 38.16 L 53.10 38.19 L 53.22 38.22 L 53.34 38.25 L 53.45 38.28 L 53.57 38.31 L 53.68 38.34 L 53.80 38.36 L 53.92 38.39 L 54.03 38.42 L 54.15 38.45 L 54.25 38.50 L 54.37 38.52 L 54.48 38.55 L 54.60 38.58 L 54.72 38.61 L 54.83 38.64 L 54.95 38.67 L 55.05 38.71 L 55.16 38.74 L 55.28 38.77 L 55.40 38.80 L 55.51 38.83 L 55.63 38.86 L 55.75 38.89 L 55.86 38.92 L 55.98 38.95 L 56.09 38.97 L 56.21 39.00 L 56.33 39.03 L 56.44 39.06 L 56.56 39.09 L 56.67 39.12 L 56.73 39.09 L 56.78 38.99 L 56.82 38.89 L 56.86 38.79 L 56.92 38.70 L 56.96 38.60 L 57.01 38.50 L 57.07 38.41 L 57.11 38.31 L 57.15 38.21 L 57.21 38.12 L 57.31 38.13 L 57.43 38.16 L 57.52 38.22 L 57.62 38.26 L 57.72 38.31 L 57.81 38.36 L 57.92 38.39 L 58.01 38.45 L 58.11 38.50 L 58.21 38.54 L 58.30 38.60 L 58.41 38.63 L 58.50 38.68 L 58.60 38.73 L 58.70 38.77 L 58.79 38.83 L 58.89 38.87 L 58.99 38.92 L 59.10 38.96 L 59.20 39.00 L 59.28 39.06 L 59.39 39.10 L 59.49 39.15 L 59.58 39.21 L 59.69 39.24 L 59.78 39.29 L 59.88 39.34 L 59.98 39.38 L 60.07 39.44 L 60.18 39.47 L 60.27 39.53 L 60.37 39.57 L 60.47 39.61 L 60.56 39.67 L 60.68 39.70 L 60.76 39.76 L 60.87 39.80 L 60.97 39.84 L 61.07 39.89 L 61.17 39.93 L 61.26 39.99 L 61.36 40.03 L 61.46 40.08 L 61.56 40.12 L 61.66 40.16 L 61.75 40.22 L 61.85 40.27 L 61.95 40.31 L 62.06 40.35 L 62.16 40.40 L 62.26 40.44 L 62.35 40.50 L 62.45 40.54 L 62.55 40.58 L 62.65 40.63 L 62.75 40.67 L 62.85 40.72 L 62.94 40.77 L 63.04 40.82 L 63.14 40.86 L 63.25 40.90 L 63.33 40.96 L 63.43 41.01 L 63.52 41.06 L 63.59 41.14 L 63.67 41.21 L 63.71 41.31 Z"/>
    <path d="M 50.33 28.31 L 50.39 28.22 L 50.45 28.14 L 50.51 28.05 L 50.57 27.96 L 50.62 27.88 L 50.68 27.79 L 50.74 27.70 L 50.80 27.61 L 50.86 27.53 L 50.91 27.44 L 50.97 27.35 L 51.03 27.27 L 51.07 27.16 L 51.13 27.08 L 51.19 26.99 L 51.25 26.90 L 51.31 26.82 L 51.36 26.73 L 51.41 26.63 L 51.47 26.54 L 51.52 26.45 L 51.58 26.37 L 51.62 26.27 L 51.68 26.18 L 51.74 26.09 L 51.80 26.00 L 51.84 25.90 L 51.90 25.82 L 51.96 25.73 L 52.02 25.64 L 52.06 25.54 L 52.12 25.45 L 52.16 25.35 L 52.22 25.26 L 52.28 25.18 L 52.34 25.09 L 52.38 24.99 L 52.42 24.89 L 52.48 24.80 L 52.54 24.71 L 52.60 24.63 L 52.64 24.52 L 52.70 24.44 L 52.74 24.34 L 52.80 24.25 L 52.86 24.16 L 52.90 24.06 L 52.95 23.96 L 53.00 23.87 L 53.06 23.78 L 53.10 23.68 L 53.15 23.58 L 53.21 23.49 L 53.26 23.41 L 53.31 23.31 L 53.35 23.20 L 53.41 23.12 L 53.45 23.02 L 53.50 22.91 L 53.55 22.83 L 53.60 22.73 L 53.64 22.62 L 53.70 22.54 L 53.74 22.44 L 53.79 22.33 L 53.84 22.25 L 53.89 22.15 L 53.93 22.04 L 53.99 21.96 L 54.03 21.85 L 54.08 21.75 L 54.13 21.67 L 54.16 21.55 L 54.22 21.46 L 54.27 21.36 L 54.31 21.26 L 54.37 21.17 L 54.40 21.06 L 54.45 20.97 L 54.50 20.87 L 54.54 20.77 L 54.58 20.67 L 54.63 20.56 L 54.67 20.46 L 54.72 20.36 L 54.77 20.27 L 54.80 20.16 L 54.86 20.07 L 54.89 19.95 L 54.95 19.87 L 54.98 19.75 L 55.03 19.66 L 55.06 19.55 L 55.11 19.45 L 55.15 19.35 L 55.19 19.24 L 55.24 19.14 L 55.28 19.04 L 55.32 18.94 L 55.37 18.84 L 55.41 18.74 L 55.44 18.62 L 55.48 18.52 L 55.53 18.42 L 55.57 18.32 L 55.61 18.21 L 55.64 18.10 L 55.69 18.00 L 55.73 17.89 L 55.76 17.78 L 55.80 17.68 L 55.83 17.56 L 55.88 17.46 L 55.90 17.34 L 55.95 17.24 L 55.99 17.14 L 56.02 17.02 L 56.05 16.91 L 56.09 16.81 L 56.14 16.70 L 56.17 16.59 L 56.19 16.47 L 56.22 16.36 L 56.25 16.24 L 56.30 16.14 L 56.34 16.04 L 56.37 15.92 L 56.40 15.81 L 56.43 15.69 L 56.46 15.57 L 56.48 15.46 L 56.51 15.34 L 56.56 15.24 L 56.59 15.12 L 56.62 15.01 L 56.63 14.88 L 56.67 14.78 L 56.70 14.66 L 56.73 14.54 L 56.75 14.41 L 56.78 14.30 L 56.80 14.18 L 56.83 14.06 L 56.86 13.95 L 56.89 13.83 L 56.92 13.72 L 56.93 13.59 L 56.95 13.45 L 56.98 13.34 L 57.01 13.22 L 57.02 13.09 L 57.04 12.96 L 57.07 12.85 L 57.09 12.73 L 57.09 12.58 L 57.12 12.47 L 57.12 12.32 L 57.15 12.21 L 57.18 12.09 L 57.18 11.95 L 57.21 11.83 L 57.21 11.68 L 57.24 11.57 L 57.24 11.42 L 57.27 11.31 L 57.27 11.16 L 57.27 11.02 L 57.30 10.90 L 57.30 10.76 L 57.31 10.63 L 57.33 10.50 L 57.24 10.52 L 57.18 10.61 L 57.12 10.70 L 57.07 10.79 L 56.99 10.86 L 56.93 10.95 L 56.88 11.03 L 56.82 11.12 L 56.76 11.21 L 56.70 11.29 L 56.63 11.37 L 56.57 11.45 L 56.51 11.54 L 56.46 11.63 L 56.40 11.71 L 56.34 11.80 L 56.28 11.89 L 56.21 11.96 L 56.15 12.05 L 56.09 12.13 L 56.04 12.22 L 55.98 12.31 L 55.92 12.40 L 55.86 12.48 L 55.79 12.56 L 55.73 12.64 L 55.67 12.73 L 55.61 12.82 L 55.56 12.90 L 55.50 12.99 L 55.44 13.08 L 55.38 13.16 L 55.31 13.24 L 55.25 13.32 L 55.19 13.41 L 55.14 13.50 L 55.08 13.59 L 55.01 13.66 L 54.95 13.75 L 54.89 13.83 L 54.83 13.92 L 54.76 13.99 L 54.70 14.08 L 54.64 14.17 L 54.58 14.25 L 54.51 14.33 L 54.45 14.41 L 54.40 14.50 L 54.32 14.57 L 54.27 14.66 L 54.21 14.75 L 54.15 14.83 L 54.08 14.91 L 54.02 14.99 L 53.96 15.08 L 53.90 15.17 L 53.83 15.24 L 53.77 15.33 L 53.70 15.40 L 53.64 15.49 L 53.58 15.57 L 53.53 15.66 L 53.45 15.73 L 53.39 15.82 L 53.32 15.89 L 53.26 15.98 L 53.21 16.07 L 53.13 16.14 L 53.08 16.23 L 53.00 16.30 L 52.95 16.39 L 52.89 16.47 L 52.81 16.55 L 52.76 16.63 L 52.68 16.70 L 52.63 16.79 L 52.57 16.88 L 52.50 16.95 L 52.44 17.04 L 52.38 17.13 L 52.31 17.20 L 52.25 17.28 L 52.19 17.37 L 52.12 17.44 L 52.06 17.53 L 51.99 17.60 L 51.93 17.69 L 51.86 17.76 L 51.80 17.85 L 51.73 17.92 L 51.67 18.01 L 51.60 18.08 L 51.54 18.17 L 51.47 18.24 L 51.41 18.33 L 51.35 18.42 L 51.28 18.49 L 51.22 18.58 L 51.15 18.65 L 51.09 18.74 L 51.02 18.81 L 50.96 18.90 L 50.88 18.97 L 50.83 19.05 L 50.77 19.14 L 50.70 19.21 L 50.64 19.30 L 50.57 19.37 L 50.51 19.46 L 50.45 19.55 L 50.38 19.62 L 50.32 19.71 L 50.25 19.78 L 50.19 19.87 L 50.12 19.94 L 50.06 20.03 L 49.99 20.10 L 49.93 20.19 L 49.87 20.27 L 49.80 20.35 L 49.74 20.43 L 49.67 20.51 L 49.61 20.59 L 49.54 20.67 L 49.48 20.75 L 49.41 20.82 L 49.35 20.91 L 49.29 21.00 L 49.22 21.07 L 49.16 21.16 L 49.09 21.23 L 49.03 21.32 L 48.96 21.39 L 48.90 21.48 L 48.82 21.55 L 48.77 21.64 L 48.69 21.71 L 48.64 21.80 L 48.58 21.88 L 48.51 21.96 L 48.45 22.04 L 48.39 22.13 L 48.32 22.20 L 48.24 22.28 L 48.19 22.36 L 48.13 22.45 L 48.06 22.52 L 48.00 22.61 L 47.93 22.68 L 47.87 22.77 L 47.81 22.86 L 47.74 22.93 L 47.66 23.00 L 47.61 23.09 L 47.55 23.18 L 47.48 23.25 L 47.42 23.33 L 47.35 23.41 L 47.29 23.49 L 47.23 23.58 L 47.17 23.67 L 47.10 23.74 L 47.04 23.83 L 46.97 23.90 L 46.91 23.99 L 46.85 24.07 L 46.78 24.15 L 46.72 24.23 L 46.65 24.31 L 46.59 24.39 L 46.53 24.48 L 46.46 24.55 L 46.39 24.63 L 46.33 24.71 L 46.27 24.80 L 46.20 24.87 L 46.14 24.96 L 46.07 25.03 L 46.01 25.12 L 45.95 25.21 L 45.88 25.28 L 45.82 25.37 L 45.75 25.44 L 45.69 25.53 L 45.63 25.61 L 45.56 25.68 L 45.50 25.77 L 45.43 25.84 L 45.50 25.92 L 45.59 25.98 L 45.68 26.03 L 45.76 26.09 L 45.87 26.13 L 45.95 26.19 L 46.04 26.25 L 46.13 26.31 L 46.23 26.35 L 46.32 26.41 L 46.40 26.47 L 46.49 26.53 L 46.58 26.58 L 46.66 26.64 L 46.76 26.69 L 46.85 26.74 L 46.94 26.80 L 47.03 26.86 L 47.13 26.90 L 47.21 26.96 L 47.30 27.02 L 47.39 27.08 L 47.48 27.14 L 47.56 27.19 L 47.66 27.24 L 47.75 27.30 L 47.85 27.34 L 47.94 27.40 L 48.03 27.45 L 48.11 27.51 L 48.22 27.56 L 48.30 27.61 L 48.40 27.66 L 48.49 27.72 L 48.61 27.75 L 48.69 27.80 L 48.80 27.85 L 48.90 27.89 L 49.01 27.92 L 49.12 27.96 L 49.22 28.01 L 49.33 28.04 L 49.43 28.08 L 49.54 28.12 L 49.65 28.15 L 49.77 28.18 L 49.88 28.21 L 49.99 28.25 L 50.10 28.28 L 50.22 28.31 L 50.33 28.31 Z"/>
    <path d="M 37.45 34.00 L 37.51 33.94 L 37.55 33.87 L 37.60 33.79 L 37.65 33.74 L 37.71 33.68 L 37.76 33.61 L 37.81 33.55 L 37.86 33.48 L 37.92 33.42 L 37.97 33.36 L 38.02 33.29 L 38.07 33.23 L 38.12 33.16 L 38.18 33.10 L 38.23 33.04 L 38.28 32.97 L 38.34 32.91 L 38.38 32.84 L 38.44 32.78 L 38.50 32.72 L 38.54 32.65 L 38.60 32.59 L 38.64 32.52 L 38.70 32.46 L 38.76 32.40 L 38.80 32.33 L 38.84 32.26 L 38.90 32.20 L 38.96 32.14 L 39.00 32.07 L 39.06 32.01 L 39.10 31.94 L 39.16 31.88 L 39.21 31.81 L 39.26 31.75 L 39.32 31.69 L 39.37 31.62 L 39.42 31.56 L 39.47 31.49 L 39.53 31.43 L 39.57 31.36 L 39.63 31.30 L 39.68 31.24 L 39.73 31.17 L 39.79 31.11 L 39.83 31.04 L 39.89 30.98 L 39.93 30.91 L 39.99 30.85 L 40.03 30.78 L 40.09 30.72 L 40.15 30.66 L 40.19 30.59 L 40.24 30.52 L 40.29 30.46 L 40.35 30.40 L 40.40 30.33 L 40.45 30.27 L 40.50 30.20 L 40.56 30.14 L 40.60 30.07 L 40.66 30.01 L 40.70 29.94 L 40.76 29.88 L 40.82 29.82 L 40.86 29.75 L 40.92 29.69 L 40.96 29.62 L 41.02 29.56 L 41.06 29.49 L 41.12 29.43 L 41.16 29.36 L 41.22 29.30 L 41.27 29.22 L 41.32 29.17 L 41.37 29.09 L 41.43 29.04 L 41.48 28.98 L 41.53 28.91 L 41.59 28.85 L 41.63 28.78 L 41.69 28.72 L 41.73 28.64 L 41.79 28.59 L 41.85 28.53 L 41.89 28.46 L 41.95 28.40 L 41.99 28.33 L 42.05 28.27 L 42.09 28.19 L 42.15 28.14 L 42.19 28.06 L 42.25 28.01 L 42.30 27.93 L 42.35 27.88 L 42.41 27.82 L 42.46 27.75 L 42.51 27.69 L 42.56 27.61 L 42.62 27.56 L 42.66 27.48 L 42.72 27.43 L 42.76 27.35 L 42.82 27.30 L 42.86 27.22 L 42.91 27.15 L 42.96 27.09 L 43.02 27.03 L 43.07 26.96 L 43.12 26.90 L 43.17 26.83 L 43.22 26.77 L 43.25 26.69 L 43.18 26.64 L 43.09 26.61 L 43.02 26.57 L 42.95 26.53 L 42.86 26.50 L 42.79 26.45 L 42.72 26.41 L 42.63 26.38 L 42.56 26.34 L 42.48 26.29 L 42.40 26.27 L 42.33 26.22 L 42.25 26.18 L 42.17 26.15 L 42.08 26.12 L 42.01 26.08 L 41.93 26.03 L 41.85 26.00 L 41.77 25.96 L 41.70 25.92 L 41.61 25.89 L 41.53 25.86 L 41.45 25.82 L 41.38 25.77 L 41.30 25.74 L 41.22 25.70 L 41.15 25.66 L 41.06 25.63 L 40.98 25.60 L 40.90 25.55 L 40.83 25.51 L 40.74 25.48 L 40.67 25.44 L 40.60 25.39 L 40.51 25.37 L 40.42 25.34 L 40.35 25.29 L 40.28 25.25 L 40.19 25.22 L 40.11 25.19 L 40.03 25.15 L 39.96 25.10 L 39.87 25.08 L 39.80 25.03 L 39.73 24.99 L 39.64 24.96 L 39.55 24.93 L 39.48 24.89 L 39.41 24.84 L 39.32 24.81 L 39.24 24.79 L 39.16 24.74 L 39.09 24.70 L 39.00 24.67 L 38.93 24.63 L 38.86 24.58 L 38.77 24.55 L 38.70 24.51 L 38.63 24.47 L 38.54 24.44 L 38.45 24.41 L 38.38 24.36 L 38.31 24.32 L 38.23 24.28 L 38.16 24.23 L 38.07 24.21 L 38.00 24.16 L 37.93 24.12 L 37.84 24.09 L 37.77 24.05 L 37.70 24.00 L 37.61 23.97 L 37.55 23.92 L 37.47 23.89 L 37.39 23.84 L 37.32 23.80 L 37.23 23.77 L 37.18 23.71 L 37.09 23.68 L 37.03 23.62 L 36.94 23.60 L 36.87 23.55 L 36.80 23.51 L 36.74 23.45 L 36.65 23.42 L 36.59 23.36 L 36.51 23.33 L 36.45 23.28 L 36.38 23.23 L 36.30 23.19 L 36.23 23.15 L 36.16 23.10 L 36.10 23.04 L 36.03 23.00 L 35.96 22.96 L 35.88 22.91 L 35.81 22.87 L 35.75 22.81 L 35.68 22.77 L 35.62 22.71 L 35.55 22.67 L 35.48 22.62 L 35.42 22.57 L 35.35 22.52 L 35.29 22.46 L 35.22 22.42 L 35.16 22.36 L 35.09 22.32 L 35.03 22.26 L 34.96 22.22 L 34.90 22.16 L 34.82 22.12 L 34.77 22.06 L 34.71 22.00 L 34.64 21.96 L 34.58 21.90 L 34.51 21.85 L 34.45 21.80 L 34.39 21.74 L 34.33 21.68 L 34.26 21.64 L 34.20 21.58 L 34.14 21.52 L 34.08 21.46 L 34.01 21.42 L 33.95 21.36 L 33.90 21.30 L 33.84 21.25 L 33.78 21.19 L 33.71 21.14 L 33.65 21.09 L 33.59 21.03 L 33.53 20.97 L 33.48 20.91 L 33.42 20.85 L 33.36 20.80 L 33.30 20.77 L 33.30 20.88 L 33.30 21.00 L 33.30 21.12 L 33.27 21.20 L 33.27 21.32 L 33.27 21.43 L 33.27 21.55 L 33.24 21.64 L 33.24 21.75 L 33.24 21.87 L 33.23 21.97 L 33.21 22.07 L 33.21 22.19 L 33.21 22.30 L 33.19 22.39 L 33.19 22.51 L 33.19 22.62 L 33.16 22.71 L 33.16 22.83 L 33.16 22.94 L 33.16 23.06 L 33.13 23.15 L 33.13 23.26 L 33.13 23.38 L 33.10 23.47 L 33.10 23.58 L 33.08 23.68 L 33.07 23.78 L 33.07 23.90 L 33.05 24.00 L 33.04 24.10 L 33.04 24.22 L 33.01 24.31 L 33.01 24.42 L 33.01 24.54 L 32.98 24.63 L 32.98 24.74 L 32.95 24.83 L 32.95 24.95 L 32.92 25.03 L 32.92 25.15 L 32.92 25.26 L 32.90 25.35 L 32.90 25.47 L 32.87 25.55 L 32.87 25.67 L 32.84 25.76 L 32.84 25.87 L 32.81 25.96 L 32.81 26.08 L 32.78 26.16 L 32.78 26.28 L 32.75 26.37 L 32.75 26.48 L 32.72 26.57 L 32.71 26.67 L 32.69 26.77 L 32.66 26.86 L 32.66 26.98 L 32.63 27.06 L 32.63 27.18 L 32.61 27.27 L 32.59 27.37 L 32.58 27.47 L 32.56 27.57 L 32.55 27.67 L 32.52 27.76 L 32.50 27.86 L 32.49 27.96 L 32.46 28.05 L 32.46 28.17 L 32.43 28.25 L 32.40 28.34 L 32.39 28.44 L 32.37 28.54 L 32.34 28.63 L 32.33 28.73 L 32.32 28.83 L 32.29 28.92 L 32.26 29.01 L 32.26 29.12 L 32.23 29.21 L 32.20 29.30 L 32.18 29.40 L 32.16 29.49 L 32.14 29.59 L 32.11 29.67 L 32.08 29.76 L 32.07 29.86 L 32.04 29.95 L 32.02 30.05 L 32.00 30.14 L 31.97 30.23 L 31.95 30.33 L 31.94 30.43 L 31.91 30.52 L 31.88 30.60 L 31.85 30.69 L 31.84 30.79 L 31.81 30.88 L 31.79 30.98 L 31.76 31.07 L 31.73 31.15 L 31.71 31.24 L 31.68 31.33 L 31.66 31.43 L 31.65 31.53 L 31.62 31.62 L 31.59 31.71 L 31.56 31.79 L 31.53 31.88 L 31.50 31.97 L 31.50 32.08 L 31.47 32.17 L 31.44 32.26 L 31.42 32.34 L 31.46 32.42 L 31.55 32.45 L 31.63 32.47 L 31.72 32.50 L 31.81 32.53 L 31.91 32.55 L 32.00 32.58 L 32.10 32.59 L 32.18 32.62 L 32.27 32.65 L 32.36 32.68 L 32.45 32.71 L 32.53 32.74 L 32.63 32.75 L 32.74 32.76 L 32.82 32.79 L 32.91 32.82 L 33.00 32.85 L 33.08 32.88 L 33.19 32.90 L 33.27 32.92 L 33.37 32.94 L 33.46 32.97 L 33.55 33.00 L 33.64 33.03 L 33.72 33.05 L 33.82 33.07 L 33.93 33.08 L 34.01 33.11 L 34.10 33.14 L 34.19 33.17 L 34.27 33.20 L 34.36 33.23 L 34.46 33.24 L 34.55 33.27 L 34.65 33.29 L 34.74 33.32 L 34.82 33.35 L 34.91 33.37 L 35.01 33.39 L 35.12 33.40 L 35.20 33.43 L 35.29 33.46 L 35.38 33.49 L 35.46 33.52 L 35.55 33.55 L 35.65 33.56 L 35.75 33.58 L 35.84 33.61 L 35.93 33.64 L 36.01 33.66 L 36.10 33.69 L 36.20 33.71 L 36.29 33.74 L 36.39 33.75 L 36.48 33.78 L 36.57 33.81 L 36.65 33.84 L 36.74 33.87 L 36.84 33.88 L 36.94 33.90 L 37.03 33.93 L 37.12 33.95 L 37.20 33.98 L 37.29 34.01 L 37.41 34.01 Z"/>
    <path d="M 28.86 31.59 L 28.89 31.53 L 28.89 31.44 L 28.92 31.39 L 28.92 31.30 L 28.93 31.23 L 28.95 31.15 L 28.95 31.07 L 28.98 31.01 L 28.98 30.92 L 28.98 30.84 L 29.01 30.78 L 29.01 30.69 L 29.01 30.60 L 29.04 30.55 L 29.04 30.46 L 29.04 30.37 L 29.07 30.31 L 29.07 30.23 L 29.07 30.14 L 29.09 30.08 L 29.09 29.99 L 29.09 29.91 L 29.09 29.82 L 29.12 29.76 L 29.12 29.67 L 29.12 29.59 L 29.12 29.50 L 29.15 29.44 L 29.15 29.36 L 29.15 29.27 L 29.15 29.18 L 29.18 29.12 L 29.18 29.04 L 29.18 28.95 L 29.18 28.86 L 29.21 28.80 L 29.21 28.72 L 29.21 28.63 L 29.21 28.54 L 29.21 28.46 L 29.24 28.40 L 29.24 28.31 L 29.24 28.22 L 29.24 28.14 L 29.24 28.05 L 29.27 27.99 L 29.27 27.90 L 29.27 27.82 L 29.27 27.73 L 29.28 27.66 L 29.30 27.59 L 29.30 27.50 L 29.30 27.41 L 29.30 27.32 L 29.31 27.25 L 29.33 27.18 L 29.33 27.09 L 29.33 27.01 L 29.33 26.92 L 29.34 26.85 L 29.36 26.77 L 29.36 26.69 L 29.36 26.60 L 29.36 26.51 L 29.36 26.42 L 29.37 26.35 L 29.38 26.28 L 29.38 26.19 L 29.38 26.11 L 29.38 26.02 L 29.41 25.96 L 29.41 25.87 L 29.41 25.79 L 29.41 25.70 L 29.41 25.61 L 29.41 25.53 L 29.43 25.45 L 29.44 25.38 L 29.44 25.29 L 29.44 25.21 L 29.44 25.12 L 29.44 25.03 L 29.46 24.96 L 29.47 24.89 L 29.47 24.80 L 29.47 24.71 L 29.47 24.63 L 29.47 24.54 L 29.50 24.48 L 29.50 24.39 L 29.50 24.31 L 29.50 24.22 L 29.50 24.13 L 29.52 24.06 L 29.53 23.99 L 29.53 23.90 L 29.53 23.81 L 29.53 23.73 L 29.53 23.64 L 29.54 23.57 L 29.56 23.49 L 29.56 23.41 L 29.56 23.32 L 29.56 23.23 L 29.56 23.15 L 29.59 23.09 L 29.59 23.00 L 29.59 22.91 L 29.59 22.83 L 29.59 22.74 L 29.60 22.67 L 29.62 22.59 L 29.62 22.51 L 29.62 22.42 L 29.62 22.33 L 29.65 22.28 L 29.65 22.19 L 29.65 22.10 L 29.65 22.01 L 29.65 21.93 L 29.67 21.87 L 29.67 21.78 L 29.67 21.70 L 29.67 21.61 L 29.67 21.52 L 29.70 21.46 L 29.70 21.38 L 29.70 21.29 L 29.70 21.20 L 29.72 21.13 L 29.73 21.06 L 29.69 21.01 L 29.65 21.06 L 29.59 21.09 L 29.54 21.13 L 29.49 21.16 L 29.44 21.20 L 29.40 21.25 L 29.34 21.27 L 29.30 21.32 L 29.24 21.35 L 29.20 21.39 L 29.15 21.43 L 29.09 21.46 L 29.05 21.51 L 28.99 21.54 L 28.95 21.58 L 28.91 21.62 L 28.85 21.65 L 28.80 21.70 L 28.76 21.74 L 28.70 21.77 L 28.66 21.81 L 28.62 21.85 L 28.56 21.88 L 28.51 21.93 L 28.46 21.96 L 28.41 22.00 L 28.35 22.03 L 28.31 22.07 L 28.27 22.12 L 28.21 22.15 L 28.15 22.17 L 28.11 22.22 L 28.06 22.26 L 28.01 22.29 L 27.96 22.33 L 27.92 22.38 L 27.86 22.41 L 27.80 22.44 L 27.76 22.48 L 27.70 22.51 L 27.66 22.55 L 27.60 22.58 L 27.56 22.62 L 27.50 22.65 L 27.45 22.70 L 27.40 22.73 L 27.35 22.77 L 27.30 22.80 L 27.25 22.84 L 27.19 22.87 L 27.15 22.91 L 27.09 22.94 L 27.03 22.97 L 26.99 23.02 L 26.93 23.04 L 26.89 23.09 L 26.83 23.12 L 26.79 23.16 L 26.73 23.19 L 26.67 23.22 L 26.63 23.26 L 26.57 23.29 L 26.53 23.33 L 26.47 23.36 L 26.41 23.39 L 26.37 23.44 L 26.31 23.47 L 26.27 23.51 L 26.21 23.54 L 26.15 23.57 L 26.11 23.61 L 26.05 23.64 L 26.00 23.68 L 25.95 23.71 L 25.89 23.74 L 25.84 23.78 L 25.79 23.81 L 25.74 23.86 L 25.68 23.89 L 25.63 23.92 L 25.58 23.96 L 25.53 23.99 L 25.48 24.03 L 25.42 24.06 L 25.37 24.09 L 25.32 24.13 L 25.26 24.16 L 25.22 24.21 L 25.16 24.23 L 25.10 24.26 L 25.06 24.31 L 25.00 24.34 L 24.95 24.36 L 24.90 24.41 L 24.84 24.44 L 24.79 24.47 L 24.74 24.51 L 24.68 24.54 L 24.64 24.58 L 24.58 24.61 L 24.52 24.64 L 24.48 24.68 L 24.42 24.71 L 24.36 24.74 L 24.32 24.79 L 24.26 24.81 L 24.21 24.84 L 24.15 24.87 L 24.10 24.92 L 24.05 24.95 L 23.99 24.97 L 23.94 25.02 L 23.89 25.05 L 23.83 25.08 L 23.78 25.12 L 23.73 25.15 L 23.68 25.19 L 23.62 25.22 L 23.57 25.25 L 23.51 25.28 L 23.47 25.32 L 23.41 25.35 L 23.36 25.39 L 23.31 25.42 L 23.25 25.45 L 23.19 25.48 L 23.15 25.53 L 23.09 25.55 L 23.04 25.60 L 22.99 25.63 L 22.93 25.66 L 22.87 25.68 L 22.83 25.73 L 22.77 25.76 L 22.73 25.80 L 22.67 25.83 L 22.61 25.86 L 22.57 25.90 L 22.51 25.93 L 22.46 25.98 L 22.42 26.02 L 22.45 26.08 L 22.49 26.12 L 22.54 26.16 L 22.58 26.21 L 22.61 26.27 L 22.65 26.31 L 22.70 26.35 L 22.74 26.40 L 22.77 26.45 L 22.81 26.50 L 22.86 26.54 L 22.90 26.58 L 22.94 26.63 L 22.99 26.67 L 23.03 26.72 L 23.07 26.76 L 23.10 26.82 L 23.15 26.86 L 23.19 26.90 L 23.23 26.95 L 23.28 26.99 L 23.32 27.03 L 23.36 27.08 L 23.39 27.14 L 23.44 27.18 L 23.48 27.22 L 23.52 27.27 L 23.57 27.31 L 23.61 27.35 L 23.65 27.40 L 23.70 27.44 L 23.74 27.48 L 23.78 27.53 L 23.83 27.57 L 23.87 27.61 L 23.92 27.66 L 23.96 27.70 L 24.00 27.75 L 24.05 27.79 L 24.09 27.83 L 24.13 27.88 L 24.18 27.92 L 24.22 27.96 L 24.26 28.01 L 24.31 28.05 L 24.35 28.09 L 24.39 28.14 L 24.44 28.18 L 24.50 28.21 L 24.54 28.25 L 24.58 28.30 L 24.63 28.34 L 24.67 28.38 L 24.71 28.43 L 24.76 28.47 L 24.80 28.51 L 24.84 28.56 L 24.89 28.60 L 24.95 28.63 L 24.99 28.67 L 25.03 28.72 L 25.08 28.76 L 25.12 28.80 L 25.16 28.85 L 25.21 28.89 L 25.25 28.93 L 25.29 28.98 L 25.35 29.01 L 25.39 29.05 L 25.44 29.09 L 25.48 29.14 L 25.54 29.17 L 25.58 29.21 L 25.63 29.25 L 25.67 29.30 L 25.71 29.34 L 25.77 29.37 L 25.82 29.41 L 25.86 29.46 L 25.90 29.50 L 25.96 29.53 L 26.00 29.57 L 26.05 29.62 L 26.09 29.66 L 26.15 29.69 L 26.19 29.73 L 26.24 29.78 L 26.28 29.82 L 26.34 29.85 L 26.38 29.89 L 26.42 29.94 L 26.47 29.98 L 26.53 30.01 L 26.57 30.05 L 26.61 30.10 L 26.66 30.14 L 26.70 30.18 L 26.76 30.21 L 26.80 30.25 L 26.85 30.30 L 26.90 30.33 L 26.95 30.37 L 26.99 30.41 L 27.05 30.44 L 27.09 30.49 L 27.14 30.53 L 27.19 30.56 L 27.24 30.60 L 27.28 30.65 L 27.34 30.68 L 27.38 30.72 L 27.43 30.76 L 27.48 30.79 L 27.53 30.84 L 27.59 30.86 L 27.63 30.91 L 27.69 30.94 L 27.73 30.98 L 27.79 31.01 L 27.83 31.05 L 27.89 31.08 L 27.93 31.13 L 27.99 31.15 L 28.04 31.20 L 28.09 31.23 L 28.15 31.26 L 28.21 31.28 L 28.27 31.31 L 28.33 31.34 L 28.38 31.37 L 28.44 31.40 L 28.50 31.43 L 28.56 31.46 L 28.62 31.49 L 28.67 31.52 L 28.73 31.55 L 28.79 31.58 L 28.85 31.60 Z"/>
    <path d="M 44.65 35.94 L 44.69 35.90 L 44.72 35.84 L 44.76 35.80 L 44.81 35.75 L 44.84 35.70 L 44.88 35.65 L 44.92 35.61 L 44.97 35.56 L 45.01 35.52 L 45.04 35.46 L 45.08 35.42 L 45.13 35.38 L 45.17 35.33 L 45.20 35.27 L 45.24 35.23 L 45.28 35.19 L 45.31 35.13 L 45.36 35.09 L 45.40 35.04 L 45.43 34.98 L 45.47 34.94 L 45.52 34.90 L 45.55 34.84 L 45.59 34.80 L 45.63 34.75 L 45.66 34.69 L 45.71 34.65 L 45.75 34.61 L 45.79 34.56 L 45.82 34.51 L 45.87 34.46 L 45.89 34.40 L 45.94 34.36 L 45.98 34.32 L 46.01 34.26 L 46.05 34.22 L 46.10 34.17 L 46.14 34.13 L 46.17 34.07 L 46.21 34.03 L 46.26 33.98 L 46.29 33.93 L 46.33 33.88 L 46.37 33.84 L 46.40 33.78 L 46.45 33.74 L 46.49 33.69 L 46.52 33.64 L 46.56 33.59 L 46.61 33.55 L 46.63 33.49 L 46.68 33.45 L 46.71 33.39 L 46.75 33.35 L 46.79 33.30 L 46.82 33.24 L 46.87 33.20 L 46.91 33.16 L 46.94 33.10 L 46.98 33.05 L 47.03 33.01 L 47.05 32.95 L 47.10 32.91 L 47.13 32.85 L 47.17 32.81 L 47.20 32.75 L 47.24 32.71 L 47.29 32.66 L 47.32 32.61 L 47.36 32.56 L 47.40 32.52 L 47.43 32.46 L 47.46 32.40 L 47.50 32.36 L 47.55 32.32 L 47.58 32.26 L 47.62 32.21 L 47.66 32.17 L 47.69 32.11 L 47.74 32.07 L 47.77 32.01 L 47.81 31.97 L 47.84 31.91 L 47.88 31.87 L 47.93 31.82 L 47.95 31.76 L 48.00 31.72 L 48.03 31.66 L 48.07 31.62 L 48.11 31.58 L 48.14 31.52 L 48.19 31.47 L 48.22 31.42 L 48.26 31.37 L 48.29 31.31 L 48.33 31.27 L 48.36 31.21 L 48.40 31.17 L 48.45 31.13 L 48.48 31.07 L 48.52 31.02 L 48.55 30.97 L 48.59 30.92 L 48.62 30.86 L 48.67 30.82 L 48.69 30.76 L 48.74 30.72 L 48.77 30.66 L 48.81 30.62 L 48.84 30.56 L 48.88 30.52 L 48.91 30.46 L 48.96 30.41 L 48.98 30.36 L 49.03 30.31 L 49.06 30.25 L 49.09 30.20 L 49.13 30.15 L 49.17 30.11 L 49.20 30.05 L 49.23 29.99 L 49.27 29.95 L 49.30 29.89 L 49.35 29.85 L 49.30 29.81 L 49.25 29.78 L 49.16 29.78 L 49.10 29.75 L 49.04 29.72 L 48.97 29.70 L 48.90 29.69 L 48.84 29.66 L 48.78 29.63 L 48.72 29.60 L 48.65 29.59 L 48.58 29.57 L 48.52 29.54 L 48.46 29.52 L 48.40 29.49 L 48.33 29.47 L 48.27 29.44 L 48.20 29.43 L 48.14 29.40 L 48.08 29.37 L 48.03 29.34 L 47.97 29.31 L 47.90 29.30 L 47.84 29.27 L 47.78 29.24 L 47.71 29.22 L 47.65 29.20 L 47.59 29.17 L 47.53 29.14 L 47.48 29.11 L 47.42 29.08 L 47.36 29.05 L 47.30 29.02 L 47.24 28.99 L 47.19 28.96 L 47.13 28.93 L 47.07 28.91 L 47.01 28.88 L 46.95 28.85 L 46.90 28.82 L 46.84 28.79 L 46.78 28.76 L 46.72 28.73 L 46.66 28.70 L 46.61 28.67 L 46.55 28.64 L 46.49 28.62 L 46.43 28.59 L 46.37 28.56 L 46.32 28.53 L 46.27 28.48 L 46.21 28.46 L 46.16 28.43 L 46.10 28.40 L 46.05 28.35 L 46.00 28.33 L 45.94 28.30 L 45.88 28.27 L 45.82 28.24 L 45.76 28.21 L 45.72 28.17 L 45.66 28.14 L 45.60 28.11 L 45.55 28.08 L 45.50 28.04 L 45.44 28.01 L 45.39 27.98 L 45.33 27.95 L 45.27 27.92 L 45.23 27.88 L 45.17 27.85 L 45.11 27.82 L 45.07 27.77 L 45.01 27.75 L 44.95 27.72 L 44.89 27.69 L 44.85 27.64 L 44.79 27.61 L 44.73 27.59 L 44.69 27.54 L 44.63 27.51 L 44.57 27.48 L 44.52 27.45 L 44.47 27.41 L 44.41 27.38 L 44.36 27.35 L 44.31 27.31 L 44.24 27.32 L 44.21 27.38 L 44.17 27.43 L 44.12 27.47 L 44.10 27.53 L 44.05 27.57 L 44.02 27.63 L 43.98 27.67 L 43.94 27.72 L 43.89 27.76 L 43.86 27.82 L 43.82 27.86 L 43.79 27.92 L 43.75 27.96 L 43.70 28.01 L 43.67 28.06 L 43.63 28.11 L 43.59 28.15 L 43.54 28.19 L 43.52 28.25 L 43.47 28.30 L 43.43 28.34 L 43.40 28.40 L 43.36 28.44 L 43.31 28.48 L 43.28 28.54 L 43.24 28.59 L 43.20 28.63 L 43.17 28.69 L 43.12 28.73 L 43.08 28.78 L 43.05 28.83 L 43.01 28.88 L 42.96 28.92 L 42.93 28.98 L 42.89 29.02 L 42.85 29.07 L 42.80 29.11 L 42.78 29.17 L 42.73 29.21 L 42.69 29.25 L 42.66 29.31 L 42.62 29.36 L 42.59 29.41 L 42.54 29.46 L 42.50 29.50 L 42.46 29.54 L 42.43 29.60 L 42.38 29.65 L 42.34 29.69 L 42.31 29.75 L 42.27 29.79 L 42.22 29.83 L 42.19 29.89 L 42.15 29.94 L 42.11 29.98 L 42.06 30.02 L 42.04 30.08 L 41.99 30.12 L 41.95 30.17 L 41.92 30.23 L 41.88 30.27 L 41.83 30.31 L 41.80 30.37 L 41.76 30.41 L 41.72 30.46 L 41.69 30.52 L 41.64 30.56 L 41.60 30.60 L 41.57 30.66 L 41.53 30.70 L 41.48 30.75 L 41.45 30.81 L 41.41 30.85 L 41.37 30.89 L 41.34 30.95 L 41.30 30.99 L 41.25 31.04 L 41.22 31.10 L 41.18 31.14 L 41.14 31.18 L 41.09 31.23 L 41.06 31.28 L 41.02 31.33 L 40.99 31.39 L 40.95 31.43 L 40.90 31.47 L 40.86 31.52 L 40.83 31.58 L 40.79 31.62 L 40.76 31.68 L 40.72 31.72 L 40.67 31.76 L 40.63 31.81 L 40.60 31.87 L 40.56 31.91 L 40.51 31.95 L 40.48 32.01 L 40.44 32.05 L 40.40 32.10 L 40.37 32.16 L 40.32 32.20 L 40.28 32.24 L 40.24 32.29 L 40.21 32.34 L 40.16 32.39 L 40.12 32.43 L 40.09 32.49 L 40.05 32.53 L 40.00 32.58 L 39.98 32.63 L 39.93 32.68 L 39.89 32.72 L 39.86 32.78 L 39.82 32.82 L 39.77 32.87 L 39.74 32.92 L 39.70 32.97 L 39.66 33.01 L 39.63 33.07 L 39.58 33.11 L 39.54 33.16 L 39.50 33.20 L 39.47 33.26 L 39.42 33.30 L 39.38 33.35 L 39.34 33.39 L 39.31 33.45 L 39.26 33.49 L 39.22 33.53 L 39.19 33.59 L 39.15 33.64 L 39.10 33.68 L 39.08 33.74 L 39.03 33.78 L 38.99 33.82 L 38.96 33.88 L 38.92 33.93 L 38.87 33.97 L 38.84 34.03 L 38.80 34.07 L 38.76 34.11 L 38.71 34.16 L 38.67 34.20 L 38.64 34.26 L 38.60 34.30 L 38.61 34.35 L 38.67 34.38 L 38.74 34.39 L 38.80 34.42 L 38.89 34.42 L 38.95 34.45 L 39.03 34.45 L 39.09 34.48 L 39.15 34.51 L 39.24 34.51 L 39.29 34.53 L 39.37 34.55 L 39.44 34.56 L 39.50 34.59 L 39.57 34.61 L 39.64 34.62 L 39.70 34.65 L 39.79 34.65 L 39.84 34.68 L 39.90 34.71 L 39.99 34.71 L 40.05 34.74 L 40.12 34.75 L 40.19 34.77 L 40.25 34.80 L 40.32 34.81 L 40.40 34.82 L 40.45 34.85 L 40.53 34.87 L 40.60 34.88 L 40.66 34.91 L 40.74 34.91 L 40.80 34.94 L 40.87 34.96 L 40.95 34.97 L 41.01 35.00 L 41.08 35.01 L 41.15 35.03 L 41.21 35.06 L 41.30 35.06 L 41.35 35.09 L 41.43 35.10 L 41.50 35.12 L 41.57 35.13 L 41.64 35.14 L 41.70 35.17 L 41.77 35.19 L 41.85 35.20 L 41.90 35.23 L 41.98 35.25 L 42.05 35.26 L 42.11 35.29 L 42.19 35.29 L 42.25 35.32 L 42.33 35.33 L 42.40 35.35 L 42.46 35.38 L 42.53 35.39 L 42.60 35.41 L 42.66 35.43 L 42.73 35.45 L 42.80 35.46 L 42.86 35.49 L 42.95 35.49 L 43.01 35.52 L 43.08 35.54 L 43.15 35.55 L 43.21 35.58 L 43.28 35.59 L 43.36 35.61 L 43.41 35.64 L 43.50 35.64 L 43.56 35.67 L 43.63 35.68 L 43.70 35.70 L 43.76 35.72 L 43.83 35.74 L 43.91 35.75 L 43.96 35.78 L 44.05 35.78 L 44.11 35.81 L 44.18 35.83 L 44.25 35.84 L 44.31 35.87 L 44.39 35.88 L 44.46 35.90 L 44.52 35.93 L 44.60 35.93 L 44.65 35.94 Z"/>
    <path d="M 33.36 39.02 L 33.39 38.99 L 33.40 38.95 L 33.43 38.92 L 33.46 38.89 L 33.49 38.86 L 33.50 38.81 L 33.53 38.79 L 33.56 38.76 L 33.59 38.73 L 33.62 38.70 L 33.65 38.67 L 33.66 38.63 L 33.69 38.60 L 33.72 38.57 L 33.75 38.54 L 33.77 38.50 L 33.79 38.47 L 33.82 38.44 L 33.85 38.41 L 33.88 38.38 L 33.91 38.35 L 33.94 38.32 L 33.95 38.28 L 33.98 38.25 L 34.01 38.22 L 34.04 38.19 L 34.07 38.16 L 34.08 38.12 L 34.11 38.09 L 34.14 38.06 L 34.17 38.03 L 34.20 38.00 L 34.22 37.96 L 34.24 37.93 L 34.27 37.90 L 34.30 37.87 L 34.33 37.84 L 34.35 37.80 L 34.38 37.77 L 34.40 37.74 L 34.43 37.71 L 34.46 37.68 L 34.48 37.64 L 34.51 37.61 L 34.53 37.58 L 34.56 37.55 L 34.59 37.52 L 34.61 37.48 L 34.64 37.45 L 34.67 37.42 L 34.69 37.39 L 34.72 37.36 L 34.74 37.32 L 34.77 37.29 L 34.80 37.26 L 34.82 37.23 L 34.85 37.20 L 34.87 37.16 L 34.90 37.13 L 34.93 37.10 L 34.96 37.07 L 34.98 37.04 L 35.00 37.00 L 35.03 36.97 L 35.06 36.94 L 35.09 36.91 L 35.12 36.88 L 35.13 36.84 L 35.16 36.81 L 35.19 36.78 L 35.22 36.75 L 35.25 36.73 L 35.27 36.70 L 35.29 36.65 L 35.32 36.62 L 35.35 36.59 L 35.38 36.57 L 35.39 36.52 L 35.42 36.49 L 35.45 36.46 L 35.48 36.44 L 35.51 36.41 L 35.52 36.36 L 35.55 36.33 L 35.58 36.30 L 35.61 36.28 L 35.64 36.25 L 35.65 36.20 L 35.68 36.17 L 35.71 36.15 L 35.74 36.12 L 35.77 36.09 L 35.80 36.06 L 35.81 36.01 L 35.84 35.99 L 35.87 35.96 L 35.90 35.93 L 35.91 35.88 L 35.94 35.85 L 35.97 35.83 L 36.00 35.80 L 36.03 35.77 L 36.04 35.72 L 36.07 35.70 L 36.10 35.67 L 36.13 35.64 L 36.15 35.59 L 36.17 35.56 L 36.20 35.54 L 36.23 35.51 L 36.26 35.48 L 36.28 35.43 L 36.30 35.41 L 36.33 35.38 L 36.36 35.35 L 36.38 35.30 L 36.41 35.27 L 36.44 35.25 L 36.46 35.22 L 36.49 35.19 L 36.52 35.16 L 36.54 35.12 L 36.57 35.09 L 36.59 35.06 L 36.62 35.03 L 36.64 34.98 L 36.67 34.96 L 36.70 34.93 L 36.73 34.90 L 36.75 34.87 L 36.78 34.84 L 36.77 34.80 L 36.73 34.78 L 36.68 34.77 L 36.62 34.77 L 36.59 34.74 L 36.54 34.74 L 36.51 34.71 L 36.45 34.71 L 36.41 34.69 L 36.36 34.68 L 36.32 34.67 L 36.28 34.65 L 36.22 34.65 L 36.19 34.62 L 36.13 34.62 L 36.09 34.61 L 36.04 34.59 L 35.99 34.59 L 35.96 34.56 L 35.90 34.56 L 35.87 34.53 L 35.81 34.53 L 35.77 34.52 L 35.72 34.51 L 35.68 34.49 L 35.64 34.48 L 35.58 34.48 L 35.55 34.45 L 35.49 34.45 L 35.45 34.43 L 35.41 34.42 L 35.36 34.40 L 35.32 34.39 L 35.27 34.38 L 35.23 34.36 L 35.17 34.36 L 35.14 34.33 L 35.09 34.33 L 35.06 34.30 L 35.00 34.30 L 34.96 34.29 L 34.91 34.27 L 34.85 34.27 L 34.82 34.24 L 34.77 34.24 L 34.74 34.22 L 34.68 34.22 L 34.64 34.20 L 34.59 34.19 L 34.53 34.19 L 34.51 34.16 L 34.45 34.16 L 34.42 34.13 L 34.36 34.13 L 34.32 34.11 L 34.27 34.10 L 34.22 34.10 L 34.19 34.07 L 34.13 34.07 L 34.10 34.04 L 34.04 34.04 L 34.01 34.01 L 33.95 34.01 L 33.91 34.00 L 33.87 33.98 L 33.81 33.98 L 33.78 33.95 L 33.72 33.95 L 33.68 33.94 L 33.64 33.93 L 33.59 33.91 L 33.55 33.90 L 33.50 33.88 L 33.46 33.87 L 33.40 33.87 L 33.37 33.84 L 33.32 33.84 L 33.27 33.82 L 33.23 33.81 L 33.19 33.79 L 33.14 33.78 L 33.08 33.78 L 33.05 33.75 L 33.00 33.75 L 32.97 33.72 L 32.91 33.72 L 32.85 33.72 L 32.82 33.69 L 32.76 33.69 L 32.74 33.66 L 32.68 33.66 L 32.63 33.65 L 32.59 33.64 L 32.55 33.62 L 32.50 33.61 L 32.45 33.61 L 32.42 33.58 L 32.36 33.58 L 32.33 33.55 L 32.27 33.55 L 32.23 33.53 L 32.18 33.52 L 32.13 33.52 L 32.10 33.49 L 32.04 33.49 L 32.01 33.46 L 31.95 33.46 L 31.91 33.45 L 31.87 33.43 L 31.82 33.42 L 31.78 33.40 L 31.72 33.40 L 31.69 33.37 L 31.63 33.37 L 31.59 33.36 L 31.55 33.35 L 31.50 33.33 L 31.46 33.32 L 31.40 33.32 L 31.37 33.29 L 31.31 33.29 L 31.27 33.27 L 31.23 33.26 L 31.18 33.27 L 31.18 33.33 L 31.17 33.37 L 31.15 33.42 L 31.15 33.48 L 31.14 33.52 L 31.13 33.56 L 31.13 33.62 L 31.10 33.65 L 31.10 33.71 L 31.10 33.77 L 31.07 33.79 L 31.07 33.85 L 31.07 33.91 L 31.04 33.94 L 31.04 34.00 L 31.02 34.04 L 31.01 34.08 L 31.01 34.14 L 30.98 34.17 L 30.98 34.23 L 30.98 34.29 L 30.95 34.32 L 30.95 34.38 L 30.95 34.43 L 30.94 34.48 L 30.92 34.52 L 30.92 34.58 L 30.91 34.62 L 30.89 34.67 L 30.89 34.72 L 30.86 34.75 L 30.86 34.81 L 30.86 34.87 L 30.84 34.90 L 30.84 34.96 L 30.84 35.01 L 30.81 35.04 L 30.81 35.10 L 30.81 35.16 L 30.78 35.19 L 30.78 35.25 L 30.76 35.29 L 30.75 35.33 L 30.75 35.39 L 30.72 35.42 L 30.72 35.48 L 30.70 35.52 L 30.69 35.56 L 30.69 35.62 L 30.66 35.65 L 30.66 35.71 L 30.63 35.74 L 30.63 35.80 L 30.63 35.85 L 30.65 35.90 L 30.68 35.93 L 30.69 35.97 L 30.72 36.00 L 30.75 36.03 L 30.78 36.06 L 30.81 36.09 L 30.82 36.13 L 30.85 36.16 L 30.88 36.19 L 30.91 36.22 L 30.94 36.25 L 30.97 36.28 L 30.98 36.32 L 31.01 36.35 L 31.04 36.38 L 31.07 36.41 L 31.10 36.44 L 31.13 36.46 L 31.14 36.51 L 31.17 36.54 L 31.20 36.57 L 31.23 36.59 L 31.26 36.62 L 31.28 36.65 L 31.30 36.70 L 31.33 36.73 L 31.36 36.75 L 31.39 36.78 L 31.42 36.81 L 31.44 36.84 L 31.47 36.87 L 31.50 36.90 L 31.52 36.94 L 31.55 36.97 L 31.58 37.00 L 31.60 37.03 L 31.63 37.06 L 31.65 37.10 L 31.68 37.13 L 31.71 37.16 L 31.73 37.19 L 31.76 37.22 L 31.79 37.25 L 31.81 37.29 L 31.84 37.32 L 31.87 37.35 L 31.89 37.38 L 31.92 37.41 L 31.95 37.44 L 31.98 37.47 L 32.00 37.51 L 32.02 37.54 L 32.05 37.57 L 32.08 37.60 L 32.11 37.62 L 32.14 37.65 L 32.16 37.70 L 32.18 37.73 L 32.21 37.76 L 32.24 37.78 L 32.27 37.81 L 32.30 37.84 L 32.32 37.89 L 32.34 37.92 L 32.37 37.94 L 32.40 37.97 L 32.43 38.00 L 32.46 38.03 L 32.47 38.07 L 32.50 38.10 L 32.53 38.13 L 32.56 38.16 L 32.59 38.19 L 32.62 38.22 L 32.65 38.25 L 32.66 38.29 L 32.69 38.32 L 32.72 38.35 L 32.75 38.38 L 32.78 38.41 L 32.81 38.44 L 32.82 38.48 L 32.85 38.51 L 32.88 38.54 L 32.91 38.57 L 32.94 38.60 L 32.95 38.64 L 32.98 38.67 L 33.01 38.70 L 33.04 38.73 L 33.07 38.76 L 33.10 38.79 L 33.13 38.81 L 33.14 38.86 L 33.17 38.89 L 33.20 38.92 L 33.23 38.95 L 33.26 38.97 L 33.29 39.00 L 33.32 39.03 L 33.36 39.02 Z"/>
    <path d="M 37.31 43.75 L 37.35 43.70 L 37.39 43.66 L 37.44 43.62 L 37.48 43.57 L 37.54 43.54 L 37.58 43.50 L 37.62 43.46 L 37.67 43.41 L 37.71 43.37 L 37.76 43.33 L 37.80 43.28 L 37.84 43.24 L 37.89 43.20 L 37.94 43.17 L 37.99 43.12 L 38.03 43.08 L 38.07 43.04 L 38.12 42.99 L 38.16 42.95 L 38.21 42.91 L 38.25 42.86 L 38.29 42.82 L 38.34 42.78 L 38.38 42.73 L 38.42 42.69 L 38.47 42.64 L 38.51 42.60 L 38.55 42.56 L 38.61 42.53 L 38.65 42.48 L 38.70 42.44 L 38.74 42.40 L 38.79 42.35 L 38.83 42.31 L 38.87 42.27 L 38.92 42.22 L 38.96 42.18 L 39.00 42.14 L 39.05 42.09 L 39.09 42.05 L 39.13 42.01 L 39.18 41.96 L 39.22 41.92 L 39.26 41.88 L 39.31 41.83 L 39.35 41.79 L 39.39 41.75 L 39.44 41.70 L 39.48 41.66 L 39.53 41.61 L 39.57 41.57 L 39.61 41.53 L 39.66 41.48 L 39.70 41.44 L 39.74 41.40 L 39.79 41.35 L 39.83 41.31 L 39.87 41.27 L 39.92 41.22 L 39.96 41.18 L 40.00 41.14 L 40.05 41.09 L 40.09 41.05 L 40.13 41.01 L 40.18 40.96 L 40.22 40.92 L 40.27 40.87 L 40.31 40.83 L 40.35 40.79 L 40.38 40.73 L 40.42 40.69 L 40.47 40.64 L 40.51 40.60 L 40.56 40.56 L 40.60 40.51 L 40.64 40.47 L 40.69 40.42 L 40.73 40.38 L 40.77 40.34 L 40.82 40.29 L 40.86 40.25 L 40.90 40.21 L 40.95 40.16 L 40.99 40.12 L 41.02 40.06 L 41.06 40.02 L 41.11 39.98 L 41.15 39.93 L 41.19 39.89 L 41.24 39.84 L 41.28 39.80 L 41.32 39.76 L 41.37 39.71 L 41.41 39.67 L 41.45 39.63 L 41.50 39.58 L 41.54 39.54 L 41.57 39.48 L 41.61 39.44 L 41.66 39.39 L 41.70 39.35 L 41.75 39.31 L 41.79 39.26 L 41.83 39.22 L 41.88 39.18 L 41.90 39.12 L 41.95 39.08 L 41.99 39.03 L 42.04 38.99 L 42.08 38.95 L 42.12 38.90 L 42.17 38.86 L 42.19 38.80 L 42.24 38.76 L 42.28 38.71 L 42.33 38.67 L 42.37 38.63 L 42.41 38.58 L 42.44 38.52 L 42.48 38.48 L 42.53 38.44 L 42.57 38.39 L 42.62 38.35 L 42.66 38.31 L 42.70 38.26 L 42.75 38.22 L 42.78 38.16 L 42.82 38.12 L 42.86 38.07 L 42.91 38.03 L 42.95 37.99 L 42.99 37.94 L 43.02 37.89 L 43.07 37.84 L 43.11 37.80 L 43.15 37.76 L 43.20 37.71 L 43.22 37.65 L 43.27 37.61 L 43.31 37.57 L 43.36 37.52 L 43.40 37.48 L 43.43 37.42 L 43.47 37.38 L 43.52 37.33 L 43.56 37.29 L 43.59 37.23 L 43.63 37.19 L 43.67 37.15 L 43.72 37.10 L 43.75 37.04 L 43.79 37.00 L 43.83 36.96 L 43.86 36.90 L 43.91 36.86 L 43.95 36.81 L 43.91 36.77 L 43.82 36.77 L 43.76 36.74 L 43.69 36.73 L 43.62 36.71 L 43.56 36.68 L 43.49 36.67 L 43.41 36.65 L 43.36 36.62 L 43.28 36.61 L 43.21 36.59 L 43.15 36.57 L 43.08 36.55 L 43.01 36.54 L 42.95 36.51 L 42.88 36.49 L 42.80 36.48 L 42.75 36.45 L 42.66 36.45 L 42.60 36.42 L 42.53 36.41 L 42.46 36.39 L 42.40 36.36 L 42.33 36.35 L 42.25 36.33 L 42.19 36.30 L 42.12 36.29 L 42.05 36.28 L 41.99 36.25 L 41.92 36.23 L 41.85 36.22 L 41.79 36.19 L 41.72 36.17 L 41.64 36.16 L 41.59 36.13 L 41.51 36.12 L 41.44 36.10 L 41.38 36.07 L 41.30 36.07 L 41.24 36.04 L 41.18 36.01 L 41.09 36.01 L 41.03 35.99 L 40.98 35.96 L 40.89 35.96 L 40.83 35.93 L 40.76 35.91 L 40.69 35.90 L 40.63 35.87 L 40.56 35.85 L 40.48 35.84 L 40.42 35.81 L 40.35 35.80 L 40.28 35.78 L 40.22 35.75 L 40.15 35.74 L 40.08 35.72 L 40.02 35.70 L 39.93 35.70 L 39.87 35.67 L 39.82 35.64 L 39.74 35.62 L 39.67 35.61 L 39.61 35.58 L 39.53 35.58 L 39.47 35.55 L 39.39 35.54 L 39.32 35.52 L 39.26 35.49 L 39.19 35.48 L 39.12 35.46 L 39.06 35.43 L 38.97 35.43 L 38.92 35.41 L 38.86 35.38 L 38.77 35.38 L 38.71 35.35 L 38.64 35.33 L 38.57 35.32 L 38.51 35.29 L 38.44 35.27 L 38.36 35.26 L 38.31 35.23 L 38.23 35.22 L 38.16 35.20 L 38.10 35.17 L 38.03 35.16 L 37.96 35.14 L 37.90 35.17 L 37.86 35.22 L 37.83 35.27 L 37.78 35.32 L 37.74 35.36 L 37.71 35.42 L 37.67 35.46 L 37.62 35.51 L 37.60 35.56 L 37.55 35.61 L 37.51 35.65 L 37.48 35.71 L 37.44 35.75 L 37.39 35.80 L 37.35 35.84 L 37.32 35.90 L 37.28 35.94 L 37.23 35.99 L 37.20 36.04 L 37.16 36.09 L 37.12 36.13 L 37.09 36.19 L 37.04 36.23 L 37.00 36.28 L 36.96 36.32 L 36.93 36.38 L 36.88 36.42 L 36.84 36.46 L 36.81 36.52 L 36.77 36.57 L 36.73 36.61 L 36.68 36.65 L 36.65 36.71 L 36.61 36.75 L 36.57 36.80 L 36.54 36.86 L 36.49 36.90 L 36.45 36.94 L 36.41 36.99 L 36.38 37.04 L 36.33 37.09 L 36.29 37.13 L 36.26 37.19 L 36.22 37.23 L 36.17 37.28 L 36.13 37.32 L 36.09 37.36 L 36.06 37.42 L 36.01 37.47 L 35.97 37.51 L 35.94 37.57 L 35.90 37.61 L 35.85 37.65 L 35.83 37.71 L 35.78 37.76 L 35.74 37.80 L 35.71 37.86 L 35.67 37.90 L 35.62 37.94 L 35.59 38.00 L 35.55 38.05 L 35.51 38.09 L 35.46 38.13 L 35.43 38.19 L 35.39 38.23 L 35.35 38.28 L 35.30 38.32 L 35.27 38.38 L 35.23 38.42 L 35.19 38.47 L 35.16 38.52 L 35.12 38.57 L 35.07 38.61 L 35.04 38.67 L 35.00 38.71 L 34.96 38.76 L 34.91 38.80 L 34.88 38.86 L 34.84 38.90 L 34.80 38.95 L 34.75 38.99 L 34.72 39.05 L 34.68 39.09 L 34.64 39.13 L 34.61 39.19 L 34.56 39.24 L 34.52 39.28 L 34.48 39.32 L 34.45 39.38 L 34.40 39.42 L 34.36 39.47 L 34.33 39.53 L 34.29 39.57 L 34.24 39.61 L 34.20 39.66 L 34.17 39.71 L 34.13 39.76 L 34.08 39.80 L 34.04 39.84 L 34.04 39.90 L 34.08 39.95 L 34.13 39.99 L 34.17 40.03 L 34.22 40.08 L 34.24 40.13 L 34.29 40.18 L 34.33 40.22 L 34.38 40.27 L 34.40 40.32 L 34.45 40.37 L 34.49 40.41 L 34.53 40.45 L 34.58 40.50 L 34.62 40.54 L 34.65 40.60 L 34.69 40.64 L 34.74 40.69 L 34.78 40.73 L 34.81 40.79 L 34.85 40.83 L 34.90 40.87 L 34.94 40.92 L 34.98 40.96 L 35.03 41.01 L 35.06 41.06 L 35.10 41.11 L 35.14 41.15 L 35.19 41.19 L 35.23 41.24 L 35.26 41.30 L 35.30 41.34 L 35.35 41.38 L 35.39 41.43 L 35.43 41.47 L 35.46 41.53 L 35.51 41.57 L 35.55 41.61 L 35.59 41.66 L 35.64 41.70 L 35.68 41.75 L 35.71 41.80 L 35.75 41.85 L 35.80 41.89 L 35.84 41.93 L 35.88 41.98 L 35.91 42.04 L 35.96 42.08 L 36.00 42.12 L 36.04 42.17 L 36.09 42.21 L 36.13 42.25 L 36.17 42.30 L 36.20 42.35 L 36.25 42.40 L 36.29 42.44 L 36.33 42.48 L 36.38 42.53 L 36.42 42.57 L 36.46 42.62 L 36.51 42.66 L 36.54 42.72 L 36.58 42.76 L 36.62 42.80 L 36.67 42.85 L 36.70 42.91 L 36.74 42.95 L 36.78 42.99 L 36.83 43.04 L 36.86 43.09 L 36.90 43.14 L 36.93 43.20 L 36.97 43.24 L 37.02 43.28 L 37.04 43.34 L 37.07 43.40 L 37.12 43.44 L 37.15 43.50 L 37.18 43.56 L 37.20 43.62 L 37.23 43.67 L 37.26 43.73 L 37.31 43.75 Z"/>
    <path d="M 63.72 41.56 L 63.70 41.67 L 63.64 41.76 L 63.58 41.85 L 63.49 41.90 L 63.41 41.96 L 63.29 41.99 L 63.17 42.02 L 63.03 42.02 L 62.88 42.02 L 62.74 42.02 L 62.62 41.99 L 62.48 41.99 L 62.33 41.99 L 62.22 41.96 L 62.07 41.96 L 61.94 41.95 L 61.81 41.93 L 61.66 41.93 L 61.55 41.90 L 61.40 41.90 L 61.29 41.88 L 61.14 41.88 L 61.00 41.88 L 60.88 41.85 L 60.74 41.85 L 60.62 41.82 L 60.47 41.82 L 60.36 41.79 L 60.21 41.79 L 60.07 41.79 L 59.95 41.76 L 59.81 41.76 L 59.69 41.73 L 59.55 41.73 L 59.43 41.70 L 59.28 41.70 L 59.17 41.67 L 59.02 41.67 L 58.88 41.67 L 58.76 41.64 L 58.62 41.64 L 58.50 41.61 L 58.36 41.61 L 58.23 41.60 L 58.10 41.59 L 57.96 41.57 L 57.83 41.56 L 57.69 41.56 L 57.57 41.53 L 57.43 41.53 L 57.28 41.53 L 57.17 41.50 L 57.02 41.50 L 56.91 41.47 L 56.76 41.47 L 56.64 41.44 L 56.50 41.44 L 56.35 41.44 L 56.24 41.41 L 56.11 41.40 L 56.05 41.31 L 56.08 41.19 L 56.12 41.09 L 56.15 40.98 L 56.19 40.87 L 56.22 40.76 L 56.25 40.64 L 56.28 40.53 L 56.31 40.41 L 56.35 40.31 L 56.34 40.21 L 56.24 40.16 L 56.12 40.13 L 56.01 40.11 L 55.89 40.08 L 55.77 40.05 L 55.66 40.02 L 55.54 39.99 L 55.43 39.96 L 55.31 39.93 L 55.19 39.90 L 55.08 39.87 L 54.98 39.83 L 54.86 39.80 L 54.74 39.77 L 54.64 39.73 L 54.53 39.70 L 54.41 39.67 L 54.29 39.64 L 54.18 39.61 L 54.06 39.58 L 53.95 39.55 L 53.83 39.53 L 53.73 39.48 L 53.61 39.45 L 53.50 39.42 L 53.39 39.38 L 53.28 39.35 L 53.16 39.32 L 53.05 39.29 L 52.93 39.26 L 52.81 39.24 L 52.70 39.21 L 52.58 39.18 L 52.47 39.15 L 52.35 39.12 L 52.23 39.09 L 52.12 39.06 L 52.02 39.02 L 51.92 38.97 L 51.80 38.95 L 51.68 38.92 L 51.57 38.89 L 51.45 38.86 L 51.33 38.83 L 51.22 38.80 L 51.10 38.77 L 50.99 38.74 L 50.87 38.71 L 50.77 38.67 L 50.67 38.63 L 50.55 38.60 L 50.44 38.57 L 50.32 38.54 L 50.20 38.51 L 50.09 38.48 L 49.97 38.45 L 49.85 38.42 L 49.74 38.39 L 49.62 38.36 L 49.52 38.32 L 49.41 38.29 L 49.29 38.26 L 49.19 38.22 L 49.07 38.19 L 48.96 38.16 L 48.84 38.13 L 48.72 38.10 L 48.61 38.07 L 48.49 38.05 L 48.38 38.02 L 48.26 37.99 L 48.14 37.96 L 48.03 37.93 L 47.91 37.90 L 47.81 37.86 L 47.69 37.83 L 47.58 37.80 L 47.48 37.76 L 47.36 37.73 L 47.24 37.70 L 47.13 37.67 L 47.01 37.64 L 46.90 37.61 L 46.78 37.58 L 46.66 37.55 L 46.56 37.51 L 46.45 37.48 L 46.33 37.45 L 46.21 37.42 L 46.11 37.38 L 46.00 37.35 L 45.88 37.32 L 45.76 37.35 L 45.71 37.44 L 45.63 37.51 L 45.56 37.58 L 45.50 37.67 L 45.43 37.74 L 45.37 37.83 L 45.30 37.90 L 45.23 37.97 L 45.17 38.06 L 45.10 38.13 L 45.04 38.22 L 44.97 38.29 L 44.91 38.38 L 44.84 38.45 L 44.76 38.52 L 44.70 38.61 L 44.63 38.68 L 44.57 38.77 L 44.50 38.84 L 44.43 38.92 L 44.37 39.00 L 44.30 39.08 L 44.23 39.15 L 44.17 39.24 L 44.10 39.31 L 44.04 39.39 L 43.96 39.47 L 43.89 39.54 L 43.82 39.61 L 43.76 39.70 L 43.69 39.77 L 43.62 39.84 L 43.54 39.92 L 43.49 40.00 L 43.41 40.08 L 43.34 40.15 L 43.28 40.24 L 43.21 40.31 L 43.14 40.38 L 43.07 40.45 L 43.01 40.54 L 42.93 40.61 L 42.86 40.69 L 42.79 40.76 L 42.72 40.83 L 42.66 40.92 L 42.59 40.99 L 42.51 41.06 L 42.44 41.14 L 42.38 41.22 L 42.31 41.30 L 42.24 41.37 L 42.17 41.44 L 42.09 41.51 L 42.02 41.59 L 41.95 41.66 L 41.88 41.73 L 41.82 41.82 L 41.75 41.89 L 41.67 41.96 L 41.60 42.04 L 41.53 42.11 L 41.45 42.18 L 41.38 42.25 L 41.31 42.33 L 41.24 42.40 L 41.16 42.47 L 41.09 42.54 L 41.02 42.62 L 40.95 42.69 L 40.87 42.76 L 40.80 42.83 L 40.73 42.91 L 40.66 42.98 L 40.58 43.05 L 40.51 43.12 L 40.44 43.20 L 40.37 43.27 L 40.29 43.34 L 40.22 43.41 L 40.15 43.49 L 40.08 43.56 L 40.00 43.63 L 39.93 43.70 L 39.84 43.76 L 39.77 43.83 L 39.70 43.91 L 39.63 43.98 L 39.55 44.05 L 39.48 44.12 L 39.41 44.20 L 39.34 44.27 L 39.26 44.34 L 39.18 44.40 L 39.10 44.47 L 39.03 44.55 L 38.96 44.62 L 38.87 44.68 L 38.80 44.75 L 38.73 44.82 L 38.65 44.89 L 38.58 44.97 L 38.50 45.02 L 38.42 45.10 L 38.35 45.17 L 38.28 45.24 L 38.19 45.30 L 38.12 45.37 L 38.05 45.44 L 37.97 45.52 L 37.90 45.59 L 37.81 45.65 L 37.74 45.72 L 37.73 45.82 L 37.76 45.94 L 37.77 46.07 L 37.80 46.18 L 37.83 46.30 L 37.86 46.42 L 37.89 46.53 L 37.90 46.66 L 37.92 46.79 L 37.94 46.91 L 37.97 47.03 L 38.00 47.14 L 38.03 47.26 L 38.05 47.39 L 38.07 47.50 L 38.09 47.64 L 38.12 47.75 L 38.15 47.87 L 38.18 47.98 L 38.19 48.11 L 38.21 48.24 L 38.23 48.36 L 38.26 48.48 L 38.29 48.59 L 38.31 48.72 L 38.34 48.84 L 38.35 48.97 L 38.38 49.09 L 38.41 49.20 L 38.44 49.32 L 38.45 49.45 L 38.47 49.58 L 38.50 49.70 L 38.52 49.81 L 38.55 49.93 L 38.58 50.04 L 38.58 50.19 L 38.61 50.30 L 38.64 50.42 L 38.67 50.54 L 38.68 50.67 L 38.70 50.80 L 38.73 50.91 L 38.74 51.04 L 38.76 51.18 L 38.79 51.29 L 38.81 51.41 L 38.84 51.52 L 38.87 51.64 L 38.87 51.78 L 38.90 51.90 L 38.93 52.02 L 38.96 52.13 L 38.96 52.28 L 38.99 52.39 L 39.02 52.51 L 39.05 52.63 L 39.05 52.77 L 39.08 52.89 L 39.10 53.00 L 39.12 53.13 L 39.13 53.26 L 39.16 53.38 L 39.19 53.50 L 39.19 53.64 L 39.22 53.76 L 39.25 53.87 L 39.26 54.00 L 39.28 54.13 L 39.31 54.25 L 39.34 54.37 L 39.34 54.51 L 39.37 54.63 L 39.39 54.74 L 39.39 54.89 L 39.42 55.01 L 39.45 55.12 L 39.45 55.27 L 39.48 55.38 L 39.51 55.50 L 39.51 55.64 L 39.54 55.76 L 39.57 55.88 L 39.57 56.02 L 39.60 56.14 L 39.63 56.25 L 39.63 56.40 L 39.66 56.51 L 39.67 56.64 L 39.68 56.78 L 39.71 56.89 L 39.74 57.01 L 39.74 57.15 L 39.77 57.27 L 39.79 57.40 L 39.80 57.53 L 39.83 57.65 L 39.83 57.79 L 39.86 57.91 L 39.87 58.04 L 39.89 58.17 L 39.92 58.28 L 39.92 58.43 L 39.95 58.55 L 39.95 58.69 L 39.98 58.81 L 39.99 58.94 L 40.00 59.07 L 40.03 59.18 L 40.03 59.33 L 40.06 59.44 L 40.06 59.59 L 40.09 59.71 L 40.09 59.85 L 40.12 59.97 L 40.12 60.11 L 40.15 60.23 L 40.15 60.37 L 40.18 60.49 L 40.21 60.61 L 40.21 60.75 L 40.24 60.87 L 40.24 61.01 L 40.27 61.13 L 40.27 61.27 L 40.29 61.39 L 40.32 61.50 L 40.35 61.62 L 40.37 61.75 L 40.40 61.87 L 40.42 61.98 L 40.47 62.08 L 40.51 62.19 L 40.58 62.26 L 40.66 62.33 L 40.74 62.39 L 40.86 62.42 L 40.98 62.45 L 41.09 62.48 L 41.24 62.48 L 41.37 62.49 L 41.50 62.51 L 41.64 62.51 L 41.76 62.53 L 41.90 62.53 L 42.04 62.55 L 42.17 62.56 L 42.31 62.56 L 42.43 62.59 L 42.57 62.59 L 42.69 62.62 L 42.82 62.64 L 42.95 62.65 L 43.07 62.68 L 43.17 62.72 L 43.27 62.77 L 43.37 62.81 L 43.46 62.87 L 43.54 62.93 L 43.60 63.01 L 43.66 63.10 L 43.69 63.22 L 43.69 63.36 L 43.66 63.48 L 43.60 63.56 L 43.53 63.64 L 43.44 63.70 L 43.33 63.72 L 43.21 63.75 L 43.09 63.78 L 42.96 63.80 L 42.83 63.81 L 42.70 63.83 L 42.57 63.84 L 42.43 63.84 L 42.31 63.87 L 42.17 63.87 L 42.05 63.90 L 41.90 63.90 L 41.76 63.90 L 41.64 63.93 L 41.50 63.93 L 41.35 63.93 L 41.24 63.96 L 41.09 63.96 L 40.95 63.96 Z"/>
    <path d="M 40.00 63.97 L 39.76 63.93 L 39.55 63.84 L 39.38 63.72 L 39.21 63.61 L 39.06 63.46 L 38.93 63.30 L 38.81 63.13 L 38.73 62.93 L 38.64 62.72 L 38.55 62.52 L 38.50 62.29 L 38.42 62.07 L 38.36 61.84 L 38.29 61.62 L 38.23 61.39 L 38.18 61.16 L 38.13 60.91 L 38.09 60.66 L 38.03 60.43 L 37.97 60.20 L 37.92 59.97 L 37.86 59.73 L 37.81 59.49 L 37.77 59.24 L 37.71 59.01 L 37.65 58.78 L 37.61 58.53 L 37.57 58.28 L 37.51 58.05 L 37.47 57.81 L 37.42 57.56 L 37.36 57.33 L 37.31 57.09 L 37.26 56.85 L 37.22 56.60 L 37.16 56.37 L 37.12 56.12 L 37.07 55.88 L 37.02 55.64 L 36.96 55.41 L 36.91 55.16 L 36.87 54.92 L 36.81 54.69 L 36.75 54.45 L 36.73 54.19 L 36.67 53.96 L 36.61 53.73 L 36.58 53.47 L 36.52 53.24 L 36.46 53.00 L 36.44 52.74 L 36.38 52.51 L 36.32 52.28 L 36.29 52.02 L 36.23 51.78 L 36.17 51.55 L 36.13 51.31 L 36.09 51.06 L 36.03 50.83 L 35.97 50.59 L 35.94 50.33 L 35.88 50.10 L 35.83 49.87 L 35.77 49.64 L 35.72 49.39 L 35.68 49.14 L 35.62 48.91 L 35.56 48.68 L 35.51 48.45 L 35.46 48.20 L 35.42 47.95 L 35.35 47.74 L 35.19 47.87 L 35.03 48.00 L 34.87 48.13 L 34.69 48.24 L 34.53 48.38 L 34.38 48.51 L 34.20 48.62 L 34.04 48.75 L 33.87 48.87 L 33.71 49.00 L 33.53 49.12 L 33.37 49.25 L 33.20 49.36 L 33.04 49.49 L 32.87 49.61 L 32.71 49.74 L 32.53 49.85 L 32.36 49.97 L 32.18 50.09 L 32.01 50.20 L 31.84 50.32 L 31.66 50.44 L 31.49 50.55 L 31.31 50.67 L 31.14 50.78 L 30.97 50.90 L 30.79 51.02 L 30.62 51.13 L 30.44 51.25 L 30.27 51.36 L 30.10 51.48 L 29.92 51.60 L 29.73 51.70 L 29.56 51.81 L 29.37 51.92 L 29.20 52.03 L 29.02 52.15 L 28.83 52.25 L 28.64 52.35 L 28.47 52.47 L 28.28 52.57 L 28.09 52.67 L 27.92 52.79 L 27.75 52.90 L 27.56 53.00 L 27.37 53.10 L 27.19 53.22 L 26.99 53.31 L 26.82 53.42 L 26.63 53.53 L 26.44 53.63 L 26.25 53.73 L 26.06 53.83 L 25.89 53.95 L 25.70 54.05 L 25.51 54.15 L 25.32 54.25 L 25.13 54.35 L 24.95 54.45 L 24.76 54.56 L 24.57 54.66 L 24.38 54.76 L 24.19 54.86 L 24.00 54.96 L 23.80 55.05 L 23.61 55.15 L 23.42 55.25 L 23.23 55.35 L 23.04 55.45 L 22.84 55.54 L 22.65 55.64 L 22.46 55.75 L 22.26 55.83 L 22.07 55.93 L 21.88 56.04 L 21.70 56.14 L 21.51 56.24 L 21.30 56.33 L 21.12 56.43 L 20.93 56.53 L 20.72 56.62 L 20.53 56.72 L 20.35 56.82 L 20.14 56.91 L 19.94 56.99 L 19.71 57.05 L 19.45 57.02 L 19.24 56.93 L 19.08 56.80 L 18.94 56.66 L 18.84 56.47 L 18.79 56.22 L 18.82 55.96 L 18.92 55.77 L 19.05 55.61 L 19.21 55.48 L 19.40 55.38 L 19.62 55.31 L 19.85 55.25 L 20.08 55.19 L 20.27 55.09 L 20.42 54.95 L 20.55 54.79 L 20.67 54.61 L 20.80 54.45 L 20.93 54.29 L 21.06 54.13 L 21.19 53.98 L 21.32 53.82 L 21.45 53.66 L 21.58 53.50 L 21.70 53.32 L 21.83 53.16 L 21.96 53.00 L 22.09 52.84 L 22.22 52.68 L 22.35 52.52 L 22.48 52.36 L 22.61 52.21 L 22.74 52.05 L 22.87 51.89 L 23.00 51.73 L 23.13 51.57 L 23.26 51.41 L 23.39 51.25 L 23.52 51.09 L 23.65 50.93 L 23.78 50.77 L 23.92 50.61 L 24.05 50.45 L 24.18 50.29 L 24.31 50.13 L 24.44 49.97 L 24.57 49.81 L 24.70 49.65 L 24.83 49.49 L 24.96 49.33 L 25.09 49.17 L 25.22 49.01 L 25.35 48.85 L 25.47 48.68 L 25.61 48.53 L 25.73 48.36 L 25.86 48.20 L 25.99 48.04 L 26.12 47.88 L 26.27 47.74 L 26.40 47.58 L 26.51 47.40 L 26.66 47.26 L 26.79 47.10 L 26.92 46.94 L 27.05 46.78 L 27.18 46.62 L 27.31 46.46 L 27.44 46.30 L 27.56 46.13 L 27.70 45.98 L 27.83 45.82 L 27.96 45.66 L 28.09 45.50 L 28.22 45.34 L 28.35 45.18 L 28.48 45.02 L 28.62 44.86 L 28.75 44.70 L 28.88 44.55 L 29.01 44.39 L 29.14 44.23 L 29.27 44.07 L 29.40 43.91 L 29.53 43.75 L 29.66 43.59 L 29.79 43.43 L 29.92 43.27 L 30.05 43.11 L 30.18 42.95 L 30.31 42.79 L 30.44 42.63 L 30.44 42.48 L 30.28 42.35 L 30.12 42.22 L 29.96 42.09 L 29.81 41.96 L 29.63 41.85 L 29.47 41.72 L 29.31 41.59 L 29.20 41.76 L 29.07 41.92 L 28.95 42.09 L 28.82 42.25 L 28.70 42.43 L 28.57 42.59 L 28.46 42.76 L 28.33 42.92 L 28.19 43.08 L 28.08 43.25 L 27.95 43.41 L 27.82 43.57 L 27.69 43.73 L 27.56 43.89 L 27.43 44.05 L 27.30 44.21 L 27.16 44.37 L 27.03 44.53 L 26.90 44.69 L 26.77 44.85 L 26.64 45.01 L 26.51 45.17 L 26.38 45.33 L 26.24 45.47 L 26.11 45.63 L 25.98 45.79 L 25.84 45.95 L 25.71 46.11 L 25.58 46.27 L 25.44 46.42 L 25.31 46.58 L 25.18 46.74 L 25.05 46.90 L 24.92 47.05 L 24.77 47.20 L 24.64 47.36 L 24.51 47.52 L 24.38 47.68 L 24.23 47.82 L 24.10 47.98 L 23.97 48.14 L 23.84 48.30 L 23.71 48.46 L 23.57 48.61 L 23.44 48.77 L 23.31 48.93 L 23.18 49.09 L 23.04 49.25 L 22.91 49.41 L 22.78 49.56 L 22.65 49.72 L 22.52 49.88 L 22.39 50.04 L 22.25 50.19 L 22.10 50.33 L 21.94 50.46 L 21.77 50.58 L 21.59 50.70 L 21.42 50.81 L 21.25 50.93 L 21.07 51.04 L 20.90 51.16 L 20.72 51.28 L 20.55 51.39 L 20.38 51.51 L 20.20 51.62 L 20.03 51.74 L 19.85 51.86 L 19.68 51.97 L 19.50 52.09 L 19.35 52.22 L 19.17 52.34 L 19.00 52.45 L 18.82 52.57 L 18.65 52.68 L 18.47 52.80 L 18.32 52.93 L 18.14 53.05 L 17.97 53.16 L 17.79 53.28 L 17.62 53.39 L 17.44 53.51 L 17.27 53.63 L 17.11 53.76 L 16.94 53.87 L 16.76 53.99 L 16.60 54.12 L 16.43 54.24 L 16.25 54.35 L 16.10 54.48 L 15.92 54.60 L 15.75 54.72 L 15.59 54.85 L 15.41 54.96 L 15.24 55.08 L 15.07 55.19 L 14.89 55.31 L 14.73 55.44 L 14.56 55.56 L 14.38 55.67 L 14.22 55.80 L 14.05 55.92 L 13.88 56.04 L 13.70 56.15 L 13.54 56.28 L 13.37 56.40 L 13.19 56.51 L 13.02 56.63 L 12.86 56.76 L 12.69 56.88 L 12.51 56.99 L 12.34 57.11 L 12.16 57.22 L 11.99 57.34 L 11.82 57.46 L 11.66 57.59 L 11.48 57.70 L 11.31 57.82 L 11.13 57.94 L 10.97 58.07 L 10.80 58.18 L 10.63 58.30 L 10.45 58.41 L 10.29 58.55 L 10.35 58.72 L 10.51 58.85 L 10.67 58.98 L 10.81 59.13 L 10.97 59.26 L 11.12 59.40 L 11.28 59.53 L 11.42 59.68 L 11.57 59.82 L 11.68 60.00 L 11.79 60.18 L 11.83 60.43 L 11.74 60.63 L 11.61 60.79 L 11.45 60.92 L 11.26 61.03 L 11.06 61.11 L 10.79 61.10 L 10.58 61.01 L 10.41 60.90 L 10.23 60.78 L 10.07 60.65 L 9.92 60.52 L 9.76 60.39 L 9.60 60.26 L 9.44 60.13 L 9.28 60.00 L 9.12 59.87 L 8.97 59.72 L 8.81 59.59 L 8.67 59.44 L 8.54 59.28 L 8.41 59.13 L 8.29 58.95 Z"/>
    <path d="M 22.80 53.70 L 22.86 53.67 L 22.91 53.64 L 22.97 53.61 L 23.03 53.58 L 23.09 53.55 L 23.15 53.53 L 23.20 53.50 L 23.25 53.45 L 23.31 53.42 L 23.36 53.39 L 23.42 53.37 L 23.48 53.34 L 23.54 53.31 L 23.60 53.28 L 23.65 53.25 L 23.71 53.22 L 23.77 53.19 L 23.83 53.16 L 23.89 53.13 L 23.93 53.09 L 23.99 53.06 L 24.05 53.03 L 24.10 53.00 L 24.15 52.96 L 24.21 52.93 L 24.26 52.90 L 24.32 52.87 L 24.38 52.84 L 24.44 52.81 L 24.50 52.79 L 24.55 52.76 L 24.61 52.73 L 24.67 52.70 L 24.73 52.67 L 24.79 52.64 L 24.83 52.60 L 24.89 52.57 L 24.95 52.54 L 25.00 52.51 L 25.05 52.47 L 25.10 52.44 L 25.16 52.41 L 25.22 52.38 L 25.28 52.35 L 25.34 52.32 L 25.39 52.29 L 25.45 52.26 L 25.50 52.22 L 25.55 52.19 L 25.61 52.16 L 25.67 52.13 L 25.71 52.09 L 25.77 52.06 L 25.83 52.03 L 25.89 52.00 L 25.95 51.97 L 26.00 51.94 L 26.05 51.90 L 26.11 51.87 L 26.16 51.84 L 26.22 51.81 L 26.28 51.78 L 26.32 51.74 L 26.38 51.71 L 26.44 51.68 L 26.50 51.65 L 26.56 51.62 L 26.61 51.60 L 26.66 51.55 L 26.72 51.52 L 26.77 51.49 L 26.82 51.45 L 26.87 51.42 L 26.93 51.39 L 26.99 51.36 L 27.05 51.33 L 27.11 51.31 L 27.15 51.26 L 27.21 51.23 L 27.27 51.20 L 27.31 51.16 L 27.37 51.13 L 27.43 51.10 L 27.48 51.07 L 27.54 51.04 L 27.59 51.00 L 27.64 50.97 L 27.70 50.94 L 27.75 50.90 L 27.80 50.87 L 27.86 50.84 L 27.92 50.81 L 27.96 50.77 L 28.02 50.74 L 28.08 50.71 L 28.12 50.67 L 28.18 50.64 L 28.24 50.61 L 28.30 50.58 L 28.34 50.54 L 28.40 50.51 L 28.44 50.46 L 28.50 50.44 L 28.56 50.41 L 28.62 50.38 L 28.67 50.35 L 28.72 50.30 L 28.78 50.28 L 28.82 50.23 L 28.88 50.20 L 28.93 50.17 L 28.99 50.15 L 29.04 50.10 L 29.09 50.07 L 29.14 50.03 L 29.20 50.00 L 29.25 49.97 L 29.30 49.93 L 29.36 49.90 L 29.41 49.87 L 29.46 49.83 L 29.52 49.80 L 29.57 49.77 L 29.62 49.72 L 29.67 49.70 L 29.72 49.65 L 29.78 49.62 L 29.83 49.59 L 29.89 49.56 L 29.94 49.52 L 29.99 49.49 L 30.04 49.45 L 30.10 49.42 L 30.15 49.39 L 30.21 49.36 L 30.25 49.32 L 30.30 49.27 L 30.36 49.25 L 30.41 49.22 L 30.47 49.19 L 30.52 49.14 L 30.56 49.10 L 30.62 49.07 L 30.68 49.04 L 30.72 49.00 L 30.78 48.97 L 30.82 48.93 L 30.88 48.90 L 30.94 48.87 L 30.98 48.82 L 31.04 48.80 L 31.08 48.75 L 31.14 48.72 L 31.18 48.68 L 31.24 48.65 L 31.28 48.61 L 31.34 48.58 L 31.39 48.53 L 31.44 48.51 L 31.50 48.48 L 31.55 48.43 L 31.60 48.40 L 31.65 48.36 L 31.69 48.32 L 31.75 48.29 L 31.81 48.26 L 31.85 48.22 L 31.91 48.19 L 31.95 48.14 L 32.01 48.11 L 32.05 48.07 L 32.11 48.04 L 32.16 48.00 L 32.21 47.97 L 32.26 47.93 L 32.30 47.88 L 32.36 47.85 L 32.42 47.82 L 32.46 47.78 L 32.50 47.74 L 32.56 47.71 L 32.61 47.66 L 32.66 47.64 L 32.71 47.59 L 32.76 47.56 L 32.81 47.52 L 32.87 47.49 L 32.91 47.45 L 32.97 47.42 L 33.01 47.37 L 33.07 47.35 L 33.11 47.30 L 33.16 47.26 L 33.21 47.23 L 33.26 47.19 L 33.32 47.16 L 33.36 47.11 L 33.40 47.07 L 33.46 47.04 L 33.50 47.00 L 33.55 46.95 L 33.61 46.92 L 33.65 46.88 L 33.71 46.85 L 33.75 46.81 L 33.79 46.76 L 33.85 46.74 L 33.90 46.69 L 33.95 46.66 L 34.00 46.62 L 34.04 46.58 L 34.10 46.55 L 34.14 46.50 L 34.19 46.46 L 34.24 46.43 L 34.29 46.39 L 34.33 46.34 L 34.39 46.32 L 34.43 46.27 L 34.48 46.23 L 34.53 46.20 L 34.58 46.16 L 34.62 46.11 L 34.68 46.08 L 34.72 46.04 L 34.77 46.00 L 34.77 45.94 L 34.74 45.88 L 34.71 45.82 L 34.68 45.76 L 34.65 45.71 L 34.62 45.65 L 34.58 45.60 L 34.55 45.55 L 34.51 45.50 L 34.46 45.46 L 34.42 45.42 L 34.38 45.37 L 34.33 45.33 L 34.29 45.28 L 34.23 45.26 L 34.19 45.21 L 34.13 45.18 L 34.08 45.14 L 34.03 45.11 L 33.98 45.07 L 33.93 45.04 L 33.88 44.99 L 33.82 44.97 L 33.78 44.92 L 33.72 44.89 L 33.66 44.86 L 33.62 44.82 L 33.56 44.79 L 33.52 44.75 L 33.46 44.72 L 33.42 44.68 L 33.36 44.65 L 33.32 44.60 L 33.26 44.57 L 33.21 44.53 L 33.16 44.50 L 33.11 44.46 L 33.05 44.43 L 33.00 44.40 L 32.95 44.36 L 32.91 44.31 L 32.85 44.28 L 32.79 44.25 L 32.75 44.21 L 32.69 44.18 L 32.65 44.14 L 32.59 44.11 L 32.55 44.07 L 32.49 44.04 L 32.45 43.99 L 32.39 43.96 L 32.34 43.92 L 32.30 43.88 L 32.24 43.85 L 32.20 43.81 L 32.14 43.78 L 32.10 43.73 L 32.04 43.70 L 32.00 43.66 L 31.94 43.63 L 31.89 43.59 L 31.84 43.56 L 31.79 43.52 L 31.73 43.49 L 31.69 43.44 L 31.63 43.41 L 31.59 43.37 L 31.55 43.33 L 31.49 43.30 L 31.44 43.25 L 31.39 43.22 L 31.34 43.18 L 31.28 43.21 L 31.24 43.25 L 31.21 43.31 L 31.17 43.36 L 31.13 43.40 L 31.10 43.46 L 31.05 43.50 L 31.01 43.54 L 30.98 43.60 L 30.94 43.65 L 30.89 43.69 L 30.85 43.73 L 30.82 43.79 L 30.78 43.83 L 30.73 43.88 L 30.69 43.92 L 30.66 43.98 L 30.62 44.02 L 30.57 44.07 L 30.55 44.12 L 30.50 44.17 L 30.46 44.21 L 30.43 44.27 L 30.39 44.31 L 30.34 44.36 L 30.30 44.40 L 30.25 44.44 L 30.23 44.50 L 30.18 44.55 L 30.14 44.59 L 30.11 44.65 L 30.07 44.69 L 30.02 44.73 L 29.99 44.79 L 29.95 44.84 L 29.91 44.88 L 29.88 44.94 L 29.83 44.98 L 29.79 45.02 L 29.76 45.08 L 29.72 45.13 L 29.67 45.17 L 29.65 45.23 L 29.60 45.27 L 29.56 45.31 L 29.52 45.36 L 29.49 45.42 L 29.44 45.46 L 29.40 45.50 L 29.36 45.55 L 29.33 45.60 L 29.28 45.65 L 29.24 45.69 L 29.21 45.75 L 29.17 45.79 L 29.12 45.84 L 29.08 45.88 L 29.05 45.94 L 29.01 45.98 L 28.96 46.02 L 28.93 46.08 L 28.89 46.13 L 28.85 46.17 L 28.82 46.23 L 28.78 46.27 L 28.73 46.32 L 28.69 46.36 L 28.66 46.42 L 28.62 46.46 L 28.57 46.50 L 28.54 46.56 L 28.50 46.61 L 28.46 46.65 L 28.43 46.71 L 28.38 46.75 L 28.34 46.79 L 28.30 46.84 L 28.27 46.90 L 28.22 46.94 L 28.18 46.98 L 28.14 47.03 L 28.11 47.08 L 28.06 47.13 L 28.02 47.17 L 27.99 47.23 L 27.95 47.27 L 27.90 47.32 L 27.88 47.37 L 27.83 47.42 L 27.79 47.46 L 27.76 47.52 L 27.72 47.56 L 27.67 47.61 L 27.63 47.65 L 27.60 47.71 L 27.56 47.75 L 27.51 47.79 L 27.47 47.84 L 27.44 47.90 L 27.40 47.94 L 27.37 48.00 L 27.32 48.04 L 27.28 48.08 L 27.24 48.13 L 27.21 48.19 L 27.16 48.23 L 27.12 48.27 L 27.08 48.32 L 27.05 48.38 L 27.01 48.42 L 26.98 48.48 L 26.93 48.52 L 26.89 48.56 L 26.85 48.61 L 26.80 48.65 L 26.77 48.71 L 26.73 48.75 L 26.69 48.80 L 26.66 48.85 L 26.61 48.90 L 26.57 48.94 L 26.54 49.00 L 26.50 49.04 L 26.45 49.09 L 26.42 49.14 L 26.38 49.19 L 26.34 49.23 L 26.29 49.27 L 26.27 49.33 L 26.22 49.38 L 26.19 49.43 L 26.15 49.48 L 26.11 49.52 L 26.06 49.56 L 26.02 49.61 L 25.99 49.67 L 25.95 49.71 L 25.90 49.75 L 25.87 49.81 L 25.83 49.85 L 25.80 49.91 L 25.76 49.96 L 25.71 50.00 L 25.67 50.04 L 25.64 50.10 L 25.60 50.15 L 25.55 50.19 L 25.53 50.25 L 25.48 50.29 L 25.44 50.33 L 25.41 50.39 L 25.37 50.44 L 25.32 50.48 L 25.29 50.54 L 25.25 50.58 L 25.21 50.62 L 25.18 50.68 L 25.13 50.73 L 25.09 50.77 L 25.06 50.83 L 25.02 50.87 L 24.97 50.91 L 24.93 50.96 L 24.90 51.02 L 24.86 51.06 L 24.83 51.12 L 24.79 51.16 L 24.74 51.20 L 24.71 51.26 L 24.67 51.31 L 24.63 51.35 L 24.58 51.39 L 24.55 51.45 L 24.51 51.49 L 24.47 51.54 L 24.44 51.60 L 24.39 51.64 L 24.35 51.68 L 24.32 51.74 L 24.28 51.78 L 24.25 51.84 L 24.21 51.89 L 24.16 51.93 L 24.12 51.97 L 24.09 52.03 L 24.05 52.07 L 24.00 52.12 L 23.97 52.18 L 23.93 52.22 L 23.90 52.28 L 23.86 52.32 L 23.81 52.36 L 23.77 52.41 L 23.74 52.47 L 23.70 52.51 L 23.65 52.55 L 23.61 52.60 L 23.58 52.65 L 23.54 52.70 L 23.49 52.74 L 23.47 52.80 L 23.42 52.84 L 23.38 52.89 L 23.35 52.95 L 23.31 52.99 L 23.26 53.03 L 23.23 53.09 L 23.19 53.13 L 23.15 53.18 L 23.12 53.24 L 23.07 53.28 L 23.03 53.32 L 22.99 53.37 L 22.94 53.41 L 22.90 53.45 L 22.87 53.51 L 22.83 53.55 L 22.80 53.61 L 22.75 53.66 L 22.75 53.71 Z"/>
  </g>
</svg>
