<svg xmlns="http://www.w3.org/2000/svg" viewBox="0 0 64 64" fill="none">
  <g fill="#ffffff" fill-rule="evenodd">
    <path d="M 28.18 24.55 L 28.21 24.40 L 28.25 24.27 L 28.31 24.16 L 28.37 24.04 L 28.43 23.93 L 28.51 23.84 L 28.59 23.74 L 28.67 23.65 L 28.76 23.57 L 28.86 23.49 L 28.97 23.44 L 29.09 23.38 L 29.22 23.33 L 29.39 23.33 L 29.57 23.33 L 29.68 23.39 L 29.80 23.45 L 29.88 23.54 L 29.98 23.61 L 30.07 23.70 L 30.14 23.80 L 30.22 23.90 L 30.27 24.01 L 30.33 24.13 L 30.36 24.27 L 30.39 24.42 L 30.37 24.57 L 30.36 24.73 L 30.30 24.85 L 30.26 24.98 L 30.20 25.09 L 30.13 25.20 L 30.07 25.31 L 30.00 25.41 L 29.93 25.51 L 29.85 25.61 L 29.81 25.74 L 29.78 25.89 L 29.78 26.06 L 29.78 26.23 L 29.78 26.41 L 29.75 26.55 L 29.75 26.72 L 29.75 26.90 L 29.72 27.04 L 29.72 27.21 L 29.72 27.39 L 29.70 27.53 L 29.70 27.71 L 29.67 27.85 L 29.67 28.02 L 29.67 28.20 L 29.64 28.34 L 29.64 28.51 L 29.61 28.66 L 29.61 28.83 L 29.61 29.00 L 29.58 29.15 L 29.58 29.32 L 29.55 29.47 L 29.55 29.64 L 29.52 29.78 L 29.52 29.96 L 29.51 30.11 L 29.49 30.27 L 29.48 30.43 L 29.47 30.59 L 29.47 30.76 L 29.44 30.91 L 29.44 31.08 L 29.41 31.23 L 29.41 31.40 L 29.38 31.54 L 29.38 31.72 L 29.38 31.83 L 29.48 31.90 L 29.60 31.96 L 29.71 32.02 L 29.83 32.08 L 29.96 32.12 L 30.07 32.18 L 30.20 32.22 L 30.32 32.28 L 30.43 32.34 L 30.56 32.38 L 30.69 32.42 L 30.81 32.48 L 30.94 32.52 L 31.07 32.57 L 31.18 32.62 L 31.31 32.67 L 31.44 32.71 L 31.57 32.75 L 31.70 32.80 L 31.82 32.86 L 31.96 32.88 L 32.08 32.94 L 32.22 32.97 L 32.35 33.01 L 32.48 33.06 L 32.62 33.09 L 32.74 33.14 L 32.88 33.17 L 33.03 33.20 L 33.14 33.26 L 33.29 33.29 L 33.43 33.32 L 33.58 33.35 L 33.71 33.39 L 33.85 33.42 L 33.99 33.45 L 34.14 33.48 L 34.28 33.50 L 34.43 33.53 L 34.59 33.55 L 34.73 33.58 L 34.87 33.61 L 35.02 33.63 L 35.19 33.63 L 35.26 33.53 L 35.29 33.39 L 35.29 33.22 L 35.29 33.04 L 35.32 32.90 L 35.32 32.73 L 35.32 32.55 L 35.35 32.41 L 35.35 32.23 L 35.35 32.06 L 35.35 31.89 L 35.35 31.72 L 35.26 31.63 L 35.13 31.59 L 35.02 31.53 L 34.90 31.47 L 34.79 31.41 L 34.69 31.34 L 34.60 31.25 L 34.51 31.17 L 34.46 31.05 L 34.40 30.94 L 34.34 30.82 L 34.31 30.68 L 34.28 30.53 L 34.28 30.36 L 34.31 30.22 L 34.34 30.07 L 34.37 29.93 L 34.43 29.81 L 34.50 29.71 L 34.57 29.61 L 34.64 29.51 L 34.73 29.42 L 34.82 29.34 L 34.92 29.26 L 35.00 29.18 L 35.11 29.10 L 35.21 29.03 L 35.32 28.97 L 35.42 28.90 L 35.54 28.84 L 35.67 28.80 L 35.80 28.76 L 35.93 28.72 L 36.07 28.69 L 36.23 28.67 L 36.38 28.64 L 36.55 28.64 L 36.69 28.67 L 36.84 28.70 L 36.98 28.73 L 37.10 28.79 L 37.20 28.86 L 37.30 28.93 L 37.38 29.02 L 37.46 29.12 L 37.51 29.23 L 37.56 29.36 L 37.57 29.52 L 37.60 29.67 L 37.57 29.81 L 37.56 29.97 L 37.51 30.10 L 37.49 30.24 L 37.43 30.36 L 37.37 30.48 L 37.30 30.58 L 37.23 30.68 L 37.17 30.79 L 37.08 30.88 L 37.01 30.98 L 36.92 31.07 L 36.84 31.15 L 36.74 31.23 L 36.63 31.30 L 36.55 31.38 L 36.45 31.46 L 36.36 31.54 L 36.36 31.72 L 36.36 31.89 L 36.36 32.06 L 36.36 32.23 L 36.36 32.41 L 36.36 32.58 L 36.33 32.73 L 36.33 32.90 L 36.33 33.07 L 36.30 33.22 L 36.27 33.36 L 36.27 33.53 L 36.25 33.68 L 36.40 33.69 L 36.58 33.69 L 36.75 33.69 L 36.89 33.66 L 37.07 33.66 L 37.21 33.63 L 37.38 33.63 L 37.53 33.61 L 37.67 33.58 L 37.85 33.58 L 37.99 33.55 L 38.13 33.52 L 38.29 33.50 L 38.45 33.49 L 38.60 33.46 L 38.74 33.43 L 38.89 33.40 L 39.03 33.37 L 39.17 33.35 L 39.32 33.32 L 39.46 33.29 L 39.61 33.26 L 39.75 33.23 L 39.89 33.20 L 40.02 33.16 L 40.14 33.10 L 40.14 32.99 L 40.14 32.81 L 40.14 32.64 L 40.14 32.47 L 40.13 32.31 L 40.11 32.15 L 40.11 31.98 L 40.11 31.80 L 40.11 31.63 L 40.08 31.48 L 40.08 31.31 L 40.08 31.14 L 40.08 30.97 L 40.05 30.82 L 40.05 30.65 L 40.05 30.48 L 40.02 30.33 L 40.02 30.16 L 40.02 29.98 L 40.02 29.81 L 40.00 29.67 L 40.00 29.49 L 40.00 29.32 L 40.00 29.15 L 39.97 29.00 L 39.97 28.83 L 39.97 28.66 L 39.94 28.51 L 39.94 28.34 L 39.94 28.17 L 39.92 28.01 L 39.91 27.85 L 39.91 27.68 L 39.82 27.59 L 39.69 27.55 L 39.58 27.49 L 39.48 27.42 L 39.39 27.33 L 39.30 27.24 L 39.23 27.14 L 39.16 27.04 L 39.13 26.90 L 39.10 26.75 L 39.10 26.58 L 39.10 26.41 L 39.13 26.26 L 39.17 26.13 L 39.22 26.00 L 39.27 25.89 L 39.35 25.79 L 39.43 25.70 L 39.53 25.63 L 39.65 25.57 L 39.78 25.53 L 39.82 25.40 L 39.82 25.22 L 39.79 25.08 L 39.79 24.91 L 39.79 24.73 L 39.79 24.56 L 39.79 24.39 L 39.77 24.24 L 39.77 24.07 L 39.77 23.90 L 39.77 23.72 L 39.74 23.58 L 39.74 23.41 L 39.74 23.23 L 39.74 23.06 L 39.71 22.92 L 39.71 22.74 L 39.71 22.57 L 39.68 22.43 L 39.68 22.25 L 39.68 22.08 L 39.68 21.91 L 39.68 21.73 L 39.65 21.59 L 39.65 21.42 L 39.65 21.24 L 39.65 21.07 L 39.62 20.93 L 39.62 20.75 L 39.62 20.58 L 39.62 20.41 L 39.59 20.26 L 39.59 20.09 L 39.59 19.92 L 39.56 19.77 L 39.56 19.60 L 39.56 19.43 L 39.56 19.25 L 39.53 19.11 L 39.53 18.93 L 39.53 18.76 L 39.53 18.59 L 39.51 18.44 L 39.51 18.27 L 39.51 18.10 L 39.48 17.95 L 39.48 17.78 L 39.48 17.61 L 39.45 17.46 L 39.45 17.29 L 39.45 17.12 L 39.45 16.94 L 39.42 16.80 L 39.42 16.63 L 39.42 16.45 L 39.40 16.29 L 39.39 16.14 L 39.39 15.96 L 39.39 15.79 L 39.36 15.65 L 39.36 15.47 L 39.36 15.30 L 39.33 15.16 L 39.33 14.98 L 39.33 14.81 L 39.33 14.64 L 39.30 14.49 L 39.30 14.32 L 39.30 14.15 L 39.30 13.97 L 39.27 13.83 L 39.27 13.65 L 39.14 13.61 L 39.00 13.58 L 38.83 13.58 L 38.68 13.55 L 38.58 13.48 L 38.52 13.37 L 38.52 13.19 L 38.52 13.02 L 38.55 12.88 L 38.55 12.70 L 38.58 12.56 L 38.60 12.40 L 38.61 12.24 L 38.64 12.10 L 38.64 11.92 L 38.67 11.78 L 38.67 11.61 L 38.70 11.46 L 38.70 11.29 L 38.73 11.14 L 38.74 10.99 L 38.76 10.83 L 38.77 10.67 L 38.78 10.51 L 38.81 10.37 L 38.81 10.19 L 38.84 10.05 L 38.87 9.90 L 38.87 9.73 L 38.90 9.59 L 38.90 9.41 L 38.93 9.27 L 38.96 9.13 L 38.96 8.95 L 38.99 8.81 L 38.99 8.63 L 39.01 8.49 L 39.03 8.33 L 39.07 8.20 L 39.13 8.09 L 39.25 8.03 Z"/>
    <path d="M 39.48 8.00 L 39.52 8.01 L 39.56 8.03 L 39.61 8.04 L 39.64 8.07 L 39.66 8.10 L 39.69 8.13 L 39.72 8.16 L 39.74 8.20 L 39.77 8.23 L 39.78 8.27 L 39.79 8.32 L 39.81 8.36 L 39.82 8.40 L 39.84 8.45 L 39.85 8.49 L 39.85 8.55 L 39.87 8.59 L 39.88 8.63 L 39.88 8.69 L 39.91 8.72 L 39.91 8.78 L 39.92 8.82 L 39.94 8.87 L 39.94 8.92 L 39.95 8.97 L 39.97 9.01 L 39.97 9.07 L 39.98 9.11 L 40.00 9.15 L 40.00 9.21 L 40.02 9.24 L 40.02 9.30 L 40.02 9.36 L 40.04 9.40 L 40.05 9.44 L 40.05 9.50 L 40.08 9.53 L 40.08 9.59 L 40.08 9.64 L 40.11 9.67 L 40.11 9.73 L 40.11 9.79 L 40.14 9.82 L 40.14 9.88 L 40.14 9.93 L 40.17 9.96 L 40.17 10.02 L 40.17 10.08 L 40.20 10.11 L 40.20 10.16 L 40.20 10.22 L 40.23 10.25 L 40.23 10.31 L 40.23 10.37 L 40.26 10.39 L 40.26 10.45 L 40.26 10.51 L 40.28 10.54 L 40.28 10.60 L 40.28 10.65 L 40.31 10.68 L 40.31 10.74 L 40.31 10.80 L 40.34 10.83 L 40.34 10.89 L 40.34 10.94 L 40.37 10.97 L 40.37 11.03 L 40.37 11.09 L 40.40 11.12 L 40.40 11.17 L 40.40 11.23 L 40.43 11.26 L 40.43 11.32 L 40.43 11.38 L 40.44 11.42 L 40.46 11.46 L 40.46 11.52 L 40.47 11.56 L 40.49 11.61 L 40.49 11.66 L 40.49 11.72 L 40.52 11.75 L 40.52 11.81 L 40.53 11.85 L 40.54 11.89 L 40.54 11.95 L 40.56 12.00 L 40.57 12.04 L 40.57 12.10 L 40.59 12.14 L 40.60 12.18 L 40.60 12.24 L 40.62 12.28 L 40.63 12.33 L 40.63 12.39 L 40.65 12.43 L 40.66 12.47 L 40.66 12.53 L 40.67 12.57 L 40.69 12.62 L 40.69 12.67 L 40.70 12.72 L 40.72 12.76 L 40.72 12.82 L 40.73 12.86 L 40.75 12.90 L 40.75 12.96 L 40.76 13.01 L 40.77 13.05 L 40.77 13.11 L 40.77 13.16 L 40.76 13.21 L 40.73 13.24 L 40.70 13.27 L 40.66 13.28 L 40.62 13.29 L 40.59 13.32 L 40.53 13.32 L 40.50 13.35 L 40.44 13.35 L 40.41 13.38 L 40.36 13.38 L 40.33 13.41 L 40.28 13.42 L 40.24 13.44 L 40.20 13.45 L 40.15 13.47 L 40.11 13.48 L 40.07 13.50 L 40.05 13.54 L 40.02 13.57 L 40.05 13.60 L 40.05 13.65 L 40.05 13.71 L 40.05 13.77 L 40.05 13.83 L 40.05 13.89 L 40.05 13.94 L 40.05 14.00 L 40.05 14.06 L 40.05 14.12 L 40.05 14.17 L 40.05 14.23 L 40.08 14.26 L 40.08 14.32 L 40.08 14.38 L 40.08 14.43 L 40.08 14.49 L 40.08 14.55 L 40.08 14.61 L 40.08 14.66 L 40.08 14.72 L 40.08 14.78 L 40.10 14.82 L 40.11 14.87 L 40.11 14.92 L 40.11 14.98 L 40.11 15.04 L 40.11 15.10 L 40.11 15.16 L 40.11 15.21 L 40.11 15.27 L 40.11 15.33 L 40.11 15.39 L 40.13 15.43 L 40.14 15.47 L 40.14 15.53 L 40.14 15.59 L 40.14 15.65 L 40.14 15.70 L 40.14 15.76 L 40.14 15.82 L 40.14 15.88 L 40.14 15.93 L 40.15 15.98 L 40.17 16.02 L 40.17 16.08 L 40.17 16.14 L 40.17 16.19 L 40.17 16.25 L 40.17 16.31 L 40.17 16.37 L 40.17 16.42 L 40.17 16.48 L 40.20 16.51 L 40.20 16.57 L 40.20 16.63 L 40.20 16.68 L 40.20 16.74 L 40.20 16.80 L 40.20 16.86 L 40.20 16.91 L 40.20 16.97 L 40.20 17.03 L 40.23 17.06 L 40.23 17.12 L 40.23 17.17 L 40.23 17.23 L 40.23 17.29 L 40.23 17.35 L 40.23 17.41 L 40.23 17.46 L 40.23 17.52 L 40.23 17.58 L 40.23 17.64 L 40.24 17.68 L 40.26 17.72 L 40.26 17.78 L 40.26 17.84 L 40.26 17.90 L 40.26 17.95 L 40.26 18.01 L 40.26 18.07 L 40.26 18.13 L 40.26 18.18 L 40.26 18.24 L 40.26 18.30 L 40.27 18.34 L 40.28 18.39 L 40.28 18.44 L 40.28 18.50 L 40.28 18.56 L 40.28 18.62 L 40.28 18.67 L 40.28 18.73 L 40.28 18.79 L 40.28 18.85 L 40.28 18.91 L 40.31 18.93 L 40.31 18.99 L 40.31 19.05 L 40.31 19.11 L 40.31 19.17 L 40.31 19.22 L 40.31 19.28 L 40.31 19.34 L 40.31 19.40 L 40.31 19.45 L 40.31 19.51 L 40.31 19.57 L 40.34 19.60 L 40.34 19.66 L 40.34 19.71 L 40.34 19.77 L 40.34 19.83 L 40.34 19.89 L 40.34 19.94 L 40.34 20.00 L 40.34 20.06 L 40.34 20.12 L 40.34 20.18 L 40.34 20.23 L 40.34 20.29 L 40.36 20.33 L 40.37 20.38 L 40.37 20.43 L 40.37 20.49 L 40.37 20.55 L 40.37 20.61 L 40.37 20.67 L 40.37 20.72 L 40.37 20.78 L 40.37 20.84 L 40.37 20.90 L 40.37 20.95 L 40.37 21.01 L 40.39 21.06 L 40.40 21.10 L 40.40 21.16 L 40.40 21.21 L 40.40 21.27 L 40.40 21.33 L 40.40 21.39 L 40.40 21.44 L 40.40 21.50 L 40.40 21.56 L 40.40 21.62 L 40.41 21.66 L 40.43 21.70 L 40.43 21.76 L 40.43 21.82 L 40.43 21.88 L 40.43 21.94 L 40.43 21.99 L 40.43 22.05 L 40.43 22.11 L 40.43 22.17 L 40.43 22.22 L 40.43 22.28 L 40.44 22.32 L 40.46 22.37 L 40.46 22.43 L 40.46 22.48 L 40.46 22.54 L 40.46 22.60 L 40.46 22.66 L 40.46 22.71 L 40.46 22.77 L 40.46 22.83 L 40.46 22.89 L 40.46 22.94 L 40.46 23.00 L 40.47 23.05 L 40.49 23.09 L 40.49 23.15 L 40.49 23.20 L 40.49 23.26 L 40.49 23.32 L 40.49 23.38 L 40.49 23.44 L 40.49 23.49 L 40.49 23.55 L 40.49 23.61 L 40.49 23.67 L 40.49 23.72 L 40.49 23.78 L 40.50 23.82 L 40.52 23.87 L 40.52 23.93 L 40.52 23.98 L 40.52 24.04 L 40.52 24.10 L 40.52 24.16 L 40.52 24.21 L 40.52 24.27 L 40.52 24.33 L 40.52 24.39 L 40.53 24.43 L 40.54 24.47 L 40.54 24.53 L 40.54 24.59 L 40.54 24.65 L 40.54 24.70 L 40.54 24.76 L 40.54 24.82 L 40.54 24.88 L 40.54 24.94 L 40.54 24.99 L 40.54 25.05 L 40.56 25.09 L 40.57 25.14 L 40.57 25.20 L 40.57 25.25 L 40.57 25.31 L 40.57 25.37 L 40.57 25.43 L 40.57 25.48 L 40.57 25.54 L 40.57 25.60 L 40.57 25.66 L 40.57 25.71 L 40.57 25.77 L 40.57 25.83 L 40.59 25.87 L 40.62 25.90 L 40.65 25.93 L 40.67 25.96 L 40.70 25.99 L 40.73 26.02 L 40.76 26.05 L 40.79 26.08 L 40.80 26.12 L 40.83 26.15 L 40.86 26.18 L 40.88 26.22 L 40.90 26.25 L 40.92 26.29 L 40.95 26.32 L 40.96 26.36 L 40.99 26.39 L 41.01 26.44 L 41.03 26.46 L 41.05 26.51 L 41.08 26.54 L 41.09 26.58 L 41.12 26.61 L 41.14 26.65 L 41.16 26.68 L 41.18 26.72 L 41.21 26.75 L 41.24 26.78 L 41.25 26.83 L 41.27 26.87 L 41.29 26.90 L 41.32 26.93 L 41.34 26.97 L 41.37 27.00 L 41.38 27.04 L 41.41 27.07 L 41.42 27.11 L 41.44 27.16 L 41.47 27.19 L 41.50 27.21 L 41.51 27.26 L 41.52 27.30 L 41.55 27.33 L 41.58 27.36 L 41.60 27.40 L 41.63 27.43 L 41.64 27.47 L 41.67 27.50 L 41.68 27.55 L 41.70 27.59 L 41.73 27.62 L 41.76 27.65 L 41.77 27.69 L 41.78 27.73 L 41.81 27.76 L 41.83 27.81 L 41.84 27.85 L 41.87 27.88 L 41.90 27.91 L 41.91 27.95 L 41.94 27.98 L 41.96 28.02 L 41.99 28.05 L 42.00 28.09 L 42.02 28.14 L 42.04 28.17 L 42.06 28.21 L 42.07 28.25 L 42.10 28.28 L 42.13 28.31 L 42.15 28.35 L 42.16 28.40 L 42.19 28.43 L 42.20 28.47 L 42.22 28.51 L 42.25 28.54 L 42.26 28.59 L 42.28 28.63 L 42.30 28.66 L 42.32 28.70 L 42.33 28.74 L 42.36 28.77 L 42.38 28.82 L 42.39 28.86 L 42.42 28.89 L 42.43 28.93 L 42.45 28.97 L 42.48 29.00 L 42.49 29.05 L 42.51 29.09 L 42.53 29.12 L 42.55 29.16 L 42.56 29.21 L 42.59 29.23 L 42.61 29.28 L 42.62 29.32 L 42.65 29.35 L 42.66 29.39 L 42.68 29.44 L 42.71 29.47 L 42.72 29.51 L 42.74 29.55 L 42.77 29.58 L 42.78 29.62 L 42.79 29.67 L 42.81 29.71 L 42.84 29.74 L 42.85 29.78 L 42.87 29.83 L 42.88 29.87 L 42.91 29.90 L 42.92 29.94 L 42.94 29.98 L 42.97 30.01 L 42.97 30.07 L 43.00 30.10 L 43.01 30.14 L 43.03 30.19 L 43.05 30.22 L 43.05 30.27 L 43.08 30.30 L 43.10 30.35 L 43.11 30.39 L 43.13 30.43 L 43.14 30.48 L 43.17 30.50 L 43.17 30.56 L 43.20 30.59 L 43.20 30.65 L 43.23 30.68 L 43.24 30.72 L 43.26 30.76 L 43.27 30.81 L 43.28 30.85 L 43.30 30.89 L 43.31 30.94 L 43.33 30.98 L 43.34 31.02 L 43.37 31.05 L 43.37 31.11 L 43.40 31.14 L 43.40 31.20 L 43.43 31.23 L 43.43 31.28 L 43.46 31.31 L 43.46 31.37 L 43.49 31.40 L 43.49 31.46 L 43.52 31.48 L 43.52 31.54 L 43.54 31.57 L 43.54 31.63 L 43.56 31.67 L 43.57 31.72 L 43.59 31.76 L 43.60 31.80 L 43.60 31.86 L 43.63 31.89 L 43.63 31.95 L 43.66 31.98 L 43.66 32.03 L 43.67 32.08 L 43.69 32.12 L 43.69 32.18 L 43.72 32.21 L 43.72 32.26 L 43.72 32.32 L 43.75 32.35 L 43.75 32.41 L 43.76 32.45 L 43.78 32.49 L 43.78 32.55 L 43.78 32.61 L 43.79 32.65 Z"/>
    <path d="M 36.59 63.97 L 36.42 63.91 L 36.27 63.83 L 36.17 63.70 L 36.13 63.51 L 36.20 63.35 L 36.30 63.22 L 36.42 63.11 L 36.55 63.00 L 36.69 62.92 L 36.84 62.83 L 36.95 62.72 L 37.02 62.56 L 37.05 62.36 L 37.08 62.15 L 37.05 61.95 L 37.02 61.75 L 37.00 61.55 L 36.97 61.35 L 36.92 61.16 L 36.88 60.97 L 36.82 60.80 L 36.76 60.62 L 36.71 60.45 L 36.65 60.28 L 36.59 60.11 L 36.53 59.93 L 36.48 59.76 L 36.43 59.57 L 36.38 59.40 L 36.33 59.21 L 36.27 59.04 L 36.22 58.86 L 36.14 58.71 L 36.10 58.52 L 36.04 58.35 L 35.99 58.17 L 35.93 58.00 L 35.87 57.83 L 35.83 57.64 L 35.78 57.45 L 35.73 57.28 L 35.67 57.10 L 35.64 56.90 L 35.58 56.73 L 35.54 56.54 L 35.50 56.35 L 35.44 56.18 L 35.41 55.98 L 35.37 55.79 L 35.32 55.60 L 35.29 55.40 L 35.26 55.20 L 35.24 55.00 L 35.21 54.80 L 35.18 54.59 L 35.15 54.39 L 35.12 54.19 L 35.09 53.99 L 35.09 53.76 L 35.06 53.56 L 35.06 53.33 L 35.03 53.12 L 35.03 52.89 L 35.00 52.69 L 35.00 52.46 L 35.00 52.23 L 35.00 52.00 L 35.00 51.77 L 35.00 51.54 L 34.98 51.33 L 34.98 51.10 L 34.98 50.87 L 34.98 50.64 L 34.98 50.41 L 34.98 50.18 L 34.98 49.95 L 34.98 49.72 L 34.98 49.49 L 35.00 49.29 L 35.00 49.06 L 35.00 48.82 L 35.00 48.59 L 35.00 48.36 L 35.00 48.13 L 35.00 47.90 L 35.03 47.70 L 35.03 47.47 L 35.03 47.24 L 34.93 47.28 L 34.85 47.43 L 34.74 47.55 L 34.66 47.70 L 34.57 47.84 L 34.47 47.97 L 34.37 48.10 L 34.27 48.23 L 34.17 48.36 L 34.08 48.51 L 33.98 48.64 L 33.88 48.77 L 33.78 48.90 L 33.68 49.03 L 33.58 49.16 L 33.48 49.29 L 33.37 49.42 L 33.27 49.55 L 33.17 49.68 L 33.07 49.81 L 32.97 49.94 L 32.86 50.05 L 32.75 50.18 L 32.65 50.31 L 32.55 50.44 L 32.45 50.57 L 32.35 50.70 L 32.23 50.82 L 32.13 50.94 L 32.03 51.07 L 31.93 51.20 L 31.83 51.33 L 31.72 51.45 L 31.63 51.59 L 31.51 51.71 L 31.43 51.85 L 31.34 52.00 L 31.25 52.14 L 31.20 52.32 L 31.20 52.55 L 31.17 52.75 L 31.17 52.98 L 31.17 53.21 L 31.17 53.44 L 31.18 53.66 L 31.20 53.87 L 31.20 54.10 L 31.20 54.33 L 31.20 54.57 L 31.23 54.77 L 31.23 55.00 L 31.23 55.23 L 31.25 55.43 L 31.25 55.66 L 31.25 55.89 L 31.28 56.09 L 31.28 56.33 L 31.28 56.56 L 31.31 56.76 L 31.31 56.99 L 31.34 57.19 L 31.34 57.42 L 31.37 57.62 L 31.37 57.85 L 31.40 58.06 L 31.40 58.29 L 31.43 58.49 L 31.43 58.72 L 31.46 58.92 L 31.47 59.14 L 31.48 59.35 L 31.51 59.56 L 31.51 59.79 L 31.54 59.99 L 31.54 60.22 L 31.54 60.45 L 31.57 60.65 L 31.57 60.88 L 31.57 61.11 L 31.54 61.32 L 31.53 61.53 L 31.50 61.74 L 31.46 61.92 L 31.40 62.10 L 31.34 62.27 L 31.27 62.43 L 31.18 62.57 L 31.10 62.72 L 30.99 62.85 L 30.88 62.96 L 30.75 63.06 L 30.62 63.16 L 30.48 63.25 L 30.32 63.32 L 30.16 63.39 L 29.98 63.45 L 29.78 63.48 L 29.57 63.50 L 29.39 63.44 L 29.23 63.37 L 29.10 63.26 L 29.03 63.11 L 29.08 62.92 L 29.16 62.77 L 29.28 62.66 L 29.41 62.56 L 29.55 62.47 L 29.68 62.37 L 29.83 62.28 L 29.96 62.18 L 30.09 62.08 L 30.19 61.95 L 30.26 61.79 L 30.32 61.62 L 30.36 61.43 L 30.39 61.23 L 30.40 61.01 L 30.42 60.80 L 30.42 60.57 L 30.39 60.36 L 30.39 60.13 L 30.36 59.93 L 30.36 59.70 L 30.33 59.50 L 30.33 59.27 L 30.30 59.07 L 30.27 58.86 L 30.27 58.63 L 30.24 58.43 L 30.24 58.20 L 30.22 58.00 L 30.19 57.80 L 30.19 57.57 L 30.16 57.36 L 30.16 57.13 L 30.13 56.93 L 30.13 56.70 L 30.10 56.50 L 30.07 56.30 L 30.07 56.07 L 30.04 55.86 L 30.04 55.63 L 30.01 55.43 L 30.01 55.20 L 30.01 54.97 L 29.98 54.77 L 29.98 54.54 L 29.96 54.33 L 29.96 54.10 L 29.96 53.87 L 29.93 53.67 L 29.93 53.44 L 29.93 53.21 L 29.93 52.98 L 29.93 52.75 L 29.93 52.52 L 29.96 52.32 L 29.96 52.08 L 29.97 51.87 L 30.00 51.67 L 30.04 51.48 L 30.07 51.28 L 30.13 51.10 L 30.20 50.94 L 30.27 50.79 L 30.35 50.63 L 30.42 50.47 L 30.50 50.32 L 30.58 50.17 L 30.65 50.01 L 30.72 49.85 L 30.79 49.69 L 30.88 49.55 L 30.95 49.39 L 31.02 49.23 L 31.11 49.08 L 31.20 48.94 L 31.27 48.78 L 31.34 48.62 L 31.43 48.48 L 31.50 48.32 L 31.57 48.16 L 31.66 48.02 L 31.73 47.86 L 31.80 47.70 L 31.89 47.55 L 31.96 47.40 L 32.03 47.24 L 32.12 47.09 L 32.21 46.95 L 32.28 46.79 L 32.35 46.63 L 32.44 46.49 L 32.51 46.33 L 32.60 46.18 L 32.67 46.03 L 32.75 45.88 L 32.83 45.72 L 32.90 45.56 L 32.99 45.42 L 33.07 45.28 L 33.14 45.12 L 33.22 44.96 L 33.30 44.81 L 33.39 44.67 L 33.48 44.53 L 33.55 44.37 L 33.62 44.21 L 33.71 44.06 L 33.79 43.92 L 33.87 43.76 L 33.94 43.60 L 34.02 43.46 L 34.11 43.31 L 34.18 43.16 L 34.25 43.00 L 34.34 42.85 L 34.43 42.71 L 34.50 42.55 L 34.57 42.39 L 34.63 42.22 L 34.60 42.02 L 34.57 41.81 L 34.51 41.64 L 34.49 41.44 L 34.46 41.24 L 34.43 41.03 L 34.37 40.86 L 34.34 40.66 L 34.31 40.46 L 34.28 40.26 L 34.25 40.05 L 34.23 39.85 L 34.20 39.65 L 34.17 39.45 L 34.14 39.25 L 34.14 39.01 L 34.11 38.81 L 34.11 38.58 L 34.08 38.38 L 34.08 38.15 L 34.08 37.92 L 34.08 37.69 L 34.08 37.46 L 34.08 37.23 L 34.11 37.02 L 34.11 36.79 L 34.14 36.59 L 34.14 36.36 L 34.14 36.13 L 34.14 35.90 L 34.14 35.67 L 34.10 35.48 L 34.05 35.29 L 33.98 35.13 L 33.88 35.00 L 33.79 34.86 L 33.66 34.76 L 33.53 34.66 L 33.39 34.57 L 33.23 34.50 L 33.06 34.44 L 32.88 34.38 L 32.71 34.33 L 32.54 34.27 L 32.36 34.21 L 32.19 34.15 L 32.02 34.10 L 31.85 34.04 L 31.67 33.98 L 31.50 33.92 L 31.33 33.87 L 31.15 33.81 L 30.98 33.75 L 30.81 33.69 L 30.63 33.63 L 30.48 33.56 L 30.32 33.49 L 30.14 33.43 L 29.98 33.36 L 29.83 33.29 L 29.65 33.23 L 29.51 33.14 L 29.34 33.09 L 29.18 33.01 L 29.02 32.94 L 28.86 32.87 L 28.70 32.80 L 28.56 32.71 L 28.41 32.62 L 28.28 32.52 L 28.21 32.36 L 28.20 32.15 L 28.21 31.93 L 28.22 31.72 L 28.25 31.51 L 28.27 31.30 L 28.28 31.08 L 28.31 30.88 L 28.31 30.65 L 28.34 30.45 L 28.34 30.22 L 28.37 30.01 L 28.37 29.78 L 28.40 29.58 L 28.43 29.38 L 28.43 29.15 L 28.46 28.95 L 28.48 28.74 L 28.48 28.51 L 28.51 28.31 L 28.54 28.11 L 28.54 27.88 L 28.57 27.68 L 28.57 27.45 L 28.60 27.24 L 28.60 27.01 L 28.63 26.81 L 28.63 26.58 L 28.63 26.35 L 28.66 26.15 L 28.66 25.92 L 28.63 25.71 L 28.54 25.57 L 28.44 25.44 L 28.34 25.31 L 28.27 25.15 L 28.20 24.99 Z"/>
    <path d="M 40.98 32.90 L 40.99 32.88 L 41.02 32.88 L 41.05 32.88 L 41.06 32.87 L 41.08 32.86 L 41.11 32.86 L 41.14 32.86 L 41.15 32.84 L 41.16 32.83 L 41.19 32.83 L 41.22 32.83 L 41.24 32.81 L 41.25 32.80 L 41.28 32.80 L 41.31 32.80 L 41.34 32.80 L 41.35 32.78 L 41.37 32.77 L 41.40 32.77 L 41.41 32.75 L 41.42 32.74 L 41.45 32.74 L 41.48 32.74 L 41.51 32.74 L 41.52 32.73 L 41.54 32.71 L 41.57 32.71 L 41.60 32.71 L 41.61 32.70 L 41.63 32.68 L 41.65 32.68 L 41.67 32.67 L 41.68 32.65 L 41.71 32.65 L 41.74 32.65 L 41.76 32.64 L 41.77 32.62 L 41.80 32.62 L 41.83 32.62 L 41.86 32.62 L 41.87 32.61 L 41.89 32.60 L 41.91 32.60 L 41.94 32.60 L 41.96 32.58 L 41.97 32.57 L 42.00 32.57 L 42.03 32.57 L 42.04 32.55 L 42.06 32.54 L 42.09 32.54 L 42.10 32.52 L 42.12 32.51 L 42.15 32.51 L 42.17 32.51 L 42.19 32.49 L 42.20 32.48 L 42.23 32.48 L 42.26 32.48 L 42.28 32.47 L 42.29 32.45 L 42.32 32.45 L 42.33 32.44 L 42.35 32.42 L 42.38 32.42 L 42.40 32.42 L 42.42 32.41 L 42.43 32.39 L 42.46 32.39 L 42.48 32.38 L 42.49 32.36 L 42.51 32.35 L 42.51 32.32 L 42.51 32.29 L 42.51 32.26 L 42.51 32.23 L 42.51 32.21 L 42.49 32.19 L 42.48 32.18 L 42.48 32.15 L 42.48 32.12 L 42.48 32.09 L 42.46 32.08 L 42.45 32.06 L 42.45 32.03 L 42.45 32.00 L 42.45 31.98 L 42.43 31.96 L 42.42 31.95 L 42.42 31.92 L 42.42 31.89 L 42.40 31.87 L 42.39 31.86 L 42.39 31.83 L 42.39 31.80 L 42.38 31.79 L 42.36 31.77 L 42.36 31.74 L 42.35 31.73 L 42.33 31.72 L 42.33 31.69 L 42.33 31.66 L 42.33 31.63 L 42.32 31.61 L 42.30 31.60 L 42.30 31.57 L 42.29 31.56 L 42.28 31.54 L 42.28 31.51 L 42.28 31.48 L 42.26 31.47 L 42.25 31.46 L 42.25 31.43 L 42.25 31.40 L 42.23 31.38 L 42.22 31.37 L 42.22 31.34 L 42.22 31.31 L 42.20 31.30 L 42.19 31.28 L 42.19 31.25 L 42.17 31.24 L 42.16 31.23 L 42.16 31.20 L 42.16 31.17 L 42.15 31.15 L 42.13 31.14 L 42.13 31.11 L 42.13 31.08 L 42.12 31.07 L 42.10 31.05 L 42.10 31.02 L 42.10 30.99 L 42.09 30.98 L 42.07 30.97 L 42.07 30.94 L 42.06 30.92 L 42.04 30.91 L 42.04 30.88 L 42.04 30.85 L 42.03 30.84 L 42.02 30.82 L 42.02 30.79 L 42.00 30.78 L 41.99 30.76 L 41.99 30.73 L 41.99 30.71 L 41.97 30.69 L 41.96 30.68 L 41.96 30.65 L 41.96 30.62 L 41.94 30.60 L 41.93 30.59 L 41.93 30.56 L 41.91 30.55 L 41.90 30.53 L 41.90 30.50 L 41.89 30.49 L 41.87 30.48 L 41.87 30.45 L 41.87 30.42 L 41.86 30.40 L 41.84 30.39 L 41.84 30.36 L 41.83 30.35 L 41.81 30.33 L 41.81 30.30 L 41.80 30.29 L 41.78 30.27 L 41.78 30.24 L 41.78 30.22 L 41.77 30.20 L 41.76 30.19 L 41.76 30.16 L 41.74 30.14 L 41.73 30.13 L 41.73 30.10 L 41.73 30.07 L 41.71 30.06 L 41.70 30.04 L 41.68 30.03 L 41.67 30.01 L 41.67 29.98 L 41.67 29.96 L 41.65 29.94 L 41.64 29.93 L 41.64 29.90 L 41.63 29.88 L 41.61 29.87 L 41.61 29.84 L 41.60 29.83 L 41.58 29.81 L 41.58 29.78 L 41.57 29.77 L 41.55 29.75 L 41.55 29.72 L 41.54 29.71 L 41.52 29.70 L 41.52 29.67 L 41.52 29.64 L 41.51 29.62 L 41.50 29.61 L 41.50 29.58 L 41.48 29.57 L 41.47 29.55 L 41.47 29.52 L 41.45 29.51 L 41.44 29.49 L 41.44 29.47 L 41.42 29.45 L 41.41 29.44 L 41.41 29.41 L 41.40 29.39 L 41.38 29.38 L 41.38 29.35 L 41.37 29.34 L 41.35 29.32 L 41.34 29.31 L 41.32 29.29 L 41.32 29.26 L 41.31 29.25 L 41.29 29.23 L 41.29 29.21 L 41.28 29.19 L 41.27 29.18 L 41.27 29.15 L 41.25 29.13 L 41.24 29.12 L 41.24 29.09 L 41.22 29.08 L 41.21 29.06 L 41.21 29.03 L 41.19 29.02 L 41.18 29.00 L 41.18 28.97 L 41.16 28.96 L 41.15 28.95 L 41.15 28.92 L 41.14 28.90 L 41.12 28.89 L 41.11 28.87 L 41.09 28.86 L 41.09 28.83 L 41.08 28.82 L 41.06 28.80 L 41.06 28.77 L 41.05 28.76 L 41.03 28.74 L 41.03 28.72 L 41.02 28.70 L 41.01 28.69 L 41.01 28.66 L 40.99 28.64 L 40.98 28.63 L 40.96 28.61 L 40.95 28.60 L 40.95 28.57 L 40.93 28.56 L 40.92 28.54 L 40.92 28.51 L 40.90 28.50 L 40.89 28.48 L 40.89 28.46 L 40.88 28.44 L 40.86 28.43 L 40.85 28.41 L 40.83 28.40 L 40.83 28.37 L 40.82 28.35 L 40.80 28.34 L 40.80 28.31 L 40.79 28.30 L 40.77 28.28 L 40.77 28.25 L 40.76 28.24 L 40.75 28.22 L 40.73 28.21 L 40.72 28.20 L 40.72 28.17 L 40.70 28.15 L 40.69 28.14 L 40.67 28.12 L 40.65 28.12 L 40.63 28.14 L 40.63 28.17 L 40.65 28.18 L 40.66 28.20 L 40.66 28.22 L 40.66 28.25 L 40.66 28.28 L 40.66 28.31 L 40.66 28.34 L 40.66 28.37 L 40.66 28.40 L 40.66 28.43 L 40.66 28.46 L 40.66 28.48 L 40.66 28.51 L 40.66 28.54 L 40.66 28.57 L 40.66 28.60 L 40.67 28.61 L 40.69 28.63 L 40.69 28.66 L 40.69 28.69 L 40.69 28.72 L 40.69 28.74 L 40.69 28.77 L 40.69 28.80 L 40.69 28.83 L 40.69 28.86 L 40.69 28.89 L 40.69 28.92 L 40.69 28.95 L 40.69 28.97 L 40.69 29.00 L 40.69 29.03 L 40.69 29.06 L 40.69 29.09 L 40.69 29.12 L 40.69 29.15 L 40.70 29.16 L 40.72 29.18 L 40.72 29.21 L 40.72 29.23 L 40.72 29.26 L 40.72 29.29 L 40.72 29.32 L 40.72 29.35 L 40.72 29.38 L 40.72 29.41 L 40.72 29.44 L 40.72 29.47 L 40.72 29.49 L 40.72 29.52 L 40.72 29.55 L 40.72 29.58 L 40.72 29.61 L 40.72 29.64 L 40.72 29.67 L 40.72 29.70 L 40.73 29.71 L 40.75 29.72 L 40.75 29.75 L 40.75 29.78 L 40.75 29.81 L 40.75 29.84 L 40.75 29.87 L 40.75 29.90 L 40.75 29.93 L 40.75 29.96 L 40.75 29.98 L 40.75 30.01 L 40.75 30.04 L 40.75 30.07 L 40.75 30.10 L 40.75 30.13 L 40.75 30.16 L 40.75 30.19 L 40.75 30.22 L 40.75 30.24 L 40.75 30.27 L 40.76 30.29 L 40.77 30.30 L 40.77 30.33 L 40.77 30.36 L 40.77 30.39 L 40.77 30.42 L 40.77 30.45 L 40.77 30.48 L 40.77 30.50 L 40.77 30.53 L 40.77 30.56 L 40.77 30.59 L 40.77 30.62 L 40.77 30.65 L 40.77 30.68 L 40.77 30.71 L 40.77 30.73 L 40.77 30.76 L 40.77 30.79 L 40.77 30.82 L 40.79 30.84 L 40.80 30.85 L 40.80 30.88 L 40.80 30.91 L 40.80 30.94 L 40.80 30.97 L 40.80 30.99 L 40.80 31.02 L 40.80 31.05 L 40.80 31.08 L 40.80 31.11 L 40.80 31.14 L 40.80 31.17 L 40.80 31.20 L 40.80 31.23 L 40.80 31.25 L 40.80 31.28 L 40.80 31.31 L 40.80 31.34 L 40.80 31.37 L 40.80 31.40 L 40.80 31.43 L 40.80 31.46 L 40.80 31.48 L 40.82 31.50 L 40.83 31.51 L 40.83 31.54 L 40.83 31.57 L 40.83 31.60 L 40.83 31.63 L 40.83 31.66 L 40.83 31.69 L 40.83 31.72 L 40.83 31.74 L 40.83 31.77 L 40.83 31.80 L 40.83 31.83 L 40.83 31.86 L 40.83 31.89 L 40.83 31.92 L 40.83 31.95 L 40.83 31.98 L 40.83 32.00 L 40.83 32.03 L 40.83 32.06 L 40.83 32.09 L 40.83 32.12 L 40.85 32.13 L 40.86 32.15 L 40.86 32.18 L 40.86 32.21 L 40.86 32.23 L 40.86 32.26 L 40.86 32.29 L 40.86 32.32 L 40.86 32.35 L 40.86 32.38 L 40.86 32.41 L 40.86 32.44 L 40.86 32.47 L 40.86 32.49 L 40.86 32.52 L 40.86 32.55 L 40.86 32.58 L 40.86 32.61 L 40.86 32.64 L 40.86 32.67 L 40.86 32.70 L 40.86 32.73 L 40.86 32.75 L 40.86 32.78 L 40.86 32.81 L 40.86 32.84 L 40.86 32.87 L 40.88 32.88 L 40.89 32.90 L 40.90 32.91 L 40.93 32.91 L 40.96 32.91 L 40.98 32.90 Z"/>
    <path d="M 43.79 32.77 L 43.75 32.99 L 43.63 33.13 L 43.47 33.23 L 43.30 33.32 L 43.13 33.40 L 42.92 33.46 L 42.75 33.55 L 42.55 33.61 L 42.38 33.69 L 42.17 33.75 L 41.97 33.81 L 41.78 33.88 L 41.60 33.95 L 41.40 34.01 L 41.19 34.07 L 40.99 34.12 L 40.95 34.34 L 40.95 34.60 L 40.98 34.83 L 40.98 35.09 L 40.98 35.35 L 41.01 35.58 L 41.01 35.84 L 41.01 36.10 L 41.03 36.33 L 41.03 36.59 L 41.06 36.82 L 41.06 37.08 L 41.06 37.34 L 41.09 37.57 L 41.09 37.83 L 41.09 38.09 L 41.12 38.32 L 41.12 38.58 L 41.12 38.84 L 41.15 39.07 L 41.15 39.33 L 41.15 39.59 L 41.18 39.82 L 41.18 40.08 L 41.18 40.34 L 41.21 40.57 L 41.21 40.83 L 41.21 41.09 L 41.22 41.34 L 41.24 41.58 L 41.24 41.84 L 41.24 42.10 L 41.27 42.33 L 41.27 42.59 L 41.27 42.85 L 41.29 43.08 L 41.29 43.34 L 41.29 43.60 L 41.29 43.86 L 41.32 44.09 L 41.32 44.35 L 41.32 44.61 L 41.35 44.84 L 41.35 45.10 L 41.35 45.36 L 41.35 45.62 L 41.35 45.88 L 41.38 46.11 L 41.38 46.37 L 41.38 46.63 L 41.38 46.89 L 41.38 47.15 L 41.38 47.41 L 41.38 47.67 L 41.38 47.93 L 41.38 48.19 L 41.38 48.45 L 41.38 48.71 L 41.38 48.97 L 41.38 49.23 L 41.38 49.49 L 41.38 49.75 L 41.38 50.01 L 41.38 50.27 L 41.38 50.53 L 41.38 50.79 L 41.38 51.05 L 41.38 51.31 L 41.38 51.57 L 41.38 51.82 L 41.38 52.08 L 41.38 52.34 L 41.38 52.60 L 41.38 52.86 L 41.38 53.12 L 41.38 53.38 L 41.38 53.64 L 41.38 53.90 L 41.38 54.16 L 41.38 54.42 L 41.38 54.68 L 41.38 54.94 L 41.38 55.20 L 41.38 55.46 L 41.38 55.72 L 41.38 55.98 L 41.41 56.21 L 41.41 56.47 L 41.41 56.73 L 41.41 56.99 L 41.41 57.25 L 41.41 57.51 L 41.41 57.77 L 41.44 58.00 L 41.44 58.26 L 41.44 58.52 L 41.44 58.78 L 41.44 59.04 L 41.47 59.27 L 41.47 59.53 L 41.47 59.79 L 41.47 60.05 L 41.50 60.28 L 41.50 60.54 L 41.50 60.80 L 41.50 61.06 L 41.50 61.32 L 41.50 61.58 L 41.52 61.81 L 41.52 62.07 L 41.52 62.33 L 41.52 62.59 L 41.50 62.82 L 41.42 63.00 L 41.27 63.11 L 41.05 63.09 L 40.92 62.96 L 40.86 62.76 L 40.83 62.53 L 40.82 62.28 L 40.80 62.04 L 40.80 61.78 L 40.77 61.55 L 40.77 61.29 L 40.75 61.06 L 40.75 60.80 L 40.75 60.54 L 40.72 60.31 L 40.72 60.05 L 40.72 59.79 L 40.69 59.56 L 40.69 59.30 L 40.69 59.04 L 40.66 58.81 L 40.66 58.55 L 40.63 58.32 L 40.63 58.06 L 40.63 57.80 L 40.63 57.54 L 40.60 57.31 L 40.60 57.05 L 40.60 56.79 L 40.60 56.53 L 40.60 56.27 L 40.57 56.04 L 40.57 55.78 L 40.57 55.52 L 40.57 55.26 L 40.57 55.00 L 40.57 54.74 L 40.57 54.48 L 40.57 54.22 L 40.57 53.96 L 40.57 53.70 L 40.57 53.44 L 40.57 53.18 L 40.57 52.92 L 40.57 52.66 L 40.57 52.40 L 40.57 52.14 L 40.57 51.88 L 40.57 51.62 L 40.57 51.36 L 40.57 51.10 L 40.57 50.84 L 40.57 50.58 L 40.57 50.32 L 40.57 50.06 L 40.57 49.81 L 40.57 49.55 L 40.57 49.29 L 40.57 49.03 L 40.57 48.77 L 40.57 48.51 L 40.57 48.25 L 40.57 47.99 L 40.57 47.73 L 40.57 47.47 L 40.57 47.21 L 40.57 46.95 L 40.57 46.69 L 40.57 46.43 L 40.57 46.17 L 40.54 45.94 L 40.54 45.68 L 40.54 45.42 L 40.54 45.16 L 40.54 44.90 L 40.54 44.64 L 40.52 44.41 L 40.52 44.15 L 40.52 43.89 L 40.52 43.63 L 40.52 43.37 L 40.49 43.14 L 40.49 42.88 L 40.49 42.62 L 40.49 42.36 L 40.49 42.10 L 40.46 41.87 L 40.46 41.61 L 40.46 41.35 L 40.46 41.09 L 40.43 40.86 L 40.43 40.60 L 40.43 40.34 L 40.40 40.11 L 40.40 39.85 L 40.40 39.59 L 40.37 39.36 L 40.37 39.10 L 40.37 38.84 L 40.36 38.60 L 40.34 38.35 L 40.34 38.09 L 40.34 37.83 L 40.31 37.60 L 40.31 37.34 L 40.31 37.08 L 40.28 36.85 L 40.28 36.59 L 40.28 36.33 L 40.26 36.10 L 40.26 35.84 L 40.26 35.58 L 40.24 35.34 L 40.23 35.09 L 40.23 34.83 L 40.21 34.59 L 40.20 34.34 L 39.98 34.36 L 39.78 34.41 L 39.55 34.44 L 39.35 34.50 L 39.12 34.53 L 38.91 34.59 L 38.68 34.62 L 38.48 34.67 L 38.25 34.70 L 38.05 34.76 L 37.82 34.79 L 37.62 34.85 L 37.41 34.90 L 37.24 34.99 L 37.07 35.08 L 36.92 35.19 L 36.79 35.32 L 36.68 35.47 L 36.58 35.62 L 36.50 35.81 L 36.45 36.01 L 36.42 36.25 L 36.39 36.48 L 36.39 36.74 L 36.39 37.00 L 36.39 37.26 L 36.39 37.51 L 36.40 37.76 L 36.42 38.01 L 36.42 38.26 L 36.39 38.50 L 36.39 38.76 L 36.39 39.01 L 36.36 39.25 L 36.36 39.51 L 36.33 39.74 L 36.33 40.00 L 36.30 40.23 L 36.30 40.49 L 36.27 40.72 L 36.27 40.98 L 36.27 41.24 L 36.27 41.50 L 36.38 41.65 L 36.52 41.77 L 36.69 41.86 L 36.85 41.96 L 37.01 42.06 L 37.17 42.16 L 37.31 42.28 L 37.46 42.39 L 37.59 42.52 L 37.72 42.65 L 37.83 42.79 L 37.95 42.94 L 38.03 43.11 L 38.12 43.28 L 38.21 43.46 L 38.26 43.66 L 38.32 43.86 L 38.35 44.09 L 38.38 44.32 L 38.38 44.58 L 38.35 44.81 L 38.32 45.04 L 38.26 45.25 L 38.21 45.45 L 38.12 45.62 L 38.05 45.81 L 37.98 46.00 L 37.89 46.17 L 37.80 46.34 L 37.72 46.52 L 37.63 46.69 L 37.56 46.88 L 37.49 47.06 L 37.43 47.27 L 37.40 47.50 L 37.34 47.70 L 37.31 47.93 L 37.28 48.16 L 37.26 48.39 L 37.26 48.65 L 37.23 48.88 L 37.20 49.11 L 37.17 49.34 L 37.15 49.59 L 37.14 49.83 L 37.11 50.06 L 37.08 50.30 L 37.05 50.53 L 37.02 50.76 L 37.01 51.00 L 37.00 51.25 L 36.97 51.48 L 36.94 51.71 L 36.91 51.94 L 36.88 52.17 L 36.85 52.40 L 36.82 52.63 L 36.79 52.86 L 36.79 53.12 L 36.76 53.35 L 36.74 53.58 L 36.74 53.84 L 36.71 54.08 L 36.71 54.33 L 36.71 54.59 L 36.74 54.83 L 36.75 55.07 L 36.78 55.30 L 36.82 55.52 L 36.85 55.75 L 36.89 55.96 L 36.94 56.18 L 36.98 56.40 L 37.02 56.61 L 37.08 56.82 L 37.14 57.02 L 37.18 57.23 L 37.24 57.44 L 37.28 57.65 L 37.34 57.85 L 37.40 58.06 L 37.46 58.26 L 37.51 58.46 L 37.57 58.66 L 37.63 58.86 L 37.69 59.07 L 37.75 59.27 L 37.80 59.47 L 37.86 59.67 L 37.92 59.87 L 37.98 60.08 L 38.03 60.28 L 38.09 60.48 L 38.12 60.71 L 38.18 60.91 L 38.24 61.11 L 38.26 61.35 L 38.31 61.56 L 38.34 61.79 L 38.35 62.04 L 38.32 62.27 L 38.29 62.50 L 38.26 62.73 L 38.21 62.93 L 38.13 63.12 L 38.05 63.29 L 37.95 63.45 L 37.82 63.58 L 37.67 63.70 L 37.53 63.81 L 37.34 63.88 L 37.14 63.94 Z"/>
  </g>
</svg>
