<svg width="256" height="256" version="1.1" xmlns="http://www.w3.org/2000/svg" desc="Created with imagetracer.js version 1.2.6" ><path fill="rgb(40,40,40)" stroke="rgb(40,40,40)" stroke-width="1" opacity="0.5019607843137255" d="M 218.5 20 L 219.5 22 L 218.5 20 Z " /><path fill="rgb(40,40,40)" stroke="rgb(40,40,40)" stroke-width="1" opacity="0.5019607843137255" d="M 122.5 34 L 121.5 36 L 122.5 34 Z " /><path fill="rgb(40,40,40)" stroke="rgb(40,40,40)" stroke-width="1" opacity="0.5019607843137255" d="M 121.5 56 L 122.5 58 L 121.5 56 Z " /><path fill="rgb(40,40,40)" stroke="rgb(40,40,40)" stroke-width="1" opacity="0.5019607843137255" d="M 73.5 89 L 78.5 95 L 73.5 89 Z " /><path fill="rgb(40,40,40)" stroke="rgb(40,40,40)" stroke-width="1" opacity="0.5019607843137255" d="M 161.5 132 L 160.5 134 L 161.5 132 Z " /><path fill="rgb(40,40,40)" stroke="rgb(40,40,40)" stroke-width="1" opacity="0.5019607843137255" d="M 170.5 134 L 169.5 136 L 170.5 134 Z " /><path fill="rgb(40,40,40)" stroke="rgb(40,40,40)" stroke-width="1" opacity="0.5019607843137255" d="M 152.5 142 L 150.5 145 L 152.5 142 Z " /><path fill="rgb(40,40,40)" stroke="rgb(40,40,40)" stroke-width="1" opacity="0.5019607843137255" d="M 214.5 146 L 215.5 148 L 214.5 146 Z " /><path fill="rgb(40,40,40)" stroke="rgb(40,40,40)" stroke-width="1" opacity="0.5019607843137255" d="M 125.5 151 L 126.5 153 L 125.5 151 Z " /><path fill="rgb(40,40,40)" stroke="rgb(40,40,40)" stroke-width="1" opacity="0.5019607843137255" d="M 154.5 152 L 144.5 163 L 154.5 152 Z " /><path fill="rgb(40,40,40)" stroke="rgb(40,40,40)" stroke-width="1" opacity="0.5019607843137255" d="M 135.5 159 L 134.5 161 L 135.5 159 Z " /><path fill="rgb(40,40,40)" stroke="rgb(40,40,40)" stroke-width="1" opacity="0.5019607843137255" d="M 8.5 228 L 11.5 232 L 8.5 228 Z " /><path fill="rgb(40,40,40)" stroke="rgb(40,40,40)" stroke-width="1" opacity="0.5019607843137255" d="M 147.5 249 L 150 249.5 L 147.5 250 L 147.5 249 Z " /><path fill="rgb(0,0,0)" stroke="rgb(0,0,0)" stroke-width="1" opacity="0" d="M 0 0 L 256 0 L 256 256 L 0 256 L 0 0 Z M 220 7 L 212 16 Q 190 50 165 81 L 135 67 L 113 49 L 114 40 L 122 36 L 125 31 Q 126 24 123 22 L 118 17 Q 111 16 108 18 L 103 24 L 103 29 L 108 38 L 107 47 L 104 52 L 96 59 L 66 78 L 61 83 L 61 88 L 65 94 L 75 102 L 75 103 L 13 86 L 11 90 L 81 109 L 94 118 L 86 121 L 81 128 Q 80 135 83 138 L 80 149 L 64 179 L 57 186 L 13 220 L 8 225 L 8 229 L 19 237 Q 23 238 24 235 L 24 233 L 18 226 L 67 192 L 100 153 L 104 157 L 61 210 Q 60 212 57 211 L 53 215 Q 53 219 57 220 Q 95 204 125 180 L 128 192 L 136 235 L 140 247 L 146 250 L 160 249 L 162 246 L 160 243 L 148 242 L 146 234 L 146 227 L 145 226 L 141 195 L 136 171 L 145 163 L 171 135 L 204 143 L 215 148 L 214 152 L 220 153 L 230 153 L 231 154 L 241 154 L 242 155 L 247 154 Q 249 155 248 151 L 219 137 L 218 141 L 188 134 L 174 130 Q 184 119 192 106 Q 193 103 198 104 L 201 101 L 199 97 L 216 66 L 223 47 L 227 28 L 227 19 Q 224 16 225 10 Q 224 6 220 7 Z " /><path fill="rgb(0,0,0)" stroke="rgb(0,0,0)" stroke-width="1" opacity="0" d="M 219.5 19 L 220 20.5 L 216 41.5 L 209 60.5 Q 200.8 79.3 189.5 95 Q 177.9 91.6 170 84.5 L 203 42.5 L 219.5 19 Z " /><path fill="rgb(0,0,0)" stroke="rgb(0,0,0)" stroke-width="1" opacity="0" d="M 117.5 64 L 134.5 77 L 159 88.5 L 135 119 L 109 113 L 114 91.5 L 115 78.5 L 116 77.5 L 116 67.5 L 117.5 64 Z " /><path fill="rgb(0,0,0)" stroke="rgb(0,0,0)" stroke-width="1" opacity="0" d="M 99.5 65 L 100 77.5 L 99 78.5 L 99 92.5 L 98 93.5 Q 99.1 103.1 96.5 109 Q 81.3 99.2 70 85.5 L 99.5 65 Z " /><path fill="rgb(0,0,0)" stroke="rgb(0,0,0)" stroke-width="1" opacity="0" d="M 163.5 92 L 185 102.5 L 165.5 127 L 157.5 126 L 140 120.5 L 163.5 92 Z " /><path fill="rgb(0,0,0)" stroke="rgb(0,0,0)" stroke-width="1" opacity="0" d="M 107 117 L 131 123.5 L 116.5 141 L 105 126.5 L 107 117 Z " /><path fill="rgb(0,0,0)" stroke="rgb(0,0,0)" stroke-width="1" opacity="0" d="M 136.5 125 L 159.5 131 L 161 132.5 L 136.5 159 L 133.5 161 L 120 144.5 L 136.5 125 Z " /><path fill="rgb(0,0,0)" stroke="rgb(0,0,0)" stroke-width="1" opacity="0" d="M 107.5 160 L 122 170.5 L 119.5 174 Q 98.3 190.3 73.5 203 L 75 200.5 L 107.5 160 Z " /><path fill="rgb(253,253,253)" stroke="rgb(253,253,253)" stroke-width="1" opacity="1" d="M 218.5 8 Q 223 7 224 9.5 L 226 16.5 L 226 29.5 L 224 40.5 L 217 61.5 Q 209 80.5 198 96.5 Q 201 97.8 200 102 L 193.5 103 L 192 104.5 L 175 127.5 L 174 131 L 218 142 L 219 138 Q 234.8 142.9 248 151.5 L 246.5 154 L 216.5 152 L 215 150.5 L 216 146 L 170.5 134 L 141.5 165 L 135 170.5 L 141 198.5 L 147 242 Q 149.7 243.9 156.5 243 L 161 245.5 L 159.5 248 L 144.5 249 L 140 245.5 L 136 231.5 L 126 179 Q 95.5 202.7 56.5 219 Q 53.5 218.5 54 214.5 Q 56.1 210.9 61 211 L 104 156.5 Q 103.5 152.5 98.5 153 Q 83.4 173.9 65.5 192 L 17 225.5 L 23 232.5 L 23 234.5 L 19.5 237 L 9 228.5 L 8 225.5 L 64 179.5 L 82 145.5 L 84 137.5 Q 80.4 134.6 82 126.5 L 86.5 121 L 95 117.5 L 79.5 108 L 12 90 Q 10.3 85.9 14.5 87 L 69.5 103 L 76.5 104 L 76.5 103 L 64 91.5 L 61 84.5 L 66.5 78 L 96.5 59 L 104 52.5 Q 109.7 47.2 108 34.5 Q 102.4 32.1 104 22.5 Q 106.4 16.9 114.5 17 Q 120.3 18.3 123 22.5 L 124 31.5 L 120.5 36 L 113 39.5 L 112 48.5 Q 122.7 60.3 136.5 69 L 165 82 L 218.5 8 Z M 220 18 L 203 42 L 169 85 L 185 94 L 191 95 L 211 58 L 217 41 L 220 26 L 220 18 Z M 116 63 L 113 94 L 108 113 L 135 120 L 159 90 L 159 87 L 133 75 L 116 63 Z M 100 64 L 69 86 L 91 106 L 98 109 L 99 89 L 100 88 L 100 73 L 101 72 L 101 65 L 100 64 Z M 164 91 L 139 121 L 144 123 L 166 128 L 186 102 L 181 100 L 164 91 Z M 108 116 L 105 125 L 105 129 L 114 140 L 117 141 L 131 124 L 130 122 L 108 116 Z M 137 124 L 120 145 L 121 148 L 134 162 L 141 156 L 159 137 L 162 131 L 137 124 Z M 107 159 L 71 204 L 72 205 Q 99 191 122 173 L 123 171 L 107 159 Z " /><path fill="rgb(130,129,129)" stroke="rgb(130,129,129)" stroke-width="1" opacity="1" d="M 219.5 7 Q 223.3 6.3 224 8.5 L 222.5 8 Q 218.5 8.7 219.5 7 Z " /><path fill="rgb(130,129,129)" stroke="rgb(130,129,129)" stroke-width="1" opacity="1" d="M 216.5 10 L 215.5 12 L 216.5 10 Z " /><path fill="rgb(130,129,129)" stroke="rgb(130,129,129)" stroke-width="1" opacity="1" d="M 224.5 10 L 225 12.5 L 224 12.5 L 224.5 10 Z " /><path fill="rgb(130,129,129)" stroke="rgb(130,129,129)" stroke-width="1" opacity="1" d="M 214.5 13 L 213.5 15 L 214.5 13 Z " /><path fill="rgb(130,129,129)" stroke="rgb(130,129,129)" stroke-width="1" opacity="1" d="M 211.5 17 L 210.5 19 L 211.5 17 Z " /><path fill="rgb(130,129,129)" stroke="rgb(130,129,129)" stroke-width="1" opacity="1" d="M 107.5 18 L 104.5 22 L 107.5 18 Z " /><path fill="rgb(130,129,129)" stroke="rgb(130,129,129)" stroke-width="1" opacity="1" d="M 120.5 19 L 121.5 21 L 120.5 19 Z " /><path fill="rgb(130,129,129)" stroke="rgb(130,129,129)" stroke-width="1" opacity="1" d="M 226.5 19 L 227 25.5 L 226 25.5 L 226.5 19 Z " /><path fill="rgb(130,129,129)" stroke="rgb(130,129,129)" stroke-width="1" opacity="1" d="M 209.5 20 L 208.5 22 L 209.5 20 Z " /><path fill="rgb(130,129,129)" stroke="rgb(130,129,129)" stroke-width="1" opacity="1" d="M 219.5 22 L 220 25.5 L 219 25.5 L 219.5 22 Z " /><path fill="rgb(130,129,129)" stroke="rgb(130,129,129)" stroke-width="1" opacity="1" d="M 207.5 23 L 206.5 25 L 207.5 23 Z " /><path fill="rgb(130,129,129)" stroke="rgb(130,129,129)" stroke-width="1" opacity="1" d="M 103.5 24 L 104 27.5 L 103 27.5 L 103.5 24 Z " /><path fill="rgb(130,129,129)" stroke="rgb(130,129,129)" stroke-width="1" opacity="1" d="M 215.5 24 L 214.5 26 L 215.5 24 Z " /><path fill="rgb(130,129,129)" stroke="rgb(130,129,129)" stroke-width="1" opacity="1" d="M 124.5 26 L 125 30.5 L 124 30.5 L 124.5 26 Z " /><path fill="rgb(130,129,129)" stroke="rgb(130,129,129)" stroke-width="1" opacity="1" d="M 213.5 27 L 212.5 29 L 213.5 27 Z " /><path fill="rgb(130,129,129)" stroke="rgb(130,129,129)" stroke-width="1" opacity="1" d="M 202.5 30 L 201.5 32 L 202.5 30 Z " /><path fill="rgb(130,129,129)" stroke="rgb(130,129,129)" stroke-width="1" opacity="1" d="M 225.5 30 L 226 33.5 L 225 33.5 L 225.5 30 Z " /><path fill="rgb(130,129,129)" stroke="rgb(130,129,129)" stroke-width="1" opacity="1" d="M 210.5 31 L 209.5 33 L 210.5 31 Z " /><path fill="rgb(130,129,129)" stroke="rgb(130,129,129)" stroke-width="1" opacity="1" d="M 106.5 33 L 108 35.5 L 107 35.5 L 106.5 33 Z " /><path fill="rgb(130,129,129)" stroke="rgb(130,129,129)" stroke-width="1" opacity="1" d="M 200.5 33 L 199.5 35 L 200.5 33 Z " /><path fill="rgb(130,129,129)" stroke="rgb(130,129,129)" stroke-width="1" opacity="1" d="M 207.5 35 L 206.5 37 L 207.5 35 Z " /><path fill="rgb(130,129,129)" stroke="rgb(130,129,129)" stroke-width="1" opacity="1" d="M 224.5 36 L 225 38.5 L 224 38.5 L 224.5 36 Z " /><path fill="rgb(130,129,129)" stroke="rgb(130,129,129)" stroke-width="1" opacity="1" d="M 197.5 37 L 196.5 39 L 197.5 37 Z " /><path fill="rgb(130,129,129)" stroke="rgb(130,129,129)" stroke-width="1" opacity="1" d="M 114.5 38 L 114 39.5 L 113.5 41 L 113 39.5 L 114.5 38 Z " /><path fill="rgb(130,129,129)" stroke="rgb(130,129,129)" stroke-width="1" opacity="1" d="M 204.5 39 L 203.5 41 L 204.5 39 Z " /><path fill="rgb(130,129,129)" stroke="rgb(130,129,129)" stroke-width="1" opacity="1" d="M 195.5 40 L 194.5 42 L 195.5 40 Z " /><path fill="rgb(130,129,129)" stroke="rgb(130,129,129)" stroke-width="1" opacity="1" d="M 201.5 43 L 199.5 46 L 201.5 43 Z " /><path fill="rgb(130,129,129)" stroke="rgb(130,129,129)" stroke-width="1" opacity="1" d="M 112.5 44 Q 112.2 51.7 118 53.5 L 112 48.5 L 112.5 44 Z " /><path fill="rgb(130,129,129)" stroke="rgb(130,129,129)" stroke-width="1" opacity="1" d="M 192.5 44 L 191.5 46 L 192.5 44 Z " /><path fill="rgb(130,129,129)" stroke="rgb(130,129,129)" stroke-width="1" opacity="1" d="M 190.5 47 L 189.5 49 L 190.5 47 Z " /><path fill="rgb(130,129,129)" stroke="rgb(130,129,129)" stroke-width="1" opacity="1" d="M 197.5 48 L 195.5 51 L 197.5 48 Z " /><path fill="rgb(130,129,129)" stroke="rgb(130,129,129)" stroke-width="1" opacity="1" d="M 187.5 51 L 186.5 53 L 187.5 51 Z " /><path fill="rgb(130,129,129)" stroke="rgb(130,129,129)" stroke-width="1" opacity="1" d="M 103.5 52 L 101.5 55 L 103.5 52 Z " /><path fill="rgb(130,129,129)" stroke="rgb(130,129,129)" stroke-width="1" opacity="1" d="M 193.5 53 L 192.5 55 L 193.5 53 Z " /><path fill="rgb(130,129,129)" stroke="rgb(130,129,129)" stroke-width="1" opacity="1" d="M 184.5 55 L 183.5 57 L 184.5 55 Z " /><path fill="rgb(130,129,129)" stroke="rgb(130,129,129)" stroke-width="1" opacity="1" d="M 98.5 56 L 96.5 59 L 98.5 56 Z " /><path fill="rgb(130,129,129)" stroke="rgb(130,129,129)" stroke-width="1" opacity="1" d="M 123.5 58 L 126.5 62 L 123.5 58 Z " /><path fill="rgb(130,129,129)" stroke="rgb(130,129,129)" stroke-width="1" opacity="1" d="M 189.5 58 L 187.5 61 L 189.5 58 Z " /><path fill="rgb(130,129,129)" stroke="rgb(130,129,129)" stroke-width="1" opacity="1" d="M 94.5 59 L 93.5 61 L 94.5 59 Z " /><path fill="rgb(130,129,129)" stroke="rgb(130,129,129)" stroke-width="1" opacity="1" d="M 181.5 59 L 180.5 61 L 181.5 59 Z " /><path fill="rgb(130,129,129)" stroke="rgb(130,129,129)" stroke-width="1" opacity="1" d="M 91.5 61 L 90.5 63 L 91.5 61 Z " /><path fill="rgb(130,129,129)" stroke="rgb(130,129,129)" stroke-width="1" opacity="1" d="M 116 63 L 121 66.5 L 117.5 64 L 116 64.5 L 116 63 Z " /><path fill="rgb(130,129,129)" stroke="rgb(130,129,129)" stroke-width="1" opacity="1" d="M 129.5 63 L 130.5 65 L 129.5 63 Z " /><path fill="rgb(130,129,129)" stroke="rgb(130,129,129)" stroke-width="1" opacity="1" d="M 178.5 63 L 176.5 66 L 178.5 63 Z " /><path fill="rgb(130,129,129)" stroke="rgb(130,129,129)" stroke-width="1" opacity="1" d="M 185.5 63 L 183.5 66 L 185.5 63 Z " /><path fill="rgb(130,129,129)" stroke="rgb(130,129,129)" stroke-width="1" opacity="1" d="M 99.5 64 Q 102.5 65.5 101 71.5 L 100 71.5 L 99.5 65 L 98 65.5 L 99.5 64 Z " /><path fill="rgb(130,129,129)" stroke="rgb(130,129,129)" stroke-width="1" opacity="1" d="M 85.5 65 L 84.5 67 L 85.5 65 Z " /><path fill="rgb(130,129,129)" stroke="rgb(130,129,129)" stroke-width="1" opacity="1" d="M 132.5 65 L 133.5 67 L 132.5 65 Z " /><path fill="rgb(130,129,129)" stroke="rgb(130,129,129)" stroke-width="1" opacity="1" d="M 82.5 67 L 81.5 69 L 82.5 67 Z " /><path fill="rgb(130,129,129)" stroke="rgb(130,129,129)" stroke-width="1" opacity="1" d="M 95.5 67 L 94.5 69 L 95.5 67 Z " /><path fill="rgb(130,129,129)" stroke="rgb(130,129,129)" stroke-width="1" opacity="1" d="M 135.5 67 L 136.5 69 L 135.5 67 Z " /><path fill="rgb(130,129,129)" stroke="rgb(130,129,129)" stroke-width="1" opacity="1" d="M 175.5 67 L 173.5 70 L 175.5 67 Z " /><path fill="rgb(130,129,129)" stroke="rgb(130,129,129)" stroke-width="1" opacity="1" d="M 123.5 68 L 125.5 71 L 123.5 68 Z " /><path fill="rgb(130,129,129)" stroke="rgb(130,129,129)" stroke-width="1" opacity="1" d="M 181.5 68 L 180.5 70 L 181.5 68 Z " /><path fill="rgb(130,129,129)" stroke="rgb(130,129,129)" stroke-width="1" opacity="1" d="M 79.5 69 L 78.5 71 L 79.5 69 Z " /><path fill="rgb(130,129,129)" stroke="rgb(130,129,129)" stroke-width="1" opacity="1" d="M 91.5 70 L 90.5 72 L 91.5 70 Z " /><path fill="rgb(130,129,129)" stroke="rgb(130,129,129)" stroke-width="1" opacity="1" d="M 76.5 71 L 75.5 73 L 76.5 71 Z " /><path fill="rgb(130,129,129)" stroke="rgb(130,129,129)" stroke-width="1" opacity="1" d="M 115.5 71 L 116 76.5 L 115 76.5 L 115.5 71 Z " /><path fill="rgb(130,129,129)" stroke="rgb(130,129,129)" stroke-width="1" opacity="1" d="M 127.5 71 L 128.5 73 L 127.5 71 Z " /><path fill="rgb(130,129,129)" stroke="rgb(130,129,129)" stroke-width="1" opacity="1" d="M 88.5 72 L 87.5 74 L 88.5 72 Z " /><path fill="rgb(130,129,129)" stroke="rgb(130,129,129)" stroke-width="1" opacity="1" d="M 171.5 72 L 169.5 75 L 171.5 72 Z " /><path fill="rgb(130,129,129)" stroke="rgb(130,129,129)" stroke-width="1" opacity="1" d="M 178.5 72 L 176.5 75 L 178.5 72 Z " /><path fill="rgb(130,129,129)" stroke="rgb(130,129,129)" stroke-width="1" opacity="1" d="M 73.5 73 L 72.5 75 L 73.5 73 Z " /><path fill="rgb(130,129,129)" stroke="rgb(130,129,129)" stroke-width="1" opacity="1" d="M 130.5 73 L 131.5 75 L 130.5 73 Z " /><path fill="rgb(130,129,129)" stroke="rgb(130,129,129)" stroke-width="1" opacity="1" d="M 85.5 74 L 84.5 76 L 85.5 74 Z " /><path fill="rgb(130,129,129)" stroke="rgb(130,129,129)" stroke-width="1" opacity="1" d="M 82.5 76 L 81.5 78 L 82.5 76 Z " /><path fill="rgb(130,129,129)" stroke="rgb(130,129,129)" stroke-width="1" opacity="1" d="M 153.5 76 L 157 77.5 L 155.5 78 L 153.5 76 Z " /><path fill="rgb(130,129,129)" stroke="rgb(130,129,129)" stroke-width="1" opacity="1" d="M 167.5 77 L 166.5 79 L 167.5 77 Z " /><path fill="rgb(130,129,129)" stroke="rgb(130,129,129)" stroke-width="1" opacity="1" d="M 174.5 77 L 172.5 80 L 174.5 77 Z " /><path fill="rgb(130,129,129)" stroke="rgb(130,129,129)" stroke-width="1" opacity="1" d="M 65.5 78 L 62 82.5 L 61.5 84 L 61 82.5 L 65.5 78 Z " /><path fill="rgb(130,129,129)" stroke="rgb(130,129,129)" stroke-width="1" opacity="1" d="M 79.5 78 L 78.5 80 L 79.5 78 Z " /><path fill="rgb(130,129,129)" stroke="rgb(130,129,129)" stroke-width="1" opacity="1" d="M 160.5 79 L 165 81.5 L 163.5 82 L 160.5 79 Z " /><path fill="rgb(130,129,129)" stroke="rgb(130,129,129)" stroke-width="1" opacity="1" d="M 99.5 80 L 100 87.5 L 99 87.5 L 99.5 80 Z " /><path fill="rgb(130,129,129)" stroke="rgb(130,129,129)" stroke-width="1" opacity="1" d="M 74.5 81 L 73.5 83 L 74.5 81 Z " /><path fill="rgb(130,129,129)" stroke="rgb(130,129,129)" stroke-width="1" opacity="1" d="M 114.5 81 L 115 84.5 L 114 84.5 L 114.5 81 Z " /><path fill="rgb(130,129,129)" stroke="rgb(130,129,129)" stroke-width="1" opacity="1" d="M 198.5 81 L 197.5 83 L 198.5 81 Z " /><path fill="rgb(130,129,129)" stroke="rgb(130,129,129)" stroke-width="1" opacity="1" d="M 170.5 82 L 169.5 84 L 170.5 82 Z " /><path fill="rgb(130,129,129)" stroke="rgb(130,129,129)" stroke-width="1" opacity="1" d="M 71.5 83 L 70 85.5 L 72.5 89 Q 66 86 71.5 83 Z " /><path fill="rgb(130,129,129)" stroke="rgb(130,129,129)" stroke-width="1" opacity="1" d="M 151.5 84 L 155 85.5 L 153.5 86 L 151.5 84 Z " /><path fill="rgb(130,129,129)" stroke="rgb(130,129,129)" stroke-width="1" opacity="1" d="M 205.5 84 L 204.5 86 L 205.5 84 Z " /><path fill="rgb(130,129,129)" stroke="rgb(130,129,129)" stroke-width="1" opacity="1" d="M 113.5 88 L 114 90.5 L 113 90.5 L 113.5 88 Z " /><path fill="rgb(130,129,129)" stroke="rgb(130,129,129)" stroke-width="1" opacity="1" d="M 175.5 88 L 176.5 90 L 175.5 88 Z " /><path fill="rgb(130,129,129)" stroke="rgb(130,129,129)" stroke-width="1" opacity="1" d="M 62.5 89 L 63.5 91 L 62.5 89 Z " /><path fill="rgb(130,129,129)" stroke="rgb(130,129,129)" stroke-width="1" opacity="1" d="M 158.5 89 L 156.5 92 L 158.5 89 Z " /><path fill="rgb(130,129,129)" stroke="rgb(130,129,129)" stroke-width="1" opacity="1" d="M 202.5 89 L 201.5 91 L 202.5 89 Z " /><path fill="rgb(130,129,129)" stroke="rgb(130,129,129)" stroke-width="1" opacity="1" d="M 192.5 91 L 191.5 93 L 192.5 91 Z " /><path fill="rgb(130,129,129)" stroke="rgb(130,129,129)" stroke-width="1" opacity="1" d="M 162.5 92 L 160.5 95 L 162.5 92 Z " /><path fill="rgb(130,129,129)" stroke="rgb(130,129,129)" stroke-width="1" opacity="1" d="M 168.5 93 L 169.5 95 L 168.5 93 Z " /><path fill="rgb(130,129,129)" stroke="rgb(130,129,129)" stroke-width="1" opacity="1" d="M 66.5 94 L 72.5 101 L 66.5 94 Z " /><path fill="rgb(130,129,129)" stroke="rgb(130,129,129)" stroke-width="1" opacity="1" d="M 112.5 94 L 113 96.5 L 112 96.5 L 112.5 94 Z " /><path fill="rgb(130,129,129)" stroke="rgb(130,129,129)" stroke-width="1" opacity="1" d="M 154.5 94 L 153.5 96 L 154.5 94 Z " /><path fill="rgb(130,129,129)" stroke="rgb(130,129,129)" stroke-width="1" opacity="1" d="M 199.5 94 L 199 95.5 L 201 100.5 L 200 100.5 L 198 95.5 L 199.5 94 Z " /><path fill="rgb(130,129,129)" stroke="rgb(130,129,129)" stroke-width="1" opacity="1" d="M 79.5 95 L 84.5 101 L 79.5 95 Z " /><path fill="rgb(130,129,129)" stroke="rgb(130,129,129)" stroke-width="1" opacity="1" d="M 98.5 95 L 99 100.5 L 98 100.5 L 98.5 95 Z " /><path fill="rgb(130,129,129)" stroke="rgb(130,129,129)" stroke-width="1" opacity="1" d="M 158.5 97 L 156.5 100 L 158.5 97 Z " /><path fill="rgb(130,129,129)" stroke="rgb(130,129,129)" stroke-width="1" opacity="1" d="M 150.5 99 L 149.5 101 L 150.5 99 Z " /><path fill="rgb(130,129,129)" stroke="rgb(130,129,129)" stroke-width="1" opacity="1" d="M 87.5 102 L 90.5 106 L 87.5 102 Z " /><path fill="rgb(130,129,129)" stroke="rgb(130,129,129)" stroke-width="1" opacity="1" d="M 154.5 102 L 152.5 105 L 154.5 102 Z " /><path fill="rgb(130,129,129)" stroke="rgb(130,129,129)" stroke-width="1" opacity="1" d="M 184.5 103 L 183.5 105 L 184.5 103 Z " /><path fill="rgb(130,129,129)" stroke="rgb(130,129,129)" stroke-width="1" opacity="1" d="M 193.5 103 L 197 103.5 L 192.5 105 L 193.5 103 Z " /><path fill="rgb(130,129,129)" stroke="rgb(130,129,129)" stroke-width="1" opacity="1" d="M 146.5 104 L 145.5 106 L 146.5 104 Z " /><path fill="rgb(130,129,129)" stroke="rgb(130,129,129)" stroke-width="1" opacity="1" d="M 97.5 105 L 98 108.5 L 97 108.5 L 97.5 105 Z " /><path fill="rgb(130,129,129)" stroke="rgb(130,129,129)" stroke-width="1" opacity="1" d="M 92.5 106 L 93.5 108 L 92.5 106 Z " /><path fill="rgb(130,129,129)" stroke="rgb(130,129,129)" stroke-width="1" opacity="1" d="M 182.5 106 L 180.5 109 L 182.5 106 Z " /><path fill="rgb(130,129,129)" stroke="rgb(130,129,129)" stroke-width="1" opacity="1" d="M 191.5 106 L 190.5 108 L 191.5 106 Z " /><path fill="rgb(130,129,129)" stroke="rgb(130,129,129)" stroke-width="1" opacity="1" d="M 150.5 107 L 148.5 110 L 150.5 107 Z " /><path fill="rgb(130,129,129)" stroke="rgb(130,129,129)" stroke-width="1" opacity="1" d="M 143.5 108 L 141.5 111 L 143.5 108 Z " /><path fill="rgb(130,129,129)" stroke="rgb(130,129,129)" stroke-width="1" opacity="1" d="M 189.5 109 L 188.5 111 L 189.5 109 Z " /><path fill="rgb(130,129,129)" stroke="rgb(130,129,129)" stroke-width="1" opacity="1" d="M 179.5 110 L 177.5 113 L 179.5 110 Z " /><path fill="rgb(130,129,129)" stroke="rgb(130,129,129)" stroke-width="1" opacity="1" d="M 87.5 112 L 88.5 114 L 87.5 112 Z " /><path fill="rgb(130,129,129)" stroke="rgb(130,129,129)" stroke-width="1" opacity="1" d="M 145.5 113 L 143.5 116 L 145.5 113 Z " /><path fill="rgb(130,129,129)" stroke="rgb(130,129,129)" stroke-width="1" opacity="1" d="M 186.5 113 L 185.5 115 L 186.5 113 Z " /><path fill="rgb(130,129,129)" stroke="rgb(130,129,129)" stroke-width="1" opacity="1" d="M 138.5 114 L 136.5 117 L 138.5 114 Z " /><path fill="rgb(130,129,129)" stroke="rgb(130,129,129)" stroke-width="1" opacity="1" d="M 176.5 114 L 174.5 117 L 176.5 114 Z " /><path fill="rgb(130,129,129)" stroke="rgb(130,129,129)" stroke-width="1" opacity="1" d="M 93.5 116 Q 96.5 117.5 93.5 119 L 93.5 116 Z " /><path fill="rgb(130,129,129)" stroke="rgb(130,129,129)" stroke-width="1" opacity="1" d="M 183.5 117 L 182.5 119 L 183.5 117 Z " /><path fill="rgb(130,129,129)" stroke="rgb(130,129,129)" stroke-width="1" opacity="1" d="M 141.5 118 L 140.5 121 L 142 121.5 L 140.5 122 Q 137 120 141.5 118 Z " /><path fill="rgb(130,129,129)" stroke="rgb(130,129,129)" stroke-width="1" opacity="1" d="M 132.5 119 L 135 119.5 L 132.5 120 L 132.5 119 Z " /><path fill="rgb(130,129,129)" stroke="rgb(130,129,129)" stroke-width="1" opacity="1" d="M 172.5 119 L 170.5 122 L 172.5 119 Z " /><path fill="rgb(130,129,129)" stroke="rgb(130,129,129)" stroke-width="1" opacity="1" d="M 85.5 121 L 84.5 123 L 85.5 121 Z " /><path fill="rgb(130,129,129)" stroke="rgb(130,129,129)" stroke-width="1" opacity="1" d="M 180.5 121 L 179.5 123 L 180.5 121 Z " /><path fill="rgb(130,129,129)" stroke="rgb(130,129,129)" stroke-width="1" opacity="1" d="M 130.5 124 L 128.5 127 L 130.5 124 Z " /><path fill="rgb(130,129,129)" stroke="rgb(130,129,129)" stroke-width="1" opacity="1" d="M 136.5 124 L 135.5 126 L 136.5 124 Z " /><path fill="rgb(130,129,129)" stroke="rgb(130,129,129)" stroke-width="1" opacity="1" d="M 168.5 124 L 165.5 128 L 168.5 124 Z " /><path fill="rgb(130,129,129)" stroke="rgb(130,129,129)" stroke-width="1" opacity="1" d="M 177.5 125 L 175.5 128 L 177.5 125 Z " /><path fill="rgb(130,129,129)" stroke="rgb(130,129,129)" stroke-width="1" opacity="1" d="M 158.5 126 L 161 126.5 L 158.5 127 L 158.5 126 Z " /><path fill="rgb(130,129,129)" stroke="rgb(130,129,129)" stroke-width="1" opacity="1" d="M 81.5 128 L 82 133.5 L 81 133.5 L 81.5 128 Z " /><path fill="rgb(130,129,129)" stroke="rgb(130,129,129)" stroke-width="1" opacity="1" d="M 105.5 128 L 106.5 130 L 105.5 128 Z " /><path fill="rgb(130,129,129)" stroke="rgb(130,129,129)" stroke-width="1" opacity="1" d="M 126.5 129 L 123.5 133 L 126.5 129 Z " /><path fill="rgb(130,129,129)" stroke="rgb(130,129,129)" stroke-width="1" opacity="1" d="M 132.5 129 L 130.5 132 L 132.5 129 Z " /><path fill="rgb(130,129,129)" stroke="rgb(130,129,129)" stroke-width="1" opacity="1" d="M 109.5 133 L 112.5 137 L 109.5 133 Z " /><path fill="rgb(130,129,129)" stroke="rgb(130,129,129)" stroke-width="1" opacity="1" d="M 128.5 134 L 125.5 138 L 128.5 134 Z " /><path fill="rgb(130,129,129)" stroke="rgb(130,129,129)" stroke-width="1" opacity="1" d="M 82.5 135 L 84 139.5 L 83 139.5 L 82.5 135 Z " /><path fill="rgb(130,129,129)" stroke="rgb(130,129,129)" stroke-width="1" opacity="1" d="M 121.5 135 L 119.5 138 L 121.5 135 Z " /><path fill="rgb(130,129,129)" stroke="rgb(130,129,129)" stroke-width="1" opacity="1" d="M 158.5 136 L 153.5 142 L 158.5 136 Z " /><path fill="rgb(130,129,129)" stroke="rgb(130,129,129)" stroke-width="1" opacity="1" d="M 168.5 136 L 165.5 140 L 168.5 136 Z " /><path fill="rgb(130,129,129)" stroke="rgb(130,129,129)" stroke-width="1" opacity="1" d="M 114.5 139 L 115.5 141 L 114.5 139 Z " /><path fill="rgb(130,129,129)" stroke="rgb(130,129,129)" stroke-width="1" opacity="1" d="M 123.5 140 L 121.5 143 L 123.5 140 Z " /><path fill="rgb(130,129,129)" stroke="rgb(130,129,129)" stroke-width="1" opacity="1" d="M 211.5 140 L 214 140.5 L 211.5 141 L 211.5 140 Z " /><path fill="rgb(130,129,129)" stroke="rgb(130,129,129)" stroke-width="1" opacity="1" d="M 215.5 141 L 218 141.5 L 215.5 142 L 215.5 141 Z " /><path fill="rgb(130,129,129)" stroke="rgb(130,129,129)" stroke-width="1" opacity="1" d="M 162.5 143 L 157.5 149 L 162.5 143 Z " /><path fill="rgb(130,129,129)" stroke="rgb(130,129,129)" stroke-width="1" opacity="1" d="M 121.5 147 L 124.5 151 L 121.5 147 Z " /><path fill="rgb(130,129,129)" stroke="rgb(130,129,129)" stroke-width="1" opacity="1" d="M 146.5 149 L 140.5 156 L 146.5 149 Z " /><path fill="rgb(130,129,129)" stroke="rgb(130,129,129)" stroke-width="1" opacity="1" d="M 221.5 152 L 227 152.5 L 221.5 153 L 221.5 152 Z " /><path fill="rgb(130,129,129)" stroke="rgb(130,129,129)" stroke-width="1" opacity="1" d="M 98.5 153 L 97.5 155 L 98.5 153 Z " /><path fill="rgb(130,129,129)" stroke="rgb(130,129,129)" stroke-width="1" opacity="1" d="M 100.5 153 L 101.5 155 L 100.5 153 Z " /><path fill="rgb(130,129,129)" stroke="rgb(130,129,129)" stroke-width="1" opacity="1" d="M 231.5 153 L 237 153.5 L 231.5 154 L 231.5 153 Z " /><path fill="rgb(130,129,129)" stroke="rgb(130,129,129)" stroke-width="1" opacity="1" d="M 243.5 154 L 246 154.5 L 243.5 155 L 243.5 154 Z " /><path fill="rgb(130,129,129)" stroke="rgb(130,129,129)" stroke-width="1" opacity="1" d="M 128.5 155 L 131.5 159 L 128.5 155 Z " /><path fill="rgb(130,129,129)" stroke="rgb(130,129,129)" stroke-width="1" opacity="1" d="M 95.5 157 L 94.5 159 L 95.5 157 Z " /><path fill="rgb(130,129,129)" stroke="rgb(130,129,129)" stroke-width="1" opacity="1" d="M 103.5 157 L 102.5 159 L 103.5 157 Z " /><path fill="rgb(130,129,129)" stroke="rgb(130,129,129)" stroke-width="1" opacity="1" d="M 107.5 159 L 111 161.5 L 108.5 160 L 107.5 159 Z " /><path fill="rgb(130,129,129)" stroke="rgb(130,129,129)" stroke-width="1" opacity="1" d="M 92.5 161 L 90.5 164 L 92.5 161 Z " /><path fill="rgb(130,129,129)" stroke="rgb(130,129,129)" stroke-width="1" opacity="1" d="M 99.5 162 L 97.5 165 L 99.5 162 Z " /><path fill="rgb(130,129,129)" stroke="rgb(130,129,129)" stroke-width="1" opacity="1" d="M 112.5 162 L 114.5 165 L 112.5 162 Z " /><path fill="rgb(130,129,129)" stroke="rgb(130,129,129)" stroke-width="1" opacity="1" d="M 104.5 163 L 102.5 166 L 104.5 163 Z " /><path fill="rgb(130,129,129)" stroke="rgb(130,129,129)" stroke-width="1" opacity="1" d="M 116.5 165 L 117.5 167 L 116.5 165 Z " /><path fill="rgb(130,129,129)" stroke="rgb(130,129,129)" stroke-width="1" opacity="1" d="M 140.5 165 L 136 170.5 L 135.5 172 L 135 170.5 L 140.5 165 Z " /><path fill="rgb(130,129,129)" stroke="rgb(130,129,129)" stroke-width="1" opacity="1" d="M 70.5 167 L 69.5 169 L 70.5 167 Z " /><path fill="rgb(130,129,129)" stroke="rgb(130,129,129)" stroke-width="1" opacity="1" d="M 87.5 167 L 85.5 170 L 87.5 167 Z " /><path fill="rgb(130,129,129)" stroke="rgb(130,129,129)" stroke-width="1" opacity="1" d="M 95.5 167 L 93.5 170 L 95.5 167 Z " /><path fill="rgb(130,129,129)" stroke="rgb(130,129,129)" stroke-width="1" opacity="1" d="M 119.5 167 L 123 171.5 L 121 172.5 L 122 170.5 L 119.5 167 Z " /><path fill="rgb(130,129,129)" stroke="rgb(130,129,129)" stroke-width="1" opacity="1" d="M 100.5 168 L 97.5 172 L 100.5 168 Z " /><path fill="rgb(130,129,129)" stroke="rgb(130,129,129)" stroke-width="1" opacity="1" d="M 82.5 173 L 79.5 177 L 82.5 173 Z " /><path fill="rgb(130,129,129)" stroke="rgb(130,129,129)" stroke-width="1" opacity="1" d="M 90.5 173 L 88.5 176 L 90.5 173 Z " /><path fill="rgb(130,129,129)" stroke="rgb(130,129,129)" stroke-width="1" opacity="1" d="M 95.5 174 L 93.5 177 L 95.5 174 Z " /><path fill="rgb(130,129,129)" stroke="rgb(130,129,129)" stroke-width="1" opacity="1" d="M 118.5 174 L 116.5 177 L 118.5 174 Z " /><path fill="rgb(130,129,129)" stroke="rgb(130,129,129)" stroke-width="1" opacity="1" d="M 136.5 174 L 137 176.5 L 136 176.5 L 136.5 174 Z " /><path fill="rgb(130,129,129)" stroke="rgb(130,129,129)" stroke-width="1" opacity="1" d="M 65.5 176 L 64.5 178 L 65.5 176 Z " /><path fill="rgb(130,129,129)" stroke="rgb(130,129,129)" stroke-width="1" opacity="1" d="M 86.5 178 L 83.5 182 L 86.5 178 Z " /><path fill="rgb(130,129,129)" stroke="rgb(130,129,129)" stroke-width="1" opacity="1" d="M 113.5 178 L 112.5 180 L 113.5 178 Z " /><path fill="rgb(130,129,129)" stroke="rgb(130,129,129)" stroke-width="1" opacity="1" d="M 63.5 179 L 57.5 186 L 63.5 179 Z " /><path fill="rgb(130,129,129)" stroke="rgb(130,129,129)" stroke-width="1" opacity="1" d="M 124.5 179 Q 127.1 178.2 126 181.5 L 125 181.5 L 124.5 180 L 123 180.5 L 124.5 179 Z " /><path fill="rgb(130,129,129)" stroke="rgb(130,129,129)" stroke-width="1" opacity="1" d="M 137.5 179 L 138 181.5 L 137 181.5 L 137.5 179 Z " /><path fill="rgb(130,129,129)" stroke="rgb(130,129,129)" stroke-width="1" opacity="1" d="M 76.5 180 L 73.5 184 L 76.5 180 Z " /><path fill="rgb(130,129,129)" stroke="rgb(130,129,129)" stroke-width="1" opacity="1" d="M 90.5 180 L 88.5 183 L 90.5 180 Z " /><path fill="rgb(130,129,129)" stroke="rgb(130,129,129)" stroke-width="1" opacity="1" d="M 110.5 180 L 109.5 182 L 110.5 180 Z " /><path fill="rgb(130,129,129)" stroke="rgb(130,129,129)" stroke-width="1" opacity="1" d="M 120.5 182 L 119.5 184 L 120.5 182 Z " /><path fill="rgb(130,129,129)" stroke="rgb(130,129,129)" stroke-width="1" opacity="1" d="M 81.5 184 L 79.5 187 L 81.5 184 Z " /><path fill="rgb(130,129,129)" stroke="rgb(130,129,129)" stroke-width="1" opacity="1" d="M 138.5 184 L 139 186.5 L 138 186.5 L 138.5 184 Z " /><path fill="rgb(130,129,129)" stroke="rgb(130,129,129)" stroke-width="1" opacity="1" d="M 86.5 185 L 84.5 188 L 86.5 185 Z " /><path fill="rgb(130,129,129)" stroke="rgb(130,129,129)" stroke-width="1" opacity="1" d="M 116.5 185 L 115.5 187 L 116.5 185 Z " /><path fill="rgb(130,129,129)" stroke="rgb(130,129,129)" stroke-width="1" opacity="1" d="M 55.5 186 L 53.5 189 L 55.5 186 Z " /><path fill="rgb(130,129,129)" stroke="rgb(130,129,129)" stroke-width="1" opacity="1" d="M 71.5 186 L 66.5 192 L 71.5 186 Z " /><path fill="rgb(130,129,129)" stroke="rgb(130,129,129)" stroke-width="1" opacity="1" d="M 112.5 188 L 111.5 190 L 112.5 188 Z " /><path fill="rgb(130,129,129)" stroke="rgb(130,129,129)" stroke-width="1" opacity="1" d="M 127.5 188 L 128 190.5 L 127 190.5 L 127.5 188 Z " /><path fill="rgb(130,129,129)" stroke="rgb(130,129,129)" stroke-width="1" opacity="1" d="M 51.5 189 L 49.5 192 L 51.5 189 Z " /><path fill="rgb(130,129,129)" stroke="rgb(130,129,129)" stroke-width="1" opacity="1" d="M 77.5 189 L 75.5 192 L 77.5 189 Z " /><path fill="rgb(130,129,129)" stroke="rgb(130,129,129)" stroke-width="1" opacity="1" d="M 82.5 190 L 79.5 194 L 82.5 190 Z " /><path fill="rgb(130,129,129)" stroke="rgb(130,129,129)" stroke-width="1" opacity="1" d="M 95.5 190 L 94.5 192 L 95.5 190 Z " /><path fill="rgb(130,129,129)" stroke="rgb(130,129,129)" stroke-width="1" opacity="1" d="M 109.5 190 L 108.5 192 L 109.5 190 Z " /><path fill="rgb(130,129,129)" stroke="rgb(130,129,129)" stroke-width="1" opacity="1" d="M 139.5 190 L 140 192.5 L 139 192.5 L 139.5 190 Z " /><path fill="rgb(130,129,129)" stroke="rgb(130,129,129)" stroke-width="1" opacity="1" d="M 47.5 192 L 45.5 195 L 47.5 192 Z " /><path fill="rgb(130,129,129)" stroke="rgb(130,129,129)" stroke-width="1" opacity="1" d="M 64.5 192 L 63.5 194 L 64.5 192 Z " /><path fill="rgb(130,129,129)" stroke="rgb(130,129,129)" stroke-width="1" opacity="1" d="M 106.5 192 L 105.5 194 L 106.5 192 Z " /><path fill="rgb(130,129,129)" stroke="rgb(130,129,129)" stroke-width="1" opacity="1" d="M 90.5 193 L 89.5 195 L 90.5 193 Z " /><path fill="rgb(130,129,129)" stroke="rgb(130,129,129)" stroke-width="1" opacity="1" d="M 128.5 193 L 129 195.5 L 128 195.5 L 128.5 193 Z " /><path fill="rgb(130,129,129)" stroke="rgb(130,129,129)" stroke-width="1" opacity="1" d="M 61.5 194 L 60.5 196 L 61.5 194 Z " /><path fill="rgb(130,129,129)" stroke="rgb(130,129,129)" stroke-width="1" opacity="1" d="M 72.5 195 L 70.5 198 L 72.5 195 Z " /><path fill="rgb(130,129,129)" stroke="rgb(130,129,129)" stroke-width="1" opacity="1" d="M 140.5 195 L 141 197.5 L 140 197.5 L 140.5 195 Z " /><path fill="rgb(130,129,129)" stroke="rgb(130,129,129)" stroke-width="1" opacity="1" d="M 42.5 196 L 41.5 198 L 42.5 196 Z " /><path fill="rgb(130,129,129)" stroke="rgb(130,129,129)" stroke-width="1" opacity="1" d="M 58.5 196 L 57.5 198 L 58.5 196 Z " /><path fill="rgb(130,129,129)" stroke="rgb(130,129,129)" stroke-width="1" opacity="1" d="M 77.5 196 L 75.5 199 L 77.5 196 Z " /><path fill="rgb(130,129,129)" stroke="rgb(130,129,129)" stroke-width="1" opacity="1" d="M 85.5 196 L 84.5 198 L 85.5 196 Z " /><path fill="rgb(130,129,129)" stroke="rgb(130,129,129)" stroke-width="1" opacity="1" d="M 98.5 197 L 97.5 199 L 98.5 197 Z " /><path fill="rgb(130,129,129)" stroke="rgb(130,129,129)" stroke-width="1" opacity="1" d="M 55.5 198 L 54.5 200 L 55.5 198 Z " /><path fill="rgb(130,129,129)" stroke="rgb(130,129,129)" stroke-width="1" opacity="1" d="M 38.5 199 L 36.5 202 L 38.5 199 Z " /><path fill="rgb(130,129,129)" stroke="rgb(130,129,129)" stroke-width="1" opacity="1" d="M 52.5 200 L 51.5 202 L 52.5 200 Z " /><path fill="rgb(130,129,129)" stroke="rgb(130,129,129)" stroke-width="1" opacity="1" d="M 68.5 200 L 66.5 203 L 68.5 200 Z " /><path fill="rgb(130,129,129)" stroke="rgb(130,129,129)" stroke-width="1" opacity="1" d="M 73.5 201 L 73.5 204 L 72 203.5 L 71.5 205 L 71 203.5 L 73.5 201 Z " /><path fill="rgb(130,129,129)" stroke="rgb(130,129,129)" stroke-width="1" opacity="1" d="M 76.5 201 L 75.5 203 L 76.5 201 Z " /><path fill="rgb(130,129,129)" stroke="rgb(130,129,129)" stroke-width="1" opacity="1" d="M 91.5 201 L 90.5 203 L 91.5 201 Z " /><path fill="rgb(130,129,129)" stroke="rgb(130,129,129)" stroke-width="1" opacity="1" d="M 141.5 201 L 142 203.5 L 141 203.5 L 141.5 201 Z " /><path fill="rgb(130,129,129)" stroke="rgb(130,129,129)" stroke-width="1" opacity="1" d="M 33.5 203 L 31.5 206 L 33.5 203 Z " /><path fill="rgb(130,129,129)" stroke="rgb(130,129,129)" stroke-width="1" opacity="1" d="M 48.5 203 L 47.5 205 L 48.5 203 Z " /><path fill="rgb(130,129,129)" stroke="rgb(130,129,129)" stroke-width="1" opacity="1" d="M 45.5 205 L 44.5 207 L 45.5 205 Z " /><path fill="rgb(130,129,129)" stroke="rgb(130,129,129)" stroke-width="1" opacity="1" d="M 64.5 205 L 62.5 208 L 64.5 205 Z " /><path fill="rgb(130,129,129)" stroke="rgb(130,129,129)" stroke-width="1" opacity="1" d="M 84.5 205 L 83.5 207 L 84.5 205 Z " /><path fill="rgb(130,129,129)" stroke="rgb(130,129,129)" stroke-width="1" opacity="1" d="M 28.5 207 L 26.5 210 L 28.5 207 Z " /><path fill="rgb(130,129,129)" stroke="rgb(130,129,129)" stroke-width="1" opacity="1" d="M 42.5 207 L 41.5 209 L 42.5 207 Z " /><path fill="rgb(130,129,129)" stroke="rgb(130,129,129)" stroke-width="1" opacity="1" d="M 142.5 207 L 143 209.5 L 142 209.5 L 142.5 207 Z " /><path fill="rgb(130,129,129)" stroke="rgb(130,129,129)" stroke-width="1" opacity="1" d="M 38.5 210 L 37.5 212 L 38.5 210 Z " /><path fill="rgb(130,129,129)" stroke="rgb(130,129,129)" stroke-width="1" opacity="1" d="M 23.5 211 L 20.5 215 L 23.5 211 Z " /><path fill="rgb(130,129,129)" stroke="rgb(130,129,129)" stroke-width="1" opacity="1" d="M 35.5 212 L 34.5 214 L 35.5 212 Z " /><path fill="rgb(130,129,129)" stroke="rgb(130,129,129)" stroke-width="1" opacity="1" d="M 55.5 212 L 54.5 214 L 55.5 212 Z " /><path fill="rgb(130,129,129)" stroke="rgb(130,129,129)" stroke-width="1" opacity="1" d="M 143.5 213 L 144 216.5 L 143 216.5 L 143.5 213 Z " /><path fill="rgb(130,129,129)" stroke="rgb(130,129,129)" stroke-width="1" opacity="1" d="M 31.5 215 L 30.5 217 L 31.5 215 Z " /><path fill="rgb(130,129,129)" stroke="rgb(130,129,129)" stroke-width="1" opacity="1" d="M 53.5 215 L 56 218.5 L 53 216.5 L 53.5 215 Z " /><path fill="rgb(130,129,129)" stroke="rgb(130,129,129)" stroke-width="1" opacity="1" d="M 17.5 216 L 15.5 219 L 17.5 216 Z " /><path fill="rgb(130,129,129)" stroke="rgb(130,129,129)" stroke-width="1" opacity="1" d="M 28.5 217 L 27.5 219 L 28.5 217 Z " /><path fill="rgb(130,129,129)" stroke="rgb(130,129,129)" stroke-width="1" opacity="1" d="M 133.5 217 L 134 219.5 L 133 219.5 L 133.5 217 Z " /><path fill="rgb(130,129,129)" stroke="rgb(130,129,129)" stroke-width="1" opacity="1" d="M 25.5 219 L 24.5 221 L 25.5 219 Z " /><path fill="rgb(130,129,129)" stroke="rgb(130,129,129)" stroke-width="1" opacity="1" d="M 144.5 220 L 145 222.5 L 144 222.5 L 144.5 220 Z " /><path fill="rgb(130,129,129)" stroke="rgb(130,129,129)" stroke-width="1" opacity="1" d="M 11.5 221 L 8.5 225 L 11.5 221 Z " /><path fill="rgb(130,129,129)" stroke="rgb(130,129,129)" stroke-width="1" opacity="1" d="M 134.5 222 L 135 224.5 L 134 224.5 L 134.5 222 Z " /><path fill="rgb(130,129,129)" stroke="rgb(130,129,129)" stroke-width="1" opacity="1" d="M 18.5 224 L 18 225.5 L 24 232.5 L 24 234.5 L 20.5 237 L 20.5 236 L 23 234.5 L 23 232.5 L 17 225.5 L 18.5 224 Z " /><path fill="rgb(130,129,129)" stroke="rgb(130,129,129)" stroke-width="1" opacity="1" d="M 135.5 227 L 136 229.5 L 135 229.5 L 135.5 227 Z " /><path fill="rgb(130,129,129)" stroke="rgb(130,129,129)" stroke-width="1" opacity="1" d="M 145.5 227 L 146 230.5 L 145 230.5 L 145.5 227 Z " /><path fill="rgb(130,129,129)" stroke="rgb(130,129,129)" stroke-width="1" opacity="1" d="M 13.5 232 L 16.5 236 L 13.5 232 Z " /><path fill="rgb(130,129,129)" stroke="rgb(130,129,129)" stroke-width="1" opacity="1" d="M 146.5 235 L 147 238.5 L 146 238.5 L 146.5 235 Z " /><path fill="rgb(130,129,129)" stroke="rgb(130,129,129)" stroke-width="1" opacity="1" d="M 149.5 242 L 152 242.5 L 149.5 243 L 149.5 242 Z " /><path fill="rgb(130,129,129)" stroke="rgb(130,129,129)" stroke-width="1" opacity="1" d="M 155.5 248 L 159 248.5 L 155.5 249 L 155.5 248 Z " /></svg>