<svg width="256" height="256" version="1.1" xmlns="http://www.w3.org/2000/svg" desc="Created with imagetracer.js version 1.2.6" ><path fill="rgb(175,171,169)" stroke="rgb(175,171,169)" stroke-width="1" opacity="1" d="M 152.5 1 L 153.5 3 L 152.5 1 Z " /><path fill="rgb(175,171,169)" stroke="rgb(175,171,169)" stroke-width="1" opacity="1" d="M 156.5 4 L 162.5 11 L 156.5 4 Z " /><path fill="rgb(175,171,169)" stroke="rgb(175,171,169)" stroke-width="1" opacity="1" d="M 140.5 7 L 141 39.5 L 140 39.5 L 140.5 7 Z " /><path fill="rgb(175,171,169)" stroke="rgb(175,171,169)" stroke-width="1" opacity="1" d="M 171.5 7 L 172.5 9 L 171.5 7 Z " /><path fill="rgb(175,171,169)" stroke="rgb(175,171,169)" stroke-width="1" opacity="1" d="M 174.5 11 L 175.5 13 L 174.5 11 Z " /><path fill="rgb(175,171,169)" stroke="rgb(175,171,169)" stroke-width="1" opacity="1" d="M 105.5 14 L 108 14.5 L 105.5 15 L 105.5 14 Z " /><path fill="rgb(175,171,169)" stroke="rgb(175,171,169)" stroke-width="1" opacity="1" d="M 165.5 14 L 166.5 16 L 165.5 14 Z " /><path fill="rgb(175,171,169)" stroke="rgb(175,171,169)" stroke-width="1" opacity="1" d="M 102.5 15 L 99.5 19 L 102.5 15 Z " /><path fill="rgb(175,171,169)" stroke="rgb(175,171,169)" stroke-width="1" opacity="1" d="M 113.5 17 L 116.5 21 L 113.5 17 Z " /><path fill="rgb(175,171,169)" stroke="rgb(175,171,169)" stroke-width="1" opacity="1" d="M 98.5 21 L 99 25.5 L 98 25.5 L 98.5 21 Z " /><path fill="rgb(175,171,169)" stroke="rgb(175,171,169)" stroke-width="1" opacity="1" d="M 120.5 26 L 121 29.5 L 120 29.5 L 120.5 26 Z " /><path fill="rgb(175,171,169)" stroke="rgb(175,171,169)" stroke-width="1" opacity="1" d="M 100.5 29 Q 103.8 29.8 103 34.5 L 102 34.5 Q 102.5 29.8 100.5 29 Z " /><path fill="rgb(175,171,169)" stroke="rgb(175,171,169)" stroke-width="1" opacity="1" d="M 119.5 32 L 117.5 35 L 119.5 32 Z " /><path fill="rgb(175,171,169)" stroke="rgb(175,171,169)" stroke-width="1" opacity="1" d="M 108.5 34 L 108 35.5 L 107.5 37 L 107 35.5 L 108.5 34 Z " /><path fill="rgb(175,171,169)" stroke="rgb(175,171,169)" stroke-width="1" opacity="1" d="M 111.5 35 L 115 35.5 L 111.5 36 L 111.5 35 Z " /><path fill="rgb(175,171,169)" stroke="rgb(175,171,169)" stroke-width="1" opacity="1" d="M 144.5 35 L 145 50.5 L 144 50.5 L 144.5 35 Z " /><path fill="rgb(175,171,169)" stroke="rgb(175,171,169)" stroke-width="1" opacity="1" d="M 188.5 40 L 189 42.5 L 188 42.5 L 188.5 40 Z " /><path fill="rgb(175,171,169)" stroke="rgb(175,171,169)" stroke-width="1" opacity="1" d="M 105.5 43 L 106 45.5 L 105 45.5 L 105.5 43 Z " /><path fill="rgb(175,171,169)" stroke="rgb(175,171,169)" stroke-width="1" opacity="1" d="M 189.5 45 L 190 48.5 L 189 48.5 L 189.5 45 Z " /><path fill="rgb(175,171,169)" stroke="rgb(175,171,169)" stroke-width="1" opacity="1" d="M 180.5 48 L 181 51.5 L 180 51.5 L 180.5 48 Z " /><path fill="rgb(175,171,169)" stroke="rgb(175,171,169)" stroke-width="1" opacity="1" d="M 108.5 49 L 113 49.5 L 108.5 50 L 108.5 49 Z " /><path fill="rgb(175,171,169)" stroke="rgb(175,171,169)" stroke-width="1" opacity="1" d="M 118.5 50 L 123 50.5 L 118.5 51 L 118.5 50 Z " /><path fill="rgb(175,171,169)" stroke="rgb(175,171,169)" stroke-width="1" opacity="1" d="M 127.5 51 L 131 51.5 L 127.5 52 L 127.5 51 Z " /><path fill="rgb(175,171,169)" stroke="rgb(175,171,169)" stroke-width="1" opacity="1" d="M 136.5 52 L 140 52.5 L 136.5 53 L 136.5 52 Z " /><path fill="rgb(175,171,169)" stroke="rgb(175,171,169)" stroke-width="1" opacity="1" d="M 193.5 52 L 194.5 54 L 193.5 52 Z " /><path fill="rgb(175,171,169)" stroke="rgb(175,171,169)" stroke-width="1" opacity="1" d="M 145.5 53 L 152 53.5 L 145.5 54 L 145.5 53 Z " /><path fill="rgb(175,171,169)" stroke="rgb(175,171,169)" stroke-width="1" opacity="1" d="M 158.5 54 L 163 54.5 L 158.5 55 L 158.5 54 Z " /><path fill="rgb(175,171,169)" stroke="rgb(175,171,169)" stroke-width="1" opacity="1" d="M 109.5 55 L 115 55.5 L 109.5 56 L 109.5 55 Z " /><path fill="rgb(175,171,169)" stroke="rgb(175,171,169)" stroke-width="1" opacity="1" d="M 169.5 55 L 175 55.5 L 169.5 56 L 169.5 55 Z " /><path fill="rgb(175,171,169)" stroke="rgb(175,171,169)" stroke-width="1" opacity="1" d="M 178.5 55 L 181 55.5 L 178.5 56 L 178.5 55 Z " /><path fill="rgb(175,171,169)" stroke="rgb(175,171,169)" stroke-width="1" opacity="1" d="M 195.5 55 L 196 58.5 L 194 59.5 L 195.5 55 Z " /><path fill="rgb(175,171,169)" stroke="rgb(175,171,169)" stroke-width="1" opacity="1" d="M 118.5 56 L 122 56.5 L 118.5 57 L 118.5 56 Z " /><path fill="rgb(175,171,169)" stroke="rgb(175,171,169)" stroke-width="1" opacity="1" d="M 105.5 57 L 103.5 60 L 105.5 57 Z " /><path fill="rgb(175,171,169)" stroke="rgb(175,171,169)" stroke-width="1" opacity="1" d="M 126.5 57 L 130 57.5 L 126.5 58 L 126.5 57 Z " /><path fill="rgb(175,171,169)" stroke="rgb(175,171,169)" stroke-width="1" opacity="1" d="M 134.5 58 L 138 58.5 L 134.5 59 L 134.5 58 Z " /><path fill="rgb(175,171,169)" stroke="rgb(175,171,169)" stroke-width="1" opacity="1" d="M 144.5 59 L 148 59.5 L 144.5 60 L 144.5 59 Z " /><path fill="rgb(175,171,169)" stroke="rgb(175,171,169)" stroke-width="1" opacity="1" d="M 153.5 60 L 159 60.5 L 153.5 61 L 153.5 60 Z " /><path fill="rgb(175,171,169)" stroke="rgb(175,171,169)" stroke-width="1" opacity="1" d="M 191.5 60 L 193 60.5 L 190.5 62 L 191.5 60 Z " /><path fill="rgb(175,171,169)" stroke="rgb(175,171,169)" stroke-width="1" opacity="1" d="M 139.5 61 L 140 70.5 L 139 70.5 L 139.5 61 Z " /><path fill="rgb(175,171,169)" stroke="rgb(175,171,169)" stroke-width="1" opacity="1" d="M 165.5 61 L 171 61.5 L 165.5 62 L 165.5 61 Z " /><path fill="rgb(175,171,169)" stroke="rgb(175,171,169)" stroke-width="1" opacity="1" d="M 180.5 65 L 181 69.5 L 180 69.5 L 180.5 65 Z " /><path fill="rgb(175,171,169)" stroke="rgb(175,171,169)" stroke-width="1" opacity="1" d="M 37.5 67 L 36.5 69 L 37.5 67 Z " /><path fill="rgb(175,171,169)" stroke="rgb(175,171,169)" stroke-width="1" opacity="1" d="M 143.5 67 L 144 78.5 L 143 78.5 L 143.5 67 Z " /><path fill="rgb(175,171,169)" stroke="rgb(175,171,169)" stroke-width="1" opacity="1" d="M 189.5 68 L 190 72.5 L 189 72.5 L 189.5 68 Z " /><path fill="rgb(175,171,169)" stroke="rgb(175,171,169)" stroke-width="1" opacity="1" d="M 38.5 72 L 39.5 74 L 38.5 72 Z " /><path fill="rgb(175,171,169)" stroke="rgb(175,171,169)" stroke-width="1" opacity="1" d="M 51.5 73 L 52.5 75 L 51.5 73 Z " /><path fill="rgb(175,171,169)" stroke="rgb(175,171,169)" stroke-width="1" opacity="1" d="M 179.5 73 L 180 75.5 L 179 75.5 L 179.5 73 Z " /><path fill="rgb(175,171,169)" stroke="rgb(175,171,169)" stroke-width="1" opacity="1" d="M 41.5 74 L 42.5 76 L 41.5 74 Z " /><path fill="rgb(175,171,169)" stroke="rgb(175,171,169)" stroke-width="1" opacity="1" d="M 44.5 76 L 45.5 78 L 44.5 76 Z " /><path fill="rgb(175,171,169)" stroke="rgb(175,171,169)" stroke-width="1" opacity="1" d="M 58.5 77 L 59.5 79 L 58.5 77 Z " /><path fill="rgb(175,171,169)" stroke="rgb(175,171,169)" stroke-width="1" opacity="1" d="M 49.5 79 L 50.5 81 L 49.5 79 Z " /><path fill="rgb(175,171,169)" stroke="rgb(175,171,169)" stroke-width="1" opacity="1" d="M 54.5 82 L 55.5 84 L 54.5 82 Z " /><path fill="rgb(175,171,169)" stroke="rgb(175,171,169)" stroke-width="1" opacity="1" d="M 138.5 82 L 139 90.5 L 138 90.5 L 138.5 82 Z " /><path fill="rgb(175,171,169)" stroke="rgb(175,171,169)" stroke-width="1" opacity="1" d="M 74.5 86 L 77 87.5 L 75.5 87 L 74.5 86 Z " /><path fill="rgb(175,171,169)" stroke="rgb(175,171,169)" stroke-width="1" opacity="1" d="M 93.5 90 L 94 92.5 L 93 92.5 L 93.5 90 Z " /><path fill="rgb(175,171,169)" stroke="rgb(175,171,169)" stroke-width="1" opacity="1" d="M 142.5 90 L 143 98.5 L 142 98.5 L 142.5 90 Z " /><path fill="rgb(175,171,169)" stroke="rgb(175,171,169)" stroke-width="1" opacity="1" d="M 79.5 97 L 80 99.5 L 79 99.5 L 79.5 97 Z " /><path fill="rgb(175,171,169)" stroke="rgb(175,171,169)" stroke-width="1" opacity="1" d="M 137.5 100 L 138 106.5 L 137 106.5 L 137.5 100 Z " /><path fill="rgb(175,171,169)" stroke="rgb(175,171,169)" stroke-width="1" opacity="1" d="M 170.5 100 L 169.5 102 L 170.5 100 Z " /><path fill="rgb(175,171,169)" stroke="rgb(175,171,169)" stroke-width="1" opacity="1" d="M 78.5 102 L 79 104.5 L 78 104.5 L 78.5 102 Z " /><path fill="rgb(175,171,169)" stroke="rgb(175,171,169)" stroke-width="1" opacity="1" d="M 91.5 102 L 92 104.5 L 91 104.5 L 91.5 102 Z " /><path fill="rgb(175,171,169)" stroke="rgb(175,171,169)" stroke-width="1" opacity="1" d="M 141.5 107 L 142 113.5 L 141 113.5 L 141.5 107 Z " /><path fill="rgb(175,171,169)" stroke="rgb(175,171,169)" stroke-width="1" opacity="1" d="M 77.5 108 L 78 112.5 L 77 112.5 L 77.5 108 Z " /><path fill="rgb(175,171,169)" stroke="rgb(175,171,169)" stroke-width="1" opacity="1" d="M 90.5 108 L 91 112.5 L 90 112.5 L 90.5 108 Z " /><path fill="rgb(175,171,169)" stroke="rgb(175,171,169)" stroke-width="1" opacity="1" d="M 163.5 111 L 162.5 113 L 163.5 111 Z " /><path fill="rgb(175,171,169)" stroke="rgb(175,171,169)" stroke-width="1" opacity="1" d="M 174.5 111 L 173.5 113 L 174.5 111 Z " /><path fill="rgb(175,171,169)" stroke="rgb(175,171,169)" stroke-width="1" opacity="1" d="M 136.5 114 L 137 119.5 L 136 119.5 L 136.5 114 Z " /><path fill="rgb(175,171,169)" stroke="rgb(175,171,169)" stroke-width="1" opacity="1" d="M 172.5 114 L 171.5 116 L 172.5 114 Z " /><path fill="rgb(175,171,169)" stroke="rgb(175,171,169)" stroke-width="1" opacity="1" d="M 160.5 115 L 159.5 117 L 160.5 115 Z " /><path fill="rgb(175,171,169)" stroke="rgb(175,171,169)" stroke-width="1" opacity="1" d="M 76.5 118 L 77 123.5 L 76 123.5 L 76.5 118 Z " /><path fill="rgb(175,171,169)" stroke="rgb(175,171,169)" stroke-width="1" opacity="1" d="M 89.5 118 L 90 124.5 L 89 124.5 L 89.5 118 Z " /><path fill="rgb(175,171,169)" stroke="rgb(175,171,169)" stroke-width="1" opacity="1" d="M 169.5 118 L 167.5 121 L 169.5 118 Z " /><path fill="rgb(175,171,169)" stroke="rgb(175,171,169)" stroke-width="1" opacity="1" d="M 155.5 121 L 149.5 128 L 155.5 121 Z " /><path fill="rgb(175,171,169)" stroke="rgb(175,171,169)" stroke-width="1" opacity="1" d="M 140.5 122 L 141 128.5 L 140 128.5 L 140.5 122 Z " /><path fill="rgb(175,171,169)" stroke="rgb(175,171,169)" stroke-width="1" opacity="1" d="M 164.5 124 L 156.5 133 L 164.5 124 Z " /><path fill="rgb(175,171,169)" stroke="rgb(175,171,169)" stroke-width="1" opacity="1" d="M 135.5 126 L 136 130.5 L 135 130.5 L 135.5 126 Z " /><path fill="rgb(175,171,169)" stroke="rgb(175,171,169)" stroke-width="1" opacity="1" d="M 75.5 130 L 76 135.5 L 74 136.5 L 75.5 130 Z " /><path fill="rgb(175,171,169)" stroke="rgb(175,171,169)" stroke-width="1" opacity="1" d="M 144.5 131 L 143.5 133 L 144.5 131 Z " /><path fill="rgb(175,171,169)" stroke="rgb(175,171,169)" stroke-width="1" opacity="1" d="M 88.5 133 L 89 141.5 L 88 141.5 L 88.5 133 Z " /><path fill="rgb(175,171,169)" stroke="rgb(175,171,169)" stroke-width="1" opacity="1" d="M 153.5 134 L 151.5 137 L 153.5 134 Z " /><path fill="rgb(175,171,169)" stroke="rgb(175,171,169)" stroke-width="1" opacity="1" d="M 134.5 136 L 135 137.5 L 133 138.5 L 134.5 136 Z " /><path fill="rgb(175,171,169)" stroke="rgb(175,171,169)" stroke-width="1" opacity="1" d="M 70.5 138 L 68.5 141 L 70.5 138 Z " /><path fill="rgb(175,171,169)" stroke="rgb(175,171,169)" stroke-width="1" opacity="1" d="M 66.5 144 L 67 146.5 L 66 146.5 L 66.5 144 Z " /><path fill="rgb(175,171,169)" stroke="rgb(175,171,169)" stroke-width="1" opacity="1" d="M 128.5 146 L 131 146.5 L 128.5 147 L 128.5 146 Z " /><path fill="rgb(175,171,169)" stroke="rgb(175,171,169)" stroke-width="1" opacity="1" d="M 120.5 154 L 130 154.5 L 120.5 155 L 120.5 154 Z " /><path fill="rgb(175,171,169)" stroke="rgb(175,171,169)" stroke-width="1" opacity="1" d="M 140.5 155 L 145 155.5 L 140.5 156 L 140.5 155 Z " /><path fill="rgb(175,171,169)" stroke="rgb(175,171,169)" stroke-width="1" opacity="1" d="M 150.5 156 L 153 156.5 L 150.5 157 L 150.5 156 Z " /><path fill="rgb(175,171,169)" stroke="rgb(175,171,169)" stroke-width="1" opacity="1" d="M 69.5 158 L 71.5 161 L 69.5 158 Z " /><path fill="rgb(175,171,169)" stroke="rgb(175,171,169)" stroke-width="1" opacity="1" d="M 164.5 161 L 165.5 163 L 164.5 161 Z " /><path fill="rgb(175,171,169)" stroke="rgb(175,171,169)" stroke-width="1" opacity="1" d="M 109.5 167 L 121.5 180 L 109.5 167 Z " /><path fill="rgb(175,171,169)" stroke="rgb(175,171,169)" stroke-width="1" opacity="1" d="M 82.5 168 L 94.5 181 L 82.5 168 Z " /><path fill="rgb(175,171,169)" stroke="rgb(175,171,169)" stroke-width="1" opacity="1" d="M 117.5 168 L 120 168.5 L 117.5 169 L 117.5 168 Z " /><path fill="rgb(175,171,169)" stroke="rgb(175,171,169)" stroke-width="1" opacity="1" d="M 123.5 169 L 126 169.5 L 123.5 170 L 123.5 169 Z " /><path fill="rgb(175,171,169)" stroke="rgb(175,171,169)" stroke-width="1" opacity="1" d="M 130.5 170 L 135 170.5 L 130.5 171 L 130.5 170 Z " /><path fill="rgb(175,171,169)" stroke="rgb(175,171,169)" stroke-width="1" opacity="1" d="M 138.5 171 L 142 171.5 L 138.5 172 L 138.5 171 Z " /><path fill="rgb(175,171,169)" stroke="rgb(175,171,169)" stroke-width="1" opacity="1" d="M 147.5 172 L 151 172.5 L 147.5 173 L 147.5 172 Z " /><path fill="rgb(175,171,169)" stroke="rgb(175,171,169)" stroke-width="1" opacity="1" d="M 156.5 173 L 159 173.5 L 156.5 174 L 156.5 173 Z " /><path fill="rgb(175,171,169)" stroke="rgb(175,171,169)" stroke-width="1" opacity="1" d="M 99.5 184 L 101.5 187 L 99.5 184 Z " /><path fill="rgb(175,171,169)" stroke="rgb(175,171,169)" stroke-width="1" opacity="1" d="M 125.5 184 L 127.5 187 L 125.5 184 Z " /><path fill="rgb(175,171,169)" stroke="rgb(175,171,169)" stroke-width="1" opacity="1" d="M 104.5 188 L 105.5 190 L 104.5 188 Z " /><path fill="rgb(175,171,169)" stroke="rgb(175,171,169)" stroke-width="1" opacity="1" d="M 129.5 189 L 131.5 192 L 129.5 189 Z " /><path fill="rgb(175,171,169)" stroke="rgb(175,171,169)" stroke-width="1" opacity="1" d="M 108.5 191 L 109.5 193 L 108.5 191 Z " /><path fill="rgb(175,171,169)" stroke="rgb(175,171,169)" stroke-width="1" opacity="1" d="M 111.5 193 L 112.5 195 L 111.5 193 Z " /><path fill="rgb(175,171,169)" stroke="rgb(175,171,169)" stroke-width="1" opacity="1" d="M 118.5 199 L 117.5 201 L 118.5 199 Z " /><path fill="rgb(175,171,169)" stroke="rgb(175,171,169)" stroke-width="1" opacity="1" d="M 130.5 206 L 129.5 208 L 130.5 206 Z " /><path fill="rgb(175,171,169)" stroke="rgb(175,171,169)" stroke-width="1" opacity="1" d="M 106.5 210 L 93.5 224 L 106.5 210 Z " /><path fill="rgb(175,171,169)" stroke="rgb(175,171,169)" stroke-width="1" opacity="1" d="M 125.5 211 L 123.5 214 L 125.5 211 Z " /><path fill="rgb(175,171,169)" stroke="rgb(175,171,169)" stroke-width="1" opacity="1" d="M 119.5 216 L 117.5 219 L 119.5 216 Z " /><path fill="rgb(175,171,169)" stroke="rgb(175,171,169)" stroke-width="1" opacity="1" d="M 114.5 220 L 111.5 224 L 114.5 220 Z " /><path fill="rgb(175,171,169)" stroke="rgb(175,171,169)" stroke-width="1" opacity="1" d="M 107.5 226 L 105.5 229 L 107.5 226 Z " /><path fill="rgb(175,171,169)" stroke="rgb(175,171,169)" stroke-width="1" opacity="1" d="M 101.5 231 L 99.5 234 L 101.5 231 Z " /><path fill="rgb(175,171,169)" stroke="rgb(175,171,169)" stroke-width="1" opacity="1" d="M 96.5 235 L 94.5 238 L 96.5 235 Z " /><path fill="rgb(175,171,169)" stroke="rgb(175,171,169)" stroke-width="1" opacity="1" d="M 76.5 239 L 65.5 251 L 76.5 239 Z " /><path fill="rgb(175,171,169)" stroke="rgb(175,171,169)" stroke-width="1" opacity="1" d="M 90.5 240 L 88.5 243 L 90.5 240 Z " /><path fill="rgb(175,171,169)" stroke="rgb(175,171,169)" stroke-width="1" opacity="1" d="M 196.5 240 L 201 242.5 L 198.5 243 L 196.5 240 Z " /><path fill="rgb(175,171,169)" stroke="rgb(175,171,169)" stroke-width="1" opacity="1" d="M 205.5 243 L 210 243.5 L 205.5 244 L 205.5 243 Z " /><path fill="rgb(175,171,169)" stroke="rgb(175,171,169)" stroke-width="1" opacity="1" d="M 85.5 244 L 84.5 246 L 85.5 244 Z " /><path fill="rgb(175,171,169)" stroke="rgb(175,171,169)" stroke-width="1" opacity="1" d="M 189.5 246 L 190.5 248 L 189.5 246 Z " /><path fill="rgb(175,171,169)" stroke="rgb(175,171,169)" stroke-width="1" opacity="1" d="M 214.5 246 L 215 248.5 L 214 248.5 L 214.5 246 Z " /><path fill="rgb(175,171,169)" stroke="rgb(175,171,169)" stroke-width="1" opacity="1" d="M 192.5 249 L 193.5 251 L 192.5 249 Z " /><path fill="rgb(175,171,169)" stroke="rgb(175,171,169)" stroke-width="1" opacity="1" d="M 196.5 251 L 208 251.5 L 196.5 252 L 196.5 251 Z " /><path fill="rgb(175,171,169)" stroke="rgb(175,171,169)" stroke-width="1" opacity="1" d="M 72.5 252 L 72 253.5 L 71.5 255 L 71 253.5 L 72.5 252 Z " /><path fill="rgb(57,50,48)" stroke="rgb(57,50,48)" stroke-width="1" opacity="0.8470588235294118" d="M 140.5 0 L 141 4.5 L 140 4.5 L 140.5 0 Z " /><path fill="rgb(57,50,48)" stroke="rgb(57,50,48)" stroke-width="1" opacity="0.8470588235294118" d="M 145.5 0 L 146 25.5 L 145 25.5 L 145.5 0 Z " /><path fill="rgb(57,50,48)" stroke="rgb(57,50,48)" stroke-width="1" opacity="0.8470588235294118" d="M 150.5 0 L 151.5 2 L 150.5 0 Z " /><path fill="rgb(57,50,48)" stroke="rgb(57,50,48)" stroke-width="1" opacity="0.8470588235294118" d="M 165.5 0 L 170.5 6 L 165.5 0 Z " /><path fill="rgb(57,50,48)" stroke="rgb(57,50,48)" stroke-width="1" opacity="0.8470588235294118" d="M 154.5 3 L 156.5 6 L 154.5 3 Z " /><path fill="rgb(57,50,48)" stroke="rgb(57,50,48)" stroke-width="1" opacity="0.8470588235294118" d="M 173.5 9 L 174.5 11 L 173.5 9 Z " /><path fill="rgb(57,50,48)" stroke="rgb(57,50,48)" stroke-width="1" opacity="0.8470588235294118" d="M 162.5 11 L 164.5 14 L 162.5 11 Z " /><path fill="rgb(57,50,48)" stroke="rgb(57,50,48)" stroke-width="1" opacity="0.8470588235294118" d="M 111.5 15 L 112.5 17 L 111.5 15 Z " /><path fill="rgb(57,50,48)" stroke="rgb(57,50,48)" stroke-width="1" opacity="0.8470588235294118" d="M 166.5 16 L 167.5 18 L 166.5 16 Z " /><path fill="rgb(57,50,48)" stroke="rgb(57,50,48)" stroke-width="1" opacity="0.8470588235294118" d="M 117.5 20 L 118.5 22 L 117.5 20 Z " /><path fill="rgb(57,50,48)" stroke="rgb(57,50,48)" stroke-width="1" opacity="0.8470588235294118" d="M 139.5 45 L 140 51.5 L 139 51.5 L 139.5 45 Z " /><path fill="rgb(57,50,48)" stroke="rgb(57,50,48)" stroke-width="1" opacity="0.8470588235294118" d="M 98.5 46 L 99 47.5 L 96.5 49 L 96.5 48 Q 99 48.7 98.5 46 Z " /><path fill="rgb(57,50,48)" stroke="rgb(57,50,48)" stroke-width="1" opacity="0.8470588235294118" d="M 113.5 49 L 117 49.5 L 113.5 50 L 113.5 49 Z " /><path fill="rgb(57,50,48)" stroke="rgb(57,50,48)" stroke-width="1" opacity="0.8470588235294118" d="M 123.5 50 L 126 50.5 L 123.5 51 L 123.5 50 Z " /><path fill="rgb(57,50,48)" stroke="rgb(57,50,48)" stroke-width="1" opacity="0.8470588235294118" d="M 190.5 50 L 191.5 52 Q 188.7 52.7 190.5 50 Z " /><path fill="rgb(57,50,48)" stroke="rgb(57,50,48)" stroke-width="1" opacity="0.8470588235294118" d="M 131.5 51 L 135 51.5 L 131.5 52 L 131.5 51 Z " /><path fill="rgb(57,50,48)" stroke="rgb(57,50,48)" stroke-width="1" opacity="0.8470588235294118" d="M 180.5 52 L 181 54.5 L 180 54.5 L 180.5 52 Z " /><path fill="rgb(57,50,48)" stroke="rgb(57,50,48)" stroke-width="1" opacity="0.8470588235294118" d="M 152.5 53 L 156 53.5 L 152.5 54 L 152.5 53 Z " /><path fill="rgb(57,50,48)" stroke="rgb(57,50,48)" stroke-width="1" opacity="0.8470588235294118" d="M 163.5 54 L 168 54.5 L 163.5 55 L 163.5 54 Z " /><path fill="rgb(57,50,48)" stroke="rgb(57,50,48)" stroke-width="1" opacity="0.8470588235294118" d="M 175.5 55 L 178 55.5 L 175.5 56 L 175.5 55 Z " /><path fill="rgb(57,50,48)" stroke="rgb(57,50,48)" stroke-width="1" opacity="0.8470588235294118" d="M 123.5 57 L 126 57.5 L 123.5 58 L 123.5 57 Z " /><path fill="rgb(57,50,48)" stroke="rgb(57,50,48)" stroke-width="1" opacity="0.8470588235294118" d="M 131.5 58 L 134 58.5 L 131.5 59 L 131.5 58 Z " /><path fill="rgb(57,50,48)" stroke="rgb(57,50,48)" stroke-width="1" opacity="0.8470588235294118" d="M 144.5 60 L 145 63.5 L 144 63.5 L 144.5 60 Z " /><path fill="rgb(57,50,48)" stroke="rgb(57,50,48)" stroke-width="1" opacity="0.8470588235294118" d="M 149.5 60 L 153 60.5 L 149.5 61 L 149.5 60 Z " /><path fill="rgb(57,50,48)" stroke="rgb(57,50,48)" stroke-width="1" opacity="0.8470588235294118" d="M 161.5 61 L 165 61.5 L 161.5 62 L 161.5 61 Z " /><path fill="rgb(57,50,48)" stroke="rgb(57,50,48)" stroke-width="1" opacity="0.8470588235294118" d="M 173.5 62 Q 179.5 60.5 181 63.5 L 180.5 65 L 180 63 L 173.5 63 L 173.5 62 Z " /><path fill="rgb(57,50,48)" stroke="rgb(57,50,48)" stroke-width="1" opacity="0.8470588235294118" d="M 190.5 62 L 191 66.5 L 190 66.5 L 190.5 62 Z " /><path fill="rgb(57,50,48)" stroke="rgb(57,50,48)" stroke-width="1" opacity="0.8470588235294118" d="M 47.5 70 L 48.5 72 L 47.5 70 Z " /><path fill="rgb(57,50,48)" stroke="rgb(57,50,48)" stroke-width="1" opacity="0.8470588235294118" d="M 138.5 74 L 139 81.5 L 138 81.5 L 138.5 74 Z " /><path fill="rgb(57,50,48)" stroke="rgb(57,50,48)" stroke-width="1" opacity="0.8470588235294118" d="M 143.5 79 L 144 85.5 L 143 85.5 L 143.5 79 Z " /><path fill="rgb(57,50,48)" stroke="rgb(57,50,48)" stroke-width="1" opacity="0.8470588235294118" d="M 137.5 93 L 138 99.5 L 137 99.5 L 137.5 93 Z " /><path fill="rgb(57,50,48)" stroke="rgb(57,50,48)" stroke-width="1" opacity="0.8470588235294118" d="M 92.5 98 L 93 100.5 L 92 100.5 L 92.5 98 Z " /><path fill="rgb(57,50,48)" stroke="rgb(57,50,48)" stroke-width="1" opacity="0.8470588235294118" d="M 142.5 99 L 143 105.5 L 142 105.5 L 142.5 99 Z " /><path fill="rgb(57,50,48)" stroke="rgb(57,50,48)" stroke-width="1" opacity="0.8470588235294118" d="M 166.5 106 L 165.5 108 L 166.5 106 Z " /><path fill="rgb(57,50,48)" stroke="rgb(57,50,48)" stroke-width="1" opacity="0.8470588235294118" d="M 136.5 109 L 137 113.5 L 136 113.5 L 136.5 109 Z " /><path fill="rgb(57,50,48)" stroke="rgb(57,50,48)" stroke-width="1" opacity="0.8470588235294118" d="M 164.5 109 L 163.5 111 L 164.5 109 Z " /><path fill="rgb(57,50,48)" stroke="rgb(57,50,48)" stroke-width="1" opacity="0.8470588235294118" d="M 90.5 113 L 91 115.5 L 90 115.5 L 90.5 113 Z " /><path fill="rgb(57,50,48)" stroke="rgb(57,50,48)" stroke-width="1" opacity="0.8470588235294118" d="M 76.5 114 L 77 117.5 L 76 117.5 L 76.5 114 Z " /><path fill="rgb(57,50,48)" stroke="rgb(57,50,48)" stroke-width="1" opacity="0.8470588235294118" d="M 141.5 114 L 142 119.5 L 141 119.5 L 141.5 114 Z " /><path fill="rgb(57,50,48)" stroke="rgb(57,50,48)" stroke-width="1" opacity="0.8470588235294118" d="M 171.5 116 L 170.5 118 L 171.5 116 Z " /><path fill="rgb(57,50,48)" stroke="rgb(57,50,48)" stroke-width="1" opacity="0.8470588235294118" d="M 158.5 117 L 155.5 121 L 158.5 117 Z " /><path fill="rgb(57,50,48)" stroke="rgb(57,50,48)" stroke-width="1" opacity="0.8470588235294118" d="M 135.5 121 L 136 125.5 L 135 125.5 L 135.5 121 Z " /><path fill="rgb(57,50,48)" stroke="rgb(57,50,48)" stroke-width="1" opacity="0.8470588235294118" d="M 167.5 121 L 165.5 124 L 167.5 121 Z " /><path fill="rgb(57,50,48)" stroke="rgb(57,50,48)" stroke-width="1" opacity="0.8470588235294118" d="M 75.5 125 L 76 129.5 L 75 129.5 L 75.5 125 Z " /><path fill="rgb(57,50,48)" stroke="rgb(57,50,48)" stroke-width="1" opacity="0.8470588235294118" d="M 89.5 125 L 90 129.5 L 89 129.5 L 89.5 125 Z " /><path fill="rgb(57,50,48)" stroke="rgb(57,50,48)" stroke-width="1" opacity="0.8470588235294118" d="M 147.5 128 L 145.5 131 L 147.5 128 Z " /><path fill="rgb(57,50,48)" stroke="rgb(57,50,48)" stroke-width="1" opacity="0.8470588235294118" d="M 140.5 129 L 141.5 133 L 143 132.5 Q 141.5 135.5 140 132.5 L 140.5 129 Z " /><path fill="rgb(57,50,48)" stroke="rgb(57,50,48)" stroke-width="1" opacity="0.8470588235294118" d="M 134.5 133 L 135 135.5 L 134 135.5 L 134.5 133 Z " /><path fill="rgb(57,50,48)" stroke="rgb(57,50,48)" stroke-width="1" opacity="0.8470588235294118" d="M 155.5 133 L 154.5 135 L 155.5 133 Z " /><path fill="rgb(57,50,48)" stroke="rgb(57,50,48)" stroke-width="1" opacity="0.8470588235294118" d="M 125.5 142 L 126 144.5 L 125 144.5 L 125.5 142 Z " /><path fill="rgb(57,50,48)" stroke="rgb(57,50,48)" stroke-width="1" opacity="0.8470588235294118" d="M 130.5 154 L 138 154.5 L 130.5 155 L 130.5 154 Z " /><path fill="rgb(57,50,48)" stroke="rgb(57,50,48)" stroke-width="1" opacity="0.8470588235294118" d="M 145.5 155 L 149 155.5 L 145.5 156 L 145.5 155 Z " /><path fill="rgb(57,50,48)" stroke="rgb(57,50,48)" stroke-width="1" opacity="0.8470588235294118" d="M 166.5 162 L 169.5 166 L 166.5 162 Z " /><path fill="rgb(57,50,48)" stroke="rgb(57,50,48)" stroke-width="1" opacity="0.8470588235294118" d="M 79.5 165 L 81.5 168 L 79.5 165 Z " /><path fill="rgb(57,50,48)" stroke="rgb(57,50,48)" stroke-width="1" opacity="0.8470588235294118" d="M 143.5 172 L 147 172.5 L 143.5 173 L 143.5 172 Z " /><path fill="rgb(57,50,48)" stroke="rgb(57,50,48)" stroke-width="1" opacity="0.8470588235294118" d="M 152.5 173 L 156 173.5 L 152.5 174 L 152.5 173 Z " /><path fill="rgb(57,50,48)" stroke="rgb(57,50,48)" stroke-width="1" opacity="0.8470588235294118" d="M 122.5 180 L 124.5 183 L 122.5 180 Z " /><path fill="rgb(57,50,48)" stroke="rgb(57,50,48)" stroke-width="1" opacity="0.8470588235294118" d="M 95.5 181 L 97.5 184 L 95.5 181 Z " /><path fill="rgb(57,50,48)" stroke="rgb(57,50,48)" stroke-width="1" opacity="0.8470588235294118" d="M 128.5 187 L 129.5 189 L 128.5 187 Z " /><path fill="rgb(57,50,48)" stroke="rgb(57,50,48)" stroke-width="1" opacity="0.8470588235294118" d="M 115.5 201 L 107.5 210 L 115.5 201 Z " /><path fill="rgb(57,50,48)" stroke="rgb(57,50,48)" stroke-width="1" opacity="0.8470588235294118" d="M 128.5 209 L 127.5 211 L 128.5 209 Z " /><path fill="rgb(57,50,48)" stroke="rgb(57,50,48)" stroke-width="1" opacity="0.8470588235294118" d="M 122.5 214 L 121.5 216 L 122.5 214 Z " /><path fill="rgb(57,50,48)" stroke="rgb(57,50,48)" stroke-width="1" opacity="0.8470588235294118" d="M 116.5 219 L 115.5 221 L 116.5 219 Z " /><path fill="rgb(57,50,48)" stroke="rgb(57,50,48)" stroke-width="1" opacity="0.8470588235294118" d="M 91.5 224 L 77.5 239 L 91.5 224 Z " /><path fill="rgb(57,50,48)" stroke="rgb(57,50,48)" stroke-width="1" opacity="0.8470588235294118" d="M 110.5 224 L 109.5 226 L 110.5 224 Z " /><path fill="rgb(57,50,48)" stroke="rgb(57,50,48)" stroke-width="1" opacity="0.8470588235294118" d="M 104.5 229 L 103.5 231 L 104.5 229 Z " /><path fill="rgb(57,50,48)" stroke="rgb(57,50,48)" stroke-width="1" opacity="0.8470588235294118" d="M 98.5 234 L 97.5 236 L 98.5 234 Z " /><path fill="rgb(57,50,48)" stroke="rgb(57,50,48)" stroke-width="1" opacity="0.8470588235294118" d="M 93.5 238 L 92.5 240 L 93.5 238 Z " /><path fill="rgb(57,50,48)" stroke="rgb(57,50,48)" stroke-width="1" opacity="0.8470588235294118" d="M 201.5 242 L 204 242.5 L 201.5 243 L 201.5 242 Z " /><path fill="rgb(57,50,48)" stroke="rgb(57,50,48)" stroke-width="1" opacity="0.8470588235294118" d="M 213.5 244 L 214.5 246 L 213.5 244 Z " /><path fill="rgb(57,50,48)" stroke="rgb(57,50,48)" stroke-width="1" opacity="0.8470588235294118" d="M 190.5 248 L 191.5 250 L 190.5 248 Z " /><path fill="rgb(57,50,48)" stroke="rgb(57,50,48)" stroke-width="1" opacity="0.8470588235294118" d="M 64.5 251 L 63.5 253 L 64.5 251 Z " /><path fill="rgb(57,50,48)" stroke="rgb(57,50,48)" stroke-width="1" opacity="0.8470588235294118" d="M 208.5 251 L 212 251.5 L 208.5 252 L 208.5 251 Z " /><path fill="rgb(0,0,0)" stroke="rgb(0,0,0)" stroke-width="1" opacity="0" d="M 0 0 L 139.5 0 L 140 0.5 L 140 44.5 L 139 45.5 L 139 52 Q 134.5 50.3 126.5 51 L 125.5 50 L 117.5 50 L 116.5 49 L 106.5 49 L 105 47.5 L 108.5 35 Q 110.2 37.7 116.5 36 Q 122.1 34.1 121 25.5 L 117.5 20 L 111.5 15 L 104.5 14 L 99 18.5 L 98 26.5 L 102 31.5 L 102 34.5 L 98 48 L 53.5 61 L 38.5 66 L 36 68.5 Q 34.5 72.9 37.5 72 Q 56 86.7 79 96 L 76 114.5 L 75 136 L 69 138 L 66 143.5 L 65 148.5 L 68 157.5 L 72.5 162 L 77.5 164 Q 94.5 184.5 118 198.5 L 116.5 201 L 63 252.5 L 62 256 L 0.5 256 L 0 255.5 L 0 0 Z " /><path fill="rgb(0,0,0)" stroke="rgb(0,0,0)" stroke-width="1" opacity="0" d="M 146 0 L 149.5 0 L 162 10.5 Q 177.9 26.4 180 55 L 145 53 L 146 0 Z " /><path fill="rgb(0,0,0)" stroke="rgb(0,0,0)" stroke-width="1" opacity="0" d="M 166.5 0 L 256 0 L 256 256 L 72.5 256 L 72 253.5 L 87.5 244 L 129 209.5 L 134 201.5 L 134 194.5 Q 124.3 179.8 111 168.5 L 114.5 168 L 128.5 171 L 160 174 L 168 200.5 L 176 220.5 L 187 243.5 L 191.5 250 L 195.5 252 L 211.5 252 L 215 249.5 Q 216 245 213.5 244 L 198.5 242 L 197 240.5 L 192 230.5 L 177 180.5 L 172 168.5 L 166.5 162 L 157.5 157 L 148.5 155 L 119.5 154 L 89 144 L 90 116.5 L 91 115.5 L 91 107.5 L 92 106.5 L 93 95.5 L 96 81.5 L 102 63.5 L 105.5 58 Q 108.5 55 115.5 56 L 123.5 58 L 139 59 L 137 108.5 L 136 109.5 L 136 120.5 L 135 121.5 L 135 132.5 L 134 138 Q 127.9 138.3 125 142.5 Q 124.5 146.5 127.5 147 L 132.5 147 L 144.5 142 Q 158.2 133.7 168 121.5 Q 177.5 110 184 95.5 L 189 79.5 L 191 61 Q 194.8 61.8 196 58.5 Q 197 53 193.5 52 L 190 49.5 L 190 43.5 L 185 27.5 Q 177 11.3 166.5 0 Z " /><path fill="rgb(0,0,0)" stroke="rgb(0,0,0)" stroke-width="1" opacity="0" d="M 93.5 56 L 94 57.5 L 80.5 89 L 48 70.5 L 93.5 56 Z " /><path fill="rgb(0,0,0)" stroke="rgb(0,0,0)" stroke-width="1" opacity="0" d="M 145 60 L 149.5 61 L 160.5 61 L 161.5 62 L 180 63 L 179 76.5 L 173 94.5 Q 163.8 114.3 148.5 128 L 140.5 134 L 141 132.5 L 142 106.5 L 143 105.5 L 143 86.5 L 144 85.5 L 144 64.5 L 145 60 Z " /><path fill="rgb(254,254,254)" stroke="rgb(254,254,254)" stroke-width="1" opacity="1" d="M 141 0 L 145 0.5 L 145 34.5 L 144 35.5 L 144 52.5 L 145.5 54 L 157.5 54 L 158.5 55 L 181 56 Q 181.2 41.6 176 31.5 Q 169 15 156.5 4 L 151 0.5 L 164.5 0 Q 177.6 11.9 185 29.5 L 188 38.5 L 190 52 Q 193.8 51.3 195 54.5 Q 196 59 193.5 60 L 190 61.5 Q 189.7 81.7 183 95.5 Q 172.8 118.8 154.5 134 L 136.5 145 L 127.5 146 L 126 142.5 L 135 137.5 L 136 120.5 L 137 119.5 L 137 107.5 L 138 106.5 L 140 59 L 137.5 58 L 109.5 55 L 103 59.5 L 93 90.5 Q 93 101 90 108.5 L 90 117.5 L 89 118.5 L 88 144 L 96.5 148 L 120.5 155 L 139.5 155 L 140.5 156 L 154.5 157 Q 164.1 159.9 170 166.5 L 178 185.5 L 190 227.5 L 196 240.5 L 198.5 243 L 211.5 244 L 214 245 Q 215.3 249.6 212.5 251 L 194.5 251 L 191 249 L 179 225.5 L 168 198.5 L 161 175.5 L 158.5 173 L 142.5 172 L 141.5 171 L 126.5 170 L 109.5 167 L 125 183.5 L 132 192.5 L 134 198.5 Q 132.3 206.8 126.5 211 L 86.5 244 L 71 253.5 L 72 255.5 L 63 256 L 63 253.5 L 92.5 224 L 119 199.5 L 117.5 197 L 98.5 184 L 78.5 164 Q 71.3 162.2 68 156.5 L 66 147.5 Q 66.9 140.9 71.5 138 L 76 135.5 L 77 113.5 L 80 96.5 L 37 72 L 36 69.5 L 40.5 66 L 99 49 L 103 31.5 Q 97.4 29.1 99 19.5 Q 100.5 13.5 109.5 15 L 118 21 L 120 24.5 L 120 31.5 Q 118.3 36.8 109.5 35 Q 108.2 32.8 107 35.5 L 104 48.5 L 108.5 50 L 117.5 50 L 118.5 51 L 126.5 51 L 127.5 52 Q 135.5 51.3 140 53 L 140 40.5 L 141 39.5 L 141 0 Z M 92 56 L 49 70 Q 46 69 47 72 L 82 90 L 90 67 L 95 58 Q 96 54 92 56 Z M 144 59 L 144 67 L 143 68 L 142 107 L 141 108 L 141 122 L 140 123 L 141 135 L 150 128 Q 164 115 173 97 L 180 76 L 181 62 L 149 60 L 144 59 Z " /></svg>