<svg xmlns="http://www.w3.org/2000/svg" viewBox="0 0 64 64" fill="none">
  <g fill="#ffffff" fill-rule="evenodd">
    <path d="M 18.39 24.12 L 18.43 24.03 L 18.48 23.94 L 18.54 23.86 L 18.61 23.79 L 18.69 23.74 L 18.77 23.68 L 18.87 23.64 L 18.97 23.60 L 19.08 23.57 L 19.19 23.54 L 19.30 23.52 L 19.39 23.48 L 19.49 23.43 L 19.61 23.42 L 19.71 23.38 L 19.82 23.35 L 19.93 23.32 L 20.01 23.27 L 20.12 23.24 L 20.23 23.21 L 20.34 23.19 L 20.44 23.14 L 20.54 23.10 L 20.65 23.08 L 20.76 23.05 L 20.87 23.02 L 20.98 22.99 L 21.08 22.95 L 21.17 22.91 L 21.28 22.88 L 21.38 22.84 L 21.48 22.80 L 21.59 22.77 L 21.70 22.74 L 21.81 22.72 L 21.92 22.69 L 22.01 22.65 L 22.11 22.61 L 22.22 22.58 L 22.33 22.55 L 22.44 22.52 L 22.55 22.50 L 22.63 22.44 L 22.74 22.41 L 22.86 22.39 L 22.97 22.36 L 23.08 22.33 L 23.16 22.28 L 23.27 22.25 L 23.38 22.22 L 23.49 22.19 L 23.60 22.17 L 23.71 22.14 L 23.79 22.08 L 23.90 22.06 L 24.01 22.03 L 24.12 22.00 L 24.23 21.97 L 24.33 21.93 L 24.43 21.89 L 24.54 21.86 L 24.65 21.83 L 24.76 21.81 L 24.86 21.77 L 24.95 21.72 L 25.06 21.70 L 25.17 21.67 L 25.28 21.64 L 25.39 21.61 L 25.49 21.57 L 25.60 21.54 L 25.70 21.50 L 25.81 21.48 L 25.92 21.45 L 26.01 21.41 L 26.11 21.37 L 26.22 21.34 L 26.33 21.31 L 26.43 21.27 L 26.55 21.26 L 26.66 21.23 L 26.76 21.19 L 26.86 21.14 L 26.97 21.12 L 27.08 21.09 L 27.19 21.06 L 27.30 21.03 L 27.39 20.99 L 27.50 20.97 L 27.60 20.92 L 27.71 20.90 L 27.82 20.87 L 27.93 20.84 L 28.03 20.80 L 28.14 20.77 L 28.25 20.74 L 28.34 20.70 L 28.46 20.68 L 28.57 20.65 L 28.68 20.62 L 28.79 20.59 L 28.90 20.57 L 29.01 20.54 L 29.10 20.50 L 29.21 20.47 L 29.31 20.43 L 29.42 20.40 L 29.53 20.37 L 29.63 20.33 L 29.74 20.30 L 29.83 20.26 L 29.94 20.23 L 30.06 20.21 L 30.17 20.18 L 30.28 20.15 L 30.39 20.12 L 30.50 20.10 L 30.59 20.06 L 30.69 20.01 L 30.73 19.92 L 30.76 19.81 L 30.80 19.71 L 30.83 19.60 L 30.87 19.50 L 30.90 19.39 L 30.92 19.28 L 30.95 19.17 L 30.98 19.06 L 31.01 18.95 L 31.03 18.84 L 31.06 18.73 L 31.09 18.62 L 31.13 18.52 L 31.17 18.43 L 31.19 18.30 L 31.21 18.19 L 31.23 18.07 L 31.27 17.97 L 31.30 17.86 L 31.32 17.75 L 31.35 17.64 L 31.38 17.53 L 31.39 17.41 L 31.42 17.30 L 31.45 17.19 L 31.48 17.08 L 31.50 16.97 L 31.52 16.84 L 31.50 16.74 L 31.42 16.69 L 31.37 16.61 L 31.30 16.54 L 31.23 16.47 L 31.17 16.39 L 31.12 16.30 L 31.05 16.23 L 30.99 16.15 L 30.94 16.07 L 30.90 15.97 L 30.84 15.89 L 30.81 15.78 L 30.79 15.67 L 30.73 15.59 L 30.70 15.48 L 30.68 15.37 L 30.68 15.23 L 30.65 15.12 L 30.65 14.98 L 30.68 14.87 L 30.70 14.76 L 30.73 14.65 L 30.74 14.52 L 30.79 14.43 L 30.83 14.33 L 30.87 14.23 L 30.91 14.14 L 30.97 14.06 L 31.02 13.97 L 31.09 13.90 L 31.14 13.82 L 31.21 13.75 L 31.30 13.70 L 31.37 13.63 L 31.45 13.57 L 31.54 13.53 L 31.63 13.48 L 31.72 13.43 L 31.82 13.39 L 31.94 13.38 L 32.06 13.35 L 32.18 13.34 L 32.32 13.34 L 32.46 13.34 L 32.57 13.37 L 32.68 13.39 L 32.79 13.42 L 32.90 13.45 L 32.99 13.49 L 33.09 13.53 L 33.17 13.59 L 33.26 13.64 L 33.34 13.70 L 33.43 13.74 L 33.52 13.79 L 33.57 13.88 L 33.66 13.93 L 33.72 14.00 L 33.79 14.07 L 33.86 14.14 L 33.93 14.21 L 34.00 14.28 L 34.08 14.33 L 34.17 14.39 L 34.25 14.44 L 34.32 14.51 L 34.39 14.58 L 34.46 14.65 L 34.54 14.70 L 34.58 14.80 L 34.65 14.87 L 34.69 14.97 L 34.74 15.05 L 34.80 15.13 L 34.86 15.21 L 34.90 15.31 L 34.94 15.41 L 34.98 15.50 L 35.01 15.61 L 35.03 15.72 L 35.06 15.83 L 35.06 15.97 L 35.06 16.11 L 35.03 16.22 L 35.02 16.34 L 35.01 16.47 L 34.97 16.57 L 34.92 16.66 L 34.90 16.77 L 34.84 16.86 L 34.80 16.95 L 34.73 17.02 L 34.68 17.10 L 34.61 17.17 L 34.52 17.23 L 34.44 17.28 L 34.36 17.34 L 34.25 17.37 L 34.15 17.41 L 34.06 17.45 L 33.94 17.48 L 33.81 17.48 L 33.67 17.48 L 33.53 17.48 L 33.39 17.48 L 33.28 17.45 L 33.14 17.45 L 33.03 17.42 L 32.92 17.39 L 32.81 17.37 L 32.70 17.34 L 32.62 17.28 L 32.52 17.32 L 32.50 17.43 L 32.47 17.54 L 32.46 17.67 L 32.43 17.78 L 32.40 17.89 L 32.37 18.00 L 32.36 18.12 L 32.33 18.23 L 32.30 18.34 L 32.28 18.46 L 32.25 18.57 L 32.22 18.68 L 32.19 18.79 L 32.17 18.90 L 32.14 19.01 L 32.11 19.12 L 32.10 19.24 L 32.07 19.35 L 32.04 19.46 L 32.03 19.59 L 32.00 19.70 L 31.97 19.81 L 31.96 19.93 L 31.94 20.06 L 31.94 20.14 L 32.07 20.15 L 32.18 20.18 L 32.32 20.18 L 32.46 20.18 L 32.57 20.21 L 32.66 20.19 L 32.79 20.21 L 32.92 20.21 L 33.05 20.22 L 33.17 20.23 L 33.31 20.23 L 33.42 20.26 L 33.56 20.26 L 33.67 20.29 L 33.81 20.29 L 33.92 20.32 L 34.06 20.32 L 34.17 20.34 L 34.30 20.34 L 34.41 20.37 L 34.55 20.37 L 34.69 20.37 L 34.80 20.40 L 34.94 20.40 L 35.05 20.43 L 35.16 20.46 L 35.30 20.46 L 35.42 20.47 L 35.54 20.48 L 35.66 20.51 L 35.79 20.51 L 35.90 20.54 L 36.04 20.54 L 36.15 20.57 L 36.29 20.57 L 36.40 20.59 L 36.54 20.59 L 36.65 20.62 L 36.79 20.62 L 36.90 20.65 L 37.03 20.65 L 37.14 20.68 L 37.28 20.68 L 37.39 20.70 L 37.53 20.70 L 37.64 20.73 L 37.78 20.73 L 37.89 20.76 L 38.03 20.76 L 38.14 20.79 L 38.28 20.79 L 38.41 20.79 L 38.52 20.81 L 38.66 20.81 L 38.77 20.84 L 38.87 20.80 L 38.87 20.66 L 38.87 20.52 L 38.87 20.39 L 38.88 20.26 L 38.87 20.17 L 38.90 20.06 L 38.90 19.92 L 38.90 19.78 L 38.90 19.64 L 38.90 19.50 L 38.90 19.37 L 38.90 19.23 L 38.90 19.09 L 38.92 18.98 L 38.92 18.84 L 38.92 18.70 L 38.92 18.57 L 38.92 18.43 L 38.92 18.29 L 38.92 18.15 L 38.94 18.03 L 38.92 17.93 L 38.95 17.82 L 38.95 17.68 L 38.95 17.54 L 38.95 17.41 L 38.95 17.27 L 38.95 17.13 L 38.95 16.99 L 38.95 16.86 L 38.95 16.72 L 38.95 16.63 L 38.98 16.52 L 38.95 16.41 L 38.98 16.30 L 38.98 16.17 L 38.98 16.03 L 38.98 15.89 L 38.98 15.75 L 38.98 15.61 L 38.98 15.48 L 38.98 15.34 L 38.98 15.20 L 38.98 15.06 L 39.01 14.95 L 38.98 14.84 L 38.99 14.74 L 39.01 14.65 L 39.01 14.51 L 39.01 14.37 L 39.01 14.23 L 39.01 14.10 L 39.01 13.96 L 39.01 13.82 L 39.01 13.68 L 39.01 13.54 L 39.01 13.41 L 39.01 13.27 L 39.01 13.13 L 39.01 12.99 L 39.01 12.86 L 39.01 12.72 L 39.01 12.58 L 39.01 12.44 L 39.01 12.30 L 39.03 12.19 L 39.01 12.08 L 39.03 11.97 L 39.03 11.89 L 39.03 11.75 L 39.03 11.61 L 39.03 11.48 L 39.03 11.34 L 39.03 11.20 L 39.03 11.06 L 39.03 10.92 L 39.03 10.79 L 39.03 10.65 L 39.03 10.51 L 39.03 10.37 L 39.03 10.23 L 39.06 10.12 L 39.03 10.01 L 39.03 9.88 L 39.06 9.77 L 39.06 9.63 L 39.08 9.50 L 39.08 9.39 L 38.99 9.34 L 38.91 9.28 L 38.84 9.21 L 38.76 9.16 L 38.69 9.09 L 38.62 9.02 L 38.57 8.94 L 38.51 8.86 L 38.47 8.76 L 38.44 8.65 L 38.43 8.52 L 38.44 8.40 L 38.48 8.30 L 38.52 8.21 L 38.58 8.12 L 38.66 8.07 L 38.74 8.01 Z"/>
    <path d="M 39.09 8.00 L 39.41 8.04 L 39.68 8.12 L 39.96 8.21 L 40.23 8.29 L 40.50 8.39 L 40.76 8.48 L 40.99 8.61 L 41.23 8.73 L 41.46 8.86 L 41.70 8.98 L 41.92 9.12 L 42.14 9.26 L 42.36 9.39 L 42.58 9.53 L 42.77 9.70 L 42.98 9.85 L 43.19 10.00 L 43.38 10.17 L 43.57 10.33 L 43.77 10.50 L 43.94 10.68 L 44.12 10.86 L 44.30 11.03 L 44.48 11.21 L 44.66 11.39 L 44.83 11.59 L 44.99 11.78 L 45.16 11.97 L 45.32 12.17 L 45.48 12.37 L 45.64 12.57 L 45.79 12.77 L 45.94 12.98 L 46.08 13.20 L 46.23 13.41 L 46.37 13.63 L 46.51 13.85 L 46.63 14.08 L 46.77 14.30 L 46.91 14.52 L 47.03 14.76 L 47.16 14.99 L 47.28 15.23 L 47.39 15.48 L 47.50 15.72 L 47.61 15.97 L 47.72 16.22 L 47.81 16.50 L 47.92 16.74 L 48.00 17.02 L 48.11 17.27 L 48.19 17.54 L 48.26 17.83 L 48.33 18.12 L 48.41 18.40 L 48.50 18.68 L 48.55 18.98 L 48.61 19.28 L 48.66 19.59 L 48.69 19.92 L 48.73 20.23 L 48.77 20.55 L 48.95 20.73 L 49.28 20.76 L 49.50 20.90 L 49.70 21.06 L 49.82 21.30 L 49.90 21.57 L 49.86 21.89 L 49.74 22.12 L 49.56 22.30 L 49.31 22.41 L 49.01 22.47 L 48.83 22.65 L 48.80 22.98 L 48.80 23.34 L 48.74 23.64 L 48.72 23.97 L 48.69 24.30 L 48.65 24.62 L 48.61 24.94 L 48.57 25.26 L 48.50 25.54 L 48.44 25.85 L 48.39 26.15 L 48.30 26.43 L 48.25 26.73 L 48.17 27.01 L 48.10 27.30 L 48.03 27.59 L 47.92 27.83 L 47.83 28.11 L 47.74 28.37 L 47.64 28.63 L 47.54 28.90 L 47.43 29.14 L 47.34 29.41 L 47.23 29.66 L 47.12 29.90 L 47.01 30.15 L 46.88 30.39 L 46.76 30.62 L 46.65 30.87 L 46.51 31.09 L 46.37 31.31 L 46.25 31.54 L 46.12 31.78 L 45.99 32.00 L 45.85 32.22 L 45.71 32.44 L 45.57 32.66 L 45.42 32.87 L 45.27 33.08 L 45.13 33.30 L 44.97 33.49 L 44.81 33.70 L 44.66 33.90 L 44.50 34.10 L 44.34 34.30 L 44.18 34.50 L 44.01 34.69 L 43.85 34.88 L 43.68 35.08 L 43.50 35.26 L 43.34 35.45 L 43.16 35.63 L 42.98 35.81 L 42.80 35.99 L 42.62 36.17 L 42.43 36.33 L 42.25 36.51 L 42.04 36.66 L 41.85 36.83 L 41.66 36.99 L 41.46 37.16 L 41.26 37.31 L 41.06 37.48 L 40.84 37.61 L 40.65 37.78 L 40.43 37.92 L 40.21 38.06 L 39.99 38.19 L 39.77 38.33 L 39.53 38.46 L 39.30 38.58 L 39.06 38.70 L 38.83 38.83 L 38.58 38.94 L 38.32 39.03 L 38.06 39.13 L 37.78 39.21 L 37.48 39.27 L 37.17 39.32 L 36.87 39.38 L 36.54 39.35 L 36.28 39.26 L 36.11 39.06 L 36.08 38.79 L 36.17 38.51 L 36.34 38.33 L 36.57 38.19 L 36.81 38.08 L 37.08 37.99 L 37.34 37.89 L 37.59 37.78 L 37.79 37.63 L 37.83 37.31 L 37.88 36.99 L 37.90 36.66 L 37.93 36.33 L 37.96 36.00 L 37.99 35.72 L 38.03 35.41 L 38.07 35.09 L 38.10 34.76 L 38.12 34.43 L 38.14 34.08 L 38.18 33.77 L 38.21 33.43 L 38.23 33.10 L 38.26 32.77 L 38.26 32.41 L 38.29 32.08 L 38.32 31.75 L 38.34 31.42 L 38.37 31.09 L 38.40 30.76 L 38.43 30.43 L 38.43 30.07 L 38.46 29.74 L 38.48 29.41 L 38.51 29.08 L 38.54 28.74 L 38.54 28.39 L 38.57 28.06 L 38.57 27.70 L 38.59 27.37 L 38.62 27.03 L 38.65 26.70 L 38.65 26.34 L 38.68 26.01 L 38.68 25.66 L 38.70 25.32 L 38.72 24.98 L 38.73 24.63 L 38.76 24.30 L 38.76 23.94 L 38.79 23.61 L 38.79 23.26 L 38.81 22.92 L 38.81 22.57 L 38.84 22.23 L 38.69 22.08 L 38.36 22.06 L 38.03 22.03 L 37.72 21.97 L 37.39 21.94 L 37.08 21.90 L 36.76 21.86 L 36.43 21.83 L 36.11 21.79 L 35.79 21.75 L 35.48 21.71 L 35.16 21.67 L 34.86 21.61 L 34.55 21.56 L 34.22 21.53 L 33.92 21.48 L 33.59 21.45 L 33.28 21.39 L 32.92 21.39 L 32.69 21.52 L 32.43 21.61 L 32.21 21.75 L 31.97 21.88 L 31.81 22.07 L 31.68 22.30 L 31.56 22.54 L 31.45 22.79 L 31.37 23.06 L 31.26 23.31 L 31.14 23.56 L 31.05 23.82 L 30.95 24.08 L 30.87 24.36 L 30.77 24.62 L 30.68 24.88 L 30.59 25.16 L 30.51 25.43 L 30.43 25.71 L 30.34 25.99 L 30.26 26.26 L 30.19 26.55 L 30.11 26.83 L 30.04 27.12 L 29.99 27.42 L 29.90 27.70 L 29.85 28.00 L 29.78 28.29 L 29.71 28.58 L 29.66 28.88 L 29.60 29.19 L 29.54 29.49 L 29.49 29.79 L 29.45 30.11 L 29.39 30.41 L 29.35 30.73 L 29.30 31.03 L 29.24 31.34 L 29.19 31.64 L 29.16 31.97 L 29.10 32.28 L 29.10 32.63 L 29.05 32.94 L 29.02 33.27 L 28.99 33.60 L 28.97 33.93 L 28.94 34.26 L 28.91 34.59 L 28.88 34.92 L 28.87 35.21 L 28.86 35.56 L 28.83 35.89 L 28.80 36.22 L 28.80 36.58 L 28.77 36.91 L 28.77 37.27 L 28.74 37.60 L 28.72 37.93 L 28.72 38.29 L 28.69 38.62 L 28.81 38.86 L 29.05 38.98 L 29.28 39.10 L 29.52 39.23 L 29.78 39.32 L 30.03 39.43 L 30.28 39.54 L 30.55 39.63 L 30.81 39.72 L 31.09 39.81 L 31.35 39.90 L 31.63 39.99 L 31.89 40.08 L 32.15 40.18 L 32.43 40.26 L 32.70 40.34 L 32.98 40.43 L 33.26 40.51 L 33.54 40.58 L 33.83 40.65 L 34.11 40.73 L 34.40 40.80 L 34.69 40.87 L 35.01 40.91 L 35.32 40.95 L 35.66 40.98 L 36.01 40.98 L 36.37 40.98 L 36.70 41.01 L 37.06 41.01 L 37.39 41.03 L 37.75 41.03 L 38.08 41.06 L 38.41 41.09 L 38.77 41.09 L 39.10 41.12 L 39.43 41.14 L 39.74 41.20 L 40.07 41.23 L 40.40 41.26 L 40.73 41.28 L 41.03 41.34 L 41.34 41.39 L 41.64 41.45 L 41.92 41.53 L 42.19 41.61 L 42.47 41.70 L 42.72 41.81 L 42.97 41.92 L 43.21 42.03 L 43.43 42.17 L 43.66 42.30 L 43.88 42.44 L 44.07 42.61 L 44.26 42.77 L 44.44 42.95 L 44.62 43.13 L 44.77 43.34 L 44.92 43.54 L 45.05 43.78 L 45.16 44.03 L 45.26 44.29 L 45.38 44.52 L 45.48 44.79 L 45.59 45.03 L 45.70 45.28 L 45.79 45.54 L 45.90 45.79 L 46.00 46.06 L 46.10 46.32 L 46.19 46.58 L 46.28 46.86 L 46.37 47.12 L 46.46 47.39 L 46.54 47.67 L 46.62 47.94 L 46.70 48.22 L 46.79 48.50 L 46.87 48.77 L 46.97 49.03 L 47.05 49.31 L 47.13 49.59 L 47.21 49.86 L 47.30 50.14 L 47.37 50.43 L 47.46 50.69 L 47.54 50.97 L 47.61 51.26 L 47.70 51.53 L 47.78 51.81 L 47.86 52.08 L 47.96 52.34 L 48.04 52.62 L 48.12 52.90 L 48.21 53.17 L 48.29 53.45 L 48.39 53.71 L 48.47 53.99 L 48.55 54.26 L 48.63 54.54 L 48.72 54.81 L 48.80 55.09 L 48.90 55.35 L 48.99 55.61 L 49.10 55.86 L 49.19 56.14 L 49.31 56.37 L 49.43 56.61 L 49.54 56.86 L 49.66 57.10 L 49.77 57.35 L 49.89 57.59 L 50.01 57.82 L 50.14 58.06 L 50.30 58.25 L 50.59 58.32 L 50.91 58.36 L 51.21 58.41 L 51.54 58.44 L 51.85 58.50 L 52.18 58.52 L 52.51 58.55 L 52.81 58.61 L 53.12 58.66 L 53.37 58.77 L 53.52 58.98 Z"/>
    <path d="M 46.40 21.46 L 46.47 21.45 L 46.54 21.43 L 46.61 21.42 L 46.69 21.42 L 46.77 21.42 L 46.83 21.39 L 46.91 21.39 L 46.97 21.37 L 46.98 21.30 L 46.98 21.21 L 46.98 21.13 L 46.95 21.08 L 46.95 20.99 L 46.95 20.91 L 46.95 20.83 L 46.92 20.77 L 46.92 20.69 L 46.92 20.61 L 46.91 20.54 L 46.90 20.47 L 46.90 20.39 L 46.87 20.33 L 46.87 20.25 L 46.86 20.18 L 46.84 20.11 L 46.84 20.03 L 46.83 19.96 L 46.81 19.89 L 46.81 19.81 L 46.79 19.75 L 46.79 19.67 L 46.76 19.61 L 46.76 19.53 L 46.73 19.48 L 46.73 19.39 L 46.70 19.34 L 46.70 19.26 L 46.68 19.20 L 46.68 19.12 L 46.65 19.06 L 46.65 18.98 L 46.62 18.92 L 46.61 18.86 L 46.59 18.79 L 46.57 18.73 L 46.57 18.65 L 46.54 18.59 L 46.52 18.52 L 46.51 18.46 L 46.48 18.40 L 46.47 18.33 L 46.46 18.26 L 46.43 18.21 L 46.40 18.15 L 46.39 18.08 L 46.37 18.01 L 46.34 17.96 L 46.32 17.90 L 46.30 17.83 L 46.29 17.77 L 46.26 17.71 L 46.23 17.66 L 46.22 17.59 L 46.21 17.52 L 46.18 17.46 L 46.15 17.41 L 46.12 17.35 L 46.11 17.28 L 46.08 17.23 L 46.07 17.16 L 46.04 17.10 L 46.01 17.05 L 46.00 16.98 L 45.97 16.92 L 45.96 16.86 L 45.93 16.80 L 45.90 16.74 L 45.88 16.69 L 45.85 16.63 L 45.83 16.57 L 45.82 16.50 L 45.78 16.46 L 45.77 16.39 L 45.74 16.33 L 45.71 16.28 L 45.68 16.22 L 45.66 16.17 L 45.63 16.11 L 45.60 16.06 L 45.57 16.00 L 45.56 15.93 L 45.53 15.88 L 45.49 15.83 L 45.48 15.77 L 45.45 15.71 L 45.42 15.66 L 45.39 15.60 L 45.37 15.54 L 45.34 15.49 L 45.31 15.43 L 45.27 15.39 L 45.24 15.34 L 45.21 15.28 L 45.19 15.23 L 45.16 15.17 L 45.13 15.12 L 45.10 15.06 L 45.08 15.01 L 45.03 14.97 L 45.01 14.91 L 44.98 14.86 L 44.95 14.80 L 44.92 14.74 L 44.88 14.70 L 44.86 14.65 L 44.83 14.59 L 44.80 14.54 L 44.76 14.50 L 44.72 14.46 L 44.69 14.40 L 44.66 14.34 L 44.63 14.29 L 44.59 14.25 L 44.57 14.19 L 44.54 14.14 L 44.51 14.08 L 44.47 14.04 L 44.43 14.00 L 44.40 13.94 L 44.36 13.90 L 44.33 13.85 L 44.29 13.81 L 44.26 13.75 L 44.22 13.71 L 44.19 13.66 L 44.17 13.60 L 44.12 13.56 L 44.08 13.52 L 44.06 13.46 L 44.01 13.42 L 43.97 13.38 L 43.94 13.32 L 43.90 13.28 L 43.86 13.24 L 43.83 13.19 L 43.79 13.14 L 43.75 13.10 L 43.71 13.06 L 43.68 13.01 L 43.64 12.97 L 43.60 12.92 L 43.56 12.88 L 43.53 12.83 L 43.49 12.79 L 43.45 12.74 L 43.42 12.69 L 43.38 12.65 L 43.34 12.61 L 43.30 12.57 L 43.26 12.52 L 43.21 12.48 L 43.17 12.44 L 43.13 12.40 L 43.09 12.36 L 43.05 12.32 L 43.02 12.26 L 42.98 12.22 L 42.94 12.18 L 42.90 12.14 L 42.86 12.10 L 42.81 12.06 L 42.77 12.01 L 42.73 11.97 L 42.69 11.93 L 42.63 11.90 L 42.61 11.85 L 42.57 11.81 L 42.52 11.77 L 42.48 11.72 L 42.43 11.70 L 42.39 11.66 L 42.34 11.61 L 42.30 11.57 L 42.26 11.53 L 42.22 11.49 L 42.18 11.45 L 42.14 11.41 L 42.08 11.38 L 42.06 11.32 L 42.00 11.30 L 41.96 11.26 L 41.92 11.21 L 41.86 11.19 L 41.82 11.14 L 41.78 11.10 L 41.72 11.08 L 41.68 11.03 L 41.63 11.01 L 41.59 10.97 L 41.53 10.94 L 41.49 10.90 L 41.45 10.86 L 41.39 10.83 L 41.35 10.79 L 41.31 10.74 L 41.26 10.72 L 41.20 10.69 L 41.16 10.65 L 41.12 10.61 L 41.06 10.58 L 41.02 10.54 L 40.97 10.51 L 40.92 10.47 L 40.87 10.44 L 40.81 10.41 L 40.77 10.37 L 40.72 10.34 L 40.68 10.30 L 40.62 10.28 L 40.57 10.25 L 40.51 10.22 L 40.47 10.18 L 40.43 10.14 L 40.37 10.11 L 40.32 10.08 L 40.26 10.06 L 40.21 10.03 L 40.15 10.00 L 40.11 9.96 L 40.06 9.93 L 40.00 9.90 L 39.93 9.89 L 39.89 9.93 L 39.89 10.01 L 39.86 10.07 L 39.89 10.12 L 39.89 10.21 L 39.89 10.29 L 39.89 10.37 L 39.89 10.46 L 39.89 10.54 L 39.89 10.62 L 39.89 10.70 L 39.89 10.79 L 39.89 10.87 L 39.89 10.95 L 39.89 11.03 L 39.89 11.12 L 39.89 11.20 L 39.89 11.28 L 39.89 11.37 L 39.89 11.45 L 39.89 11.53 L 39.89 11.61 L 39.89 11.70 L 39.89 11.78 L 39.89 11.86 L 39.89 11.94 L 39.89 12.03 L 39.89 12.11 L 39.89 12.19 L 39.89 12.28 L 39.89 12.36 L 39.89 12.44 L 39.89 12.52 L 39.89 12.61 L 39.89 12.69 L 39.89 12.77 L 39.89 12.86 L 39.89 12.94 L 39.89 13.02 L 39.89 13.10 L 39.89 13.19 L 39.89 13.27 L 39.89 13.35 L 39.89 13.43 L 39.89 13.52 L 39.89 13.60 L 39.89 13.68 L 39.89 13.77 L 39.89 13.85 L 39.89 13.93 L 39.89 14.01 L 39.89 14.10 L 39.89 14.18 L 39.89 14.26 L 39.89 14.34 L 39.89 14.43 L 39.89 14.51 L 39.89 14.59 L 39.88 14.66 L 39.86 14.73 L 39.89 14.79 L 39.89 14.87 L 39.89 14.95 L 39.89 15.03 L 39.86 15.09 L 39.86 15.17 L 39.86 15.26 L 39.86 15.34 L 39.86 15.42 L 39.86 15.50 L 39.86 15.59 L 39.86 15.67 L 39.86 15.75 L 39.86 15.83 L 39.86 15.92 L 39.86 16.00 L 39.86 16.08 L 39.86 16.17 L 39.86 16.25 L 39.86 16.33 L 39.86 16.41 L 39.85 16.46 L 39.86 16.52 L 39.86 16.61 L 39.86 16.69 L 39.85 16.76 L 39.85 16.81 L 39.86 16.88 L 39.83 16.94 L 39.83 17.02 L 39.83 17.10 L 39.83 17.19 L 39.83 17.27 L 39.83 17.35 L 39.83 17.43 L 39.83 17.52 L 39.83 17.60 L 39.83 17.68 L 39.83 17.77 L 39.83 17.85 L 39.83 17.93 L 39.83 18.01 L 39.81 18.07 L 39.81 18.15 L 39.81 18.23 L 39.81 18.32 L 39.81 18.40 L 39.81 18.48 L 39.81 18.57 L 39.81 18.65 L 39.81 18.73 L 39.81 18.81 L 39.81 18.90 L 39.81 18.98 L 39.81 19.06 L 39.81 19.14 L 39.81 19.23 L 39.78 19.28 L 39.78 19.37 L 39.78 19.45 L 39.78 19.53 L 39.78 19.61 L 39.78 19.70 L 39.78 19.78 L 39.78 19.86 L 39.78 19.94 L 39.75 20.00 L 39.75 20.08 L 39.75 20.17 L 39.75 20.25 L 39.75 20.33 L 39.75 20.41 L 39.75 20.50 L 39.74 20.57 L 39.72 20.63 L 39.75 20.69 L 39.72 20.74 L 39.72 20.83 L 39.72 20.91 L 39.77 20.95 L 39.85 20.95 L 39.90 20.98 L 39.99 20.98 L 40.07 20.98 L 40.15 20.98 L 40.22 20.99 L 40.29 21.01 L 40.37 21.01 L 40.46 21.01 L 40.52 21.02 L 40.59 21.03 L 40.68 21.03 L 40.76 21.03 L 40.84 21.03 L 40.91 21.05 L 40.98 21.06 L 41.06 21.06 L 41.14 21.06 L 41.20 21.09 L 41.28 21.09 L 41.37 21.09 L 41.45 21.09 L 41.53 21.09 L 41.59 21.12 L 41.67 21.12 L 41.75 21.12 L 41.83 21.12 L 41.89 21.14 L 41.97 21.14 L 42.06 21.14 L 42.14 21.14 L 42.21 21.16 L 42.28 21.17 L 42.36 21.17 L 42.44 21.17 L 42.52 21.17 L 42.61 21.17 L 42.66 21.20 L 42.74 21.20 L 42.83 21.20 L 42.91 21.20 L 42.97 21.23 L 43.05 21.23 L 43.13 21.23 L 43.19 21.26 L 43.26 21.24 L 43.30 21.26 L 43.38 21.26 L 43.46 21.26 L 43.53 21.27 L 43.60 21.28 L 43.68 21.28 L 43.77 21.28 L 43.82 21.31 L 43.90 21.31 L 43.99 21.31 L 44.07 21.31 L 44.15 21.31 L 44.22 21.32 L 44.29 21.34 L 44.37 21.34 L 44.43 21.37 L 44.47 21.35 L 44.54 21.37 L 44.62 21.37 L 44.70 21.37 L 44.79 21.37 L 44.86 21.38 L 44.92 21.39 L 45.01 21.39 L 45.09 21.39 L 45.14 21.42 L 45.23 21.42 L 45.31 21.42 L 45.39 21.42 L 45.48 21.42 L 45.56 21.42 L 45.61 21.45 L 45.70 21.45 L 45.78 21.45 L 45.82 21.46 L 45.86 21.48 L 45.94 21.48 L 46.03 21.48 L 46.11 21.48 L 46.19 21.48 L 46.28 21.48 L 46.36 21.48 Z"/>
    <path d="M 27.37 28.19 L 27.37 28.14 L 27.39 28.11 L 27.39 28.06 L 27.42 28.03 L 27.42 27.97 L 27.45 27.94 L 27.45 27.89 L 27.48 27.86 L 27.48 27.81 L 27.49 27.77 L 27.50 27.72 L 27.52 27.68 L 27.53 27.64 L 27.56 27.61 L 27.56 27.56 L 27.57 27.52 L 27.59 27.48 L 27.59 27.42 L 27.61 27.39 L 27.63 27.35 L 27.64 27.31 L 27.66 27.27 L 27.67 27.23 L 27.68 27.19 L 27.70 27.14 L 27.71 27.10 L 27.72 27.06 L 27.72 27.01 L 27.75 26.98 L 27.77 26.94 L 27.78 26.90 L 27.79 26.86 L 27.81 26.81 L 27.82 26.77 L 27.83 26.73 L 27.85 26.69 L 27.86 26.65 L 27.88 26.61 L 27.89 26.57 L 27.90 26.52 L 27.92 26.48 L 27.93 26.44 L 27.94 26.40 L 27.96 26.36 L 27.97 26.32 L 28.00 26.29 L 28.00 26.23 L 28.03 26.21 L 28.03 26.15 L 28.06 26.12 L 28.07 26.08 L 28.08 26.04 L 28.10 26.00 L 28.11 25.96 L 28.12 25.92 L 28.14 25.88 L 28.17 25.85 L 28.17 25.79 L 28.19 25.77 L 28.19 25.71 L 28.22 25.68 L 28.23 25.64 L 28.25 25.60 L 28.28 25.57 L 28.28 25.52 L 28.30 25.49 L 28.30 25.43 L 28.33 25.41 L 28.34 25.37 L 28.36 25.32 L 28.39 25.30 L 28.39 25.24 L 28.41 25.21 L 28.41 25.16 L 28.43 25.12 L 28.44 25.08 L 28.47 25.05 L 28.47 24.99 L 28.50 24.97 L 28.51 24.92 L 28.52 24.88 L 28.54 24.84 L 28.55 24.80 L 28.57 24.76 L 28.58 24.72 L 28.61 24.69 L 28.62 24.65 L 28.63 24.61 L 28.63 24.55 L 28.66 24.52 L 28.68 24.48 L 28.69 24.44 L 28.72 24.41 L 28.73 24.37 L 28.74 24.33 L 28.76 24.29 L 28.77 24.25 L 28.80 24.22 L 28.80 24.17 L 28.83 24.14 L 28.84 24.10 L 28.86 24.06 L 28.88 24.03 L 28.88 23.97 L 28.91 23.94 L 28.92 23.90 L 28.94 23.86 L 28.95 23.82 L 28.97 23.78 L 28.99 23.75 L 29.01 23.71 L 29.02 23.67 L 29.05 23.64 L 29.05 23.59 L 29.08 23.56 L 29.09 23.52 L 29.10 23.48 L 29.12 23.43 L 29.13 23.39 L 29.16 23.37 L 29.17 23.32 L 29.19 23.28 L 29.21 23.26 L 29.23 23.21 L 29.24 23.17 L 29.27 23.14 L 29.28 23.10 L 29.30 23.06 L 29.32 23.03 L 29.32 22.98 L 29.35 22.95 L 29.37 22.91 L 29.38 22.87 L 29.41 22.84 L 29.41 22.79 L 29.43 22.76 L 29.45 22.72 L 29.46 22.68 L 29.49 22.65 L 29.50 22.61 L 29.52 22.57 L 29.54 22.54 L 29.56 22.50 L 29.57 22.46 L 29.59 22.41 L 29.60 22.37 L 29.63 22.34 L 29.66 22.32 L 29.67 22.28 L 29.68 22.23 L 29.70 22.19 L 29.71 22.15 L 29.74 22.12 L 29.75 22.08 L 29.77 22.04 L 29.78 22.00 L 29.79 21.96 L 29.81 21.92 L 29.82 21.88 L 29.85 21.85 L 29.86 21.81 L 29.88 21.77 L 29.90 21.74 L 29.92 21.70 L 29.93 21.66 L 29.94 21.61 L 29.96 21.57 L 29.93 21.54 L 29.90 21.52 L 29.86 21.50 L 29.81 21.50 L 29.75 21.50 L 29.71 21.52 L 29.67 21.53 L 29.63 21.54 L 29.59 21.56 L 29.54 21.57 L 29.50 21.59 L 29.45 21.59 L 29.42 21.61 L 29.37 21.61 L 29.34 21.64 L 29.28 21.64 L 29.26 21.67 L 29.20 21.67 L 29.17 21.70 L 29.12 21.70 L 29.09 21.72 L 29.03 21.72 L 29.01 21.75 L 28.95 21.75 L 28.92 21.78 L 28.87 21.78 L 28.84 21.81 L 28.79 21.81 L 28.76 21.83 L 28.70 21.83 L 28.66 21.85 L 28.62 21.86 L 28.58 21.88 L 28.54 21.89 L 28.48 21.89 L 28.46 21.92 L 28.40 21.92 L 28.37 21.94 L 28.32 21.94 L 28.29 21.97 L 28.25 21.99 L 28.21 22.00 L 28.15 22.00 L 28.12 22.03 L 28.07 22.03 L 28.03 22.04 L 27.99 22.06 L 27.96 22.08 L 27.90 22.08 L 27.86 22.10 L 27.82 22.11 L 27.78 22.12 L 27.74 22.14 L 27.68 22.14 L 27.66 22.17 L 27.60 22.17 L 27.57 22.19 L 27.52 22.19 L 27.49 22.22 L 27.45 22.23 L 27.41 22.25 L 27.37 22.26 L 27.32 22.28 L 27.28 22.29 L 27.24 22.30 L 27.19 22.30 L 27.16 22.33 L 27.10 22.33 L 27.08 22.36 L 27.02 22.36 L 26.98 22.37 L 26.94 22.39 L 26.90 22.40 L 26.86 22.41 L 26.81 22.43 L 26.77 22.44 L 26.73 22.46 L 26.69 22.47 L 26.63 22.47 L 26.61 22.50 L 26.55 22.50 L 26.52 22.52 L 26.47 22.52 L 26.43 22.54 L 26.39 22.55 L 26.34 22.57 L 26.30 22.58 L 26.28 22.61 L 26.22 22.61 L 26.18 22.62 L 26.14 22.63 L 26.08 22.63 L 26.06 22.66 L 26.00 22.66 L 25.97 22.69 L 25.92 22.69 L 25.89 22.72 L 25.83 22.72 L 25.81 22.74 L 25.75 22.74 L 25.72 22.77 L 25.67 22.77 L 25.64 22.80 L 25.59 22.80 L 25.56 22.83 L 25.50 22.83 L 25.46 22.84 L 25.42 22.86 L 25.38 22.87 L 25.34 22.88 L 25.28 22.88 L 25.26 22.91 L 25.21 22.92 L 25.17 22.94 L 25.13 22.95 L 25.09 22.97 L 25.03 22.97 L 25.01 22.99 L 24.97 23.01 L 24.92 23.02 L 24.88 23.03 L 24.84 23.05 L 24.80 23.06 L 24.76 23.08 L 24.70 23.08 L 24.68 23.10 L 24.62 23.10 L 24.59 23.13 L 24.54 23.13 L 24.51 23.16 L 24.46 23.16 L 24.43 23.19 L 24.37 23.19 L 24.34 23.21 L 24.29 23.21 L 24.26 23.24 L 24.21 23.24 L 24.17 23.26 L 24.12 23.27 L 24.10 23.30 L 24.04 23.30 L 24.00 23.31 L 23.96 23.32 L 23.92 23.34 L 23.88 23.35 L 23.82 23.35 L 23.79 23.38 L 23.74 23.38 L 23.71 23.41 L 23.66 23.41 L 23.63 23.43 L 23.57 23.43 L 23.54 23.46 L 23.49 23.46 L 23.45 23.48 L 23.41 23.49 L 23.35 23.49 L 23.32 23.52 L 23.27 23.52 L 23.24 23.54 L 23.19 23.54 L 23.16 23.57 L 23.10 23.57 L 23.08 23.60 L 23.03 23.61 L 22.99 23.63 L 22.94 23.63 L 22.91 23.66 L 22.86 23.66 L 22.81 23.67 L 22.77 23.68 L 22.73 23.70 L 22.69 23.71 L 22.65 23.72 L 22.61 23.74 L 22.57 23.75 L 22.52 23.77 L 22.47 23.77 L 22.44 23.79 L 22.39 23.79 L 22.36 23.82 L 22.30 23.82 L 22.26 23.83 L 22.22 23.85 L 22.17 23.85 L 22.14 23.88 L 22.08 23.88 L 22.06 23.90 L 22.00 23.90 L 21.96 23.92 L 21.92 23.93 L 21.88 23.94 L 21.83 23.96 L 21.78 23.96 L 21.75 23.99 L 21.70 23.99 L 21.67 24.01 L 21.61 24.01 L 21.57 24.03 L 21.53 24.04 L 21.48 24.04 L 21.45 24.07 L 21.41 24.08 L 21.37 24.10 L 21.32 24.11 L 21.28 24.12 L 21.24 24.14 L 21.20 24.15 L 21.14 24.15 L 21.12 24.18 L 21.06 24.18 L 21.03 24.21 L 20.98 24.21 L 20.95 24.23 L 20.90 24.23 L 20.84 24.23 L 20.81 24.26 L 20.77 24.28 L 20.73 24.29 L 20.68 24.29 L 20.65 24.32 L 20.61 24.33 L 20.57 24.34 L 20.52 24.36 L 20.48 24.37 L 20.44 24.39 L 20.46 24.43 L 20.48 24.46 L 20.51 24.48 L 20.55 24.50 L 20.59 24.51 L 20.62 24.54 L 20.65 24.57 L 20.68 24.59 L 20.72 24.61 L 20.76 24.62 L 20.79 24.65 L 20.83 24.66 L 20.86 24.69 L 20.90 24.70 L 20.92 24.73 L 20.97 24.74 L 21.01 24.76 L 21.03 24.79 L 21.06 24.81 L 21.10 24.83 L 21.14 24.84 L 21.17 24.87 L 21.20 24.90 L 21.24 24.91 L 21.28 24.92 L 21.31 24.95 L 21.34 24.98 L 21.38 24.99 L 21.42 25.01 L 21.45 25.03 L 21.48 25.06 L 21.52 25.08 L 21.56 25.09 L 21.59 25.12 L 21.63 25.13 L 21.67 25.14 L 21.70 25.17 L 21.72 25.20 L 21.77 25.21 L 21.81 25.23 L 21.83 25.26 L 21.88 25.27 L 21.90 25.30 L 21.94 25.31 L 21.97 25.34 L 22.01 25.35 L 22.04 25.38 L 22.08 25.39 L 22.11 25.42 L 22.15 25.43 L 22.19 25.45 L 22.22 25.48 L 22.26 25.49 L 22.29 25.52 L 22.33 25.53 L 22.36 25.56 L 22.40 25.57 L 22.44 25.59 L 22.47 25.61 L 22.50 25.64 L 22.54 25.66 L 22.58 25.67 L 22.61 25.70 L 22.65 25.71 L 22.68 25.74 L 22.72 25.75 L 22.74 25.78 L 22.79 25.79 L 22.83 25.81 L 22.86 25.83 L 22.88 25.86 L 22.92 25.88 L 22.97 25.89 L 22.99 25.92 L 23.03 25.93 L 23.08 25.94 L 23.10 25.97 L 23.13 26.00 L 23.17 26.01 L 23.21 26.03 L 23.24 26.06 L 23.28 26.07 L 23.31 26.10 L 23.35 26.11 L 23.38 26.14 L 23.42 26.15 L 23.46 26.17 L 23.49 26.19 L 23.53 26.21 L 23.57 26.22 L 23.60 26.25 L 23.63 26.28 L 23.67 26.29 L 23.71 26.30 L 23.74 26.33 L 23.78 26.34 L 23.81 26.37 L 23.85 26.39 L 23.88 26.41 L 23.92 26.43 L 23.96 26.44 L 23.99 26.47 L 24.03 26.48 L 24.07 26.50 L 24.10 26.52 L 24.14 26.54 L 24.17 26.57 L 24.21 26.58 L 24.23 26.61 L 24.29 26.61 L 24.32 26.63 L 24.36 26.65 L 24.40 26.66 L 24.43 26.69 L 24.47 26.70 L 24.50 26.73 L 24.54 26.74 L 24.57 26.77 L 24.61 26.79 L 24.65 26.80 L 24.68 26.83 L 24.72 26.84 L 24.76 26.86 L 24.79 26.88 L 24.83 26.90 L 24.86 26.92 L 24.90 26.94 L 24.92 26.97 L 24.97 26.98 L 25.01 26.99 L 25.03 27.02 L 25.08 27.03 L 25.12 27.05 L 25.14 27.08 L 25.19 27.09 L 25.23 27.10 L 25.26 27.13 L 25.30 27.14 L 25.34 27.16 L 25.37 27.19 L 25.41 27.20 L 25.45 27.21 L 25.48 27.24 L 25.52 27.26 L 25.56 27.27 L 25.59 27.30 L 25.63 27.31 L 25.67 27.32 L 25.70 27.35 L 25.72 27.38 L 25.77 27.39 L 25.81 27.41 L 25.83 27.43 L 25.88 27.45 L 25.92 27.46 L 25.94 27.49 L 25.99 27.50 L 26.03 27.52 L 26.07 27.53 L 26.11 27.54 L 26.14 27.57 L 26.18 27.59 L 26.22 27.60 L 26.25 27.63 L 26.29 27.64 L 26.33 27.66 L 26.36 27.68 L 26.40 27.70 L 26.43 27.72 L 26.47 27.74 L 26.50 27.77 L 26.54 27.78 L 26.58 27.79 L 26.61 27.82 L 26.65 27.83 L 26.69 27.85 L 26.72 27.88 L 26.74 27.90 L 26.79 27.92 L 26.83 27.93 L 26.86 27.96 L 26.90 27.97 L 26.94 27.99 L 26.97 28.01 L 27.01 28.03 L 27.05 28.04 L 27.08 28.07 L 27.12 28.08 L 27.16 28.10 L 27.19 28.12 L 27.23 28.14 L 27.26 28.17 L 27.30 28.18 L 27.32 28.21 L 27.37 28.19 Z"/>
    <path d="M 38.92 37.05 L 38.99 37.01 L 39.06 36.97 L 39.13 36.92 L 39.19 36.87 L 39.26 36.83 L 39.32 36.79 L 39.38 36.73 L 39.45 36.69 L 39.52 36.65 L 39.57 36.59 L 39.64 36.55 L 39.70 36.50 L 39.75 36.44 L 39.82 36.40 L 39.89 36.36 L 39.94 36.30 L 40.00 36.25 L 40.07 36.21 L 40.12 36.15 L 40.18 36.10 L 40.23 36.04 L 40.30 36.00 L 40.36 35.94 L 40.41 35.89 L 40.48 35.85 L 40.54 35.79 L 40.59 35.74 L 40.65 35.68 L 40.72 35.64 L 40.76 35.57 L 40.83 35.53 L 40.88 35.48 L 40.94 35.42 L 40.99 35.37 L 41.05 35.31 L 41.10 35.26 L 41.16 35.20 L 41.21 35.14 L 41.28 35.10 L 41.32 35.03 L 41.38 34.98 L 41.43 34.92 L 41.49 34.87 L 41.54 34.81 L 41.60 34.76 L 41.66 34.70 L 41.71 34.65 L 41.77 34.59 L 41.81 34.52 L 41.88 34.48 L 41.93 34.43 L 41.97 34.36 L 42.03 34.30 L 42.08 34.25 L 42.14 34.19 L 42.18 34.12 L 42.23 34.07 L 42.29 34.01 L 42.34 33.96 L 42.39 33.89 L 42.44 33.83 L 42.50 33.78 L 42.54 33.71 L 42.59 33.66 L 42.65 33.60 L 42.69 33.53 L 42.74 33.48 L 42.79 33.41 L 42.84 33.35 L 42.88 33.28 L 42.94 33.23 L 42.98 33.16 L 43.03 33.10 L 43.09 33.05 L 43.13 32.98 L 43.19 32.92 L 43.23 32.86 L 43.28 32.80 L 43.32 32.73 L 43.37 32.66 L 43.42 32.61 L 43.46 32.54 L 43.50 32.47 L 43.56 32.41 L 43.60 32.34 L 43.64 32.28 L 43.68 32.21 L 43.72 32.14 L 43.78 32.08 L 43.82 32.01 L 43.86 31.94 L 43.92 31.89 L 43.96 31.82 L 44.00 31.75 L 44.04 31.68 L 44.08 31.61 L 44.14 31.56 L 44.17 31.48 L 44.22 31.42 L 44.25 31.34 L 44.30 31.28 L 44.33 31.20 L 44.39 31.14 L 44.41 31.06 L 44.47 31.01 L 44.51 30.94 L 44.55 30.87 L 44.58 30.79 L 44.62 30.72 L 44.66 30.65 L 44.70 30.58 L 44.74 30.51 L 44.79 30.44 L 44.83 30.37 L 44.86 30.29 L 44.90 30.22 L 44.94 30.15 L 44.98 30.08 L 45.02 30.01 L 45.05 29.93 L 45.08 29.85 L 45.12 29.78 L 45.16 29.71 L 45.19 29.63 L 45.23 29.56 L 45.27 29.49 L 45.30 29.41 L 45.34 29.34 L 45.38 29.27 L 45.41 29.19 L 45.45 29.12 L 45.49 29.05 L 45.52 28.97 L 45.54 28.88 L 45.57 28.80 L 45.60 28.72 L 45.64 28.65 L 45.68 28.58 L 45.71 28.50 L 45.74 28.41 L 45.77 28.33 L 45.79 28.25 L 45.83 28.18 L 45.86 28.10 L 45.89 28.01 L 45.92 27.93 L 45.96 27.86 L 45.99 27.78 L 46.01 27.70 L 46.04 27.61 L 46.07 27.53 L 46.10 27.45 L 46.12 27.37 L 46.15 27.28 L 46.18 27.20 L 46.21 27.12 L 46.22 27.02 L 46.25 26.94 L 46.28 26.86 L 46.30 26.77 L 46.32 26.68 L 46.34 26.59 L 46.37 26.51 L 46.40 26.43 L 46.43 26.34 L 46.46 26.26 L 46.47 26.17 L 46.48 26.07 L 46.51 25.99 L 46.54 25.90 L 46.57 25.82 L 46.59 25.74 L 46.59 25.63 L 46.62 25.54 L 46.63 25.45 L 46.65 25.35 L 46.68 25.27 L 46.69 25.17 L 46.70 25.08 L 46.72 24.98 L 46.73 24.88 L 46.76 24.80 L 46.76 24.69 L 46.79 24.61 L 46.80 24.51 L 46.81 24.41 L 46.83 24.32 L 46.84 24.22 L 46.84 24.11 L 46.87 24.03 L 46.87 23.92 L 46.90 23.83 L 46.90 23.72 L 46.90 23.61 L 46.90 23.50 L 46.92 23.42 L 46.92 23.31 L 46.95 23.23 L 46.95 23.12 L 46.95 23.01 L 46.95 22.90 L 46.95 22.79 L 46.92 22.73 L 46.83 22.74 L 46.72 22.74 L 46.61 22.74 L 46.50 22.74 L 46.39 22.74 L 46.28 22.74 L 46.17 22.74 L 46.06 22.74 L 45.97 22.72 L 45.86 22.72 L 45.75 22.72 L 45.64 22.72 L 45.53 22.72 L 45.45 22.69 L 45.34 22.69 L 45.24 22.68 L 45.14 22.66 L 45.03 22.66 L 44.92 22.66 L 44.83 22.65 L 44.73 22.63 L 44.62 22.63 L 44.51 22.63 L 44.41 22.62 L 44.32 22.61 L 44.21 22.61 L 44.10 22.61 L 44.01 22.58 L 43.90 22.58 L 43.79 22.58 L 43.71 22.55 L 43.60 22.55 L 43.49 22.55 L 43.41 22.52 L 43.30 22.52 L 43.19 22.52 L 43.10 22.50 L 42.99 22.50 L 42.88 22.50 L 42.80 22.47 L 42.69 22.47 L 42.58 22.47 L 42.50 22.44 L 42.39 22.44 L 42.28 22.44 L 42.17 22.44 L 42.08 22.41 L 41.97 22.41 L 41.86 22.41 L 41.78 22.39 L 41.67 22.39 L 41.56 22.39 L 41.48 22.36 L 41.37 22.36 L 41.26 22.36 L 41.16 22.34 L 41.06 22.33 L 40.95 22.33 L 40.84 22.33 L 40.76 22.30 L 40.65 22.30 L 40.54 22.30 L 40.46 22.28 L 40.34 22.28 L 40.25 22.26 L 40.15 22.25 L 40.04 22.25 L 39.94 22.23 L 39.85 22.22 L 39.74 22.22 L 39.70 22.29 L 39.70 22.40 L 39.70 22.51 L 39.70 22.62 L 39.67 22.70 L 39.67 22.81 L 39.67 22.92 L 39.67 23.03 L 39.67 23.14 L 39.67 23.26 L 39.66 23.35 L 39.64 23.45 L 39.64 23.56 L 39.64 23.67 L 39.64 23.78 L 39.63 23.88 L 39.61 23.97 L 39.61 24.08 L 39.61 24.19 L 39.61 24.30 L 39.61 24.41 L 39.61 24.52 L 39.61 24.63 L 39.61 24.74 L 39.61 24.86 L 39.59 24.94 L 39.59 25.05 L 39.59 25.16 L 39.59 25.27 L 39.59 25.38 L 39.56 25.46 L 39.56 25.57 L 39.56 25.68 L 39.56 25.79 L 39.56 25.90 L 39.54 25.97 L 39.53 26.04 L 39.54 26.14 L 39.53 26.21 L 39.53 26.32 L 39.53 26.43 L 39.50 26.51 L 39.50 26.62 L 39.50 26.73 L 39.50 26.84 L 39.50 26.95 L 39.50 27.06 L 39.49 27.16 L 39.48 27.26 L 39.48 27.37 L 39.48 27.48 L 39.48 27.59 L 39.48 27.70 L 39.45 27.78 L 39.45 27.89 L 39.45 28.00 L 39.45 28.11 L 39.45 28.22 L 39.42 28.30 L 39.42 28.36 L 39.42 28.47 L 39.42 28.58 L 39.42 28.69 L 39.42 28.80 L 39.39 28.88 L 39.39 28.99 L 39.39 29.10 L 39.39 29.21 L 39.39 29.32 L 39.37 29.41 L 39.37 29.52 L 39.37 29.63 L 39.37 29.74 L 39.37 29.85 L 39.34 29.93 L 39.34 30.04 L 39.34 30.15 L 39.34 30.26 L 39.34 30.37 L 39.34 30.48 L 39.31 30.57 L 39.31 30.68 L 39.31 30.79 L 39.31 30.90 L 39.30 30.99 L 39.28 31.09 L 39.28 31.20 L 39.28 31.31 L 39.27 31.41 L 39.26 31.50 L 39.26 31.61 L 39.26 31.72 L 39.23 31.81 L 39.23 31.92 L 39.23 32.03 L 39.20 32.11 L 39.20 32.22 L 39.20 32.33 L 39.20 32.44 L 39.17 32.52 L 39.17 32.63 L 39.17 32.74 L 39.16 32.84 L 39.14 32.94 L 39.14 33.05 L 39.14 33.16 L 39.13 33.26 L 39.12 33.35 L 39.12 33.46 L 39.12 33.57 L 39.12 33.68 L 39.12 33.79 L 39.09 33.88 L 39.09 33.99 L 39.09 34.10 L 39.06 34.18 L 39.06 34.29 L 39.06 34.40 L 39.06 34.51 L 39.06 34.62 L 39.03 34.70 L 39.03 34.81 L 39.03 34.92 L 39.01 35.01 L 39.01 35.12 L 39.01 35.23 L 39.01 35.34 L 39.01 35.45 L 38.98 35.53 L 38.98 35.64 L 38.97 35.74 L 38.95 35.83 L 38.94 35.93 L 38.94 35.99 L 38.92 36.08 L 38.92 36.19 L 38.90 36.28 L 38.90 36.39 L 38.90 36.50 L 38.87 36.58 L 38.87 36.69 L 38.87 36.80 L 38.87 36.91 L 38.87 37.02 L 38.88 37.06 Z"/>
    <path d="M 26.43 63.97 L 26.33 63.90 L 26.23 63.83 L 26.15 63.75 L 26.07 63.67 L 25.99 63.59 L 25.89 63.52 L 25.81 63.43 L 25.72 63.35 L 25.63 63.28 L 25.56 63.19 L 25.46 63.12 L 25.38 63.03 L 25.30 62.95 L 25.20 62.88 L 25.13 62.79 L 25.03 62.72 L 24.95 62.63 L 24.88 62.54 L 24.79 62.47 L 24.72 62.37 L 24.63 62.29 L 24.55 62.21 L 24.47 62.12 L 24.40 62.03 L 24.32 61.94 L 24.25 61.85 L 24.17 61.77 L 24.08 61.68 L 24.01 61.59 L 23.94 61.49 L 23.86 61.41 L 23.81 61.30 L 23.75 61.19 L 23.70 61.08 L 23.64 60.97 L 23.61 60.83 L 23.64 60.69 L 23.68 60.57 L 23.75 60.47 L 23.82 60.37 L 23.89 60.28 L 23.97 60.19 L 24.06 60.11 L 24.14 60.03 L 24.21 59.93 L 24.29 59.85 L 24.37 59.77 L 24.44 59.67 L 24.52 59.59 L 24.61 59.50 L 24.69 59.42 L 24.77 59.34 L 24.86 59.26 L 24.94 59.17 L 25.02 59.09 L 25.10 59.01 L 25.19 58.92 L 25.27 58.84 L 25.35 58.76 L 25.43 58.68 L 25.52 58.59 L 25.60 58.51 L 25.68 58.43 L 25.77 58.34 L 25.86 58.28 L 25.94 58.19 L 26.03 58.11 L 26.11 58.03 L 26.19 57.94 L 26.28 57.86 L 26.36 57.78 L 26.44 57.70 L 26.52 57.61 L 26.61 57.53 L 26.69 57.45 L 26.79 57.38 L 26.87 57.30 L 26.95 57.21 L 27.03 57.13 L 27.12 57.05 L 27.20 56.97 L 27.28 56.88 L 27.37 56.80 L 27.45 56.72 L 27.53 56.63 L 27.61 56.55 L 27.70 56.47 L 27.78 56.39 L 27.86 56.30 L 27.94 56.22 L 28.03 56.14 L 28.12 56.07 L 28.21 55.99 L 28.29 55.90 L 28.37 55.82 L 28.46 55.74 L 28.52 55.64 L 28.62 55.57 L 28.70 55.49 L 28.79 55.41 L 28.87 55.32 L 28.95 55.24 L 29.03 55.16 L 29.12 55.08 L 29.21 55.01 L 29.30 54.92 L 29.38 54.84 L 29.46 54.76 L 29.54 54.68 L 29.63 54.59 L 29.71 54.51 L 29.81 54.44 L 29.88 54.34 L 29.96 54.26 L 30.06 54.19 L 30.14 54.11 L 30.22 54.03 L 30.30 53.94 L 30.39 53.86 L 30.47 53.78 L 30.55 53.70 L 30.63 53.61 L 30.73 53.54 L 30.81 53.46 L 30.90 53.38 L 30.98 53.30 L 31.06 53.21 L 31.16 53.14 L 31.23 53.05 L 31.31 52.97 L 31.39 52.88 L 31.49 52.81 L 31.57 52.73 L 31.66 52.65 L 31.74 52.57 L 31.82 52.48 L 31.90 52.40 L 31.99 52.32 L 32.08 52.25 L 32.17 52.17 L 32.25 52.08 L 32.33 52.00 L 32.41 51.92 L 32.50 51.83 L 32.58 51.75 L 32.68 51.68 L 32.76 51.60 L 32.84 51.52 L 32.92 51.43 L 33.01 51.35 L 33.10 51.28 L 33.19 51.20 L 33.27 51.12 L 33.35 51.03 L 33.43 50.95 L 33.52 50.87 L 33.61 50.80 L 33.70 50.72 L 33.78 50.63 L 33.86 50.55 L 33.94 50.47 L 34.03 50.39 L 34.11 50.30 L 34.19 50.22 L 34.28 50.14 L 34.37 50.07 L 34.46 49.99 L 34.54 49.90 L 34.62 49.82 L 34.72 49.75 L 34.70 49.63 L 34.61 49.56 L 34.50 49.50 L 34.40 49.43 L 34.30 49.37 L 34.19 49.31 L 34.10 49.24 L 33.99 49.19 L 33.89 49.12 L 33.79 49.05 L 33.70 48.98 L 33.59 48.92 L 33.49 48.86 L 33.39 48.79 L 33.28 48.73 L 33.19 48.66 L 33.09 48.59 L 32.99 48.52 L 32.90 48.46 L 32.80 48.39 L 32.70 48.32 L 32.61 48.25 L 32.51 48.18 L 32.40 48.12 L 32.32 48.04 L 32.22 47.97 L 32.12 47.90 L 32.03 47.83 L 31.93 47.77 L 31.85 47.68 L 31.75 47.61 L 31.66 47.54 L 31.56 47.48 L 31.46 47.41 L 31.38 47.32 L 31.28 47.26 L 31.19 47.19 L 31.09 47.12 L 31.01 47.03 L 30.92 46.95 L 30.83 46.88 L 30.74 46.80 L 30.65 46.73 L 30.57 46.65 L 30.47 46.58 L 30.39 46.50 L 30.30 46.41 L 30.21 46.34 L 30.12 46.26 L 30.04 46.18 L 29.94 46.11 L 29.86 46.03 L 29.78 45.94 L 29.70 45.86 L 29.60 45.79 L 29.52 45.71 L 29.43 45.63 L 29.35 45.54 L 29.27 45.46 L 29.17 45.39 L 29.09 45.31 L 29.01 45.23 L 28.92 45.14 L 28.84 45.06 L 28.76 44.98 L 28.68 44.90 L 28.59 44.81 L 28.51 44.73 L 28.43 44.65 L 28.34 44.57 L 28.26 44.48 L 28.18 44.40 L 28.10 44.32 L 28.03 44.22 L 27.94 44.14 L 27.86 44.06 L 27.78 43.97 L 27.71 43.88 L 27.63 43.79 L 27.54 43.71 L 27.48 43.61 L 27.38 43.54 L 27.31 43.45 L 27.23 43.37 L 27.14 43.28 L 27.06 43.20 L 26.98 43.12 L 26.90 43.03 L 26.81 42.95 L 26.72 42.88 L 26.59 42.84 L 26.47 42.80 L 26.36 42.74 L 26.25 42.69 L 26.14 42.63 L 26.03 42.58 L 25.93 42.51 L 25.82 42.46 L 25.72 42.39 L 25.61 42.33 L 25.53 42.25 L 25.43 42.18 L 25.34 42.11 L 25.24 42.04 L 25.17 41.94 L 25.09 41.86 L 25.01 41.78 L 24.94 41.68 L 24.86 41.60 L 24.80 41.49 L 24.73 41.39 L 24.66 41.30 L 24.61 41.19 L 24.55 41.08 L 24.51 40.95 L 24.46 40.84 L 24.41 40.72 L 24.39 40.58 L 24.36 40.44 L 24.33 40.30 L 24.30 40.17 L 24.30 40.00 L 24.28 39.86 L 24.28 39.70 L 24.30 39.56 L 24.33 39.42 L 24.36 39.28 L 24.39 39.14 L 24.41 39.01 L 24.44 38.87 L 24.50 38.76 L 24.55 38.65 L 24.59 38.52 L 24.65 38.41 L 24.72 38.32 L 24.77 38.21 L 24.84 38.11 L 24.91 38.01 L 24.98 37.92 L 25.08 37.85 L 25.17 37.78 L 25.27 37.71 L 25.38 37.66 L 25.48 37.59 L 25.60 37.54 L 25.72 37.50 L 25.83 37.45 L 25.97 37.42 L 26.07 37.35 L 26.12 37.24 L 26.12 37.08 L 26.12 36.91 L 26.15 36.77 L 26.15 36.61 L 26.18 36.47 L 26.18 36.30 L 26.21 36.17 L 26.21 36.00 L 26.23 35.86 L 26.22 35.74 L 26.23 35.59 L 26.26 35.45 L 26.26 35.28 L 26.29 35.14 L 26.29 34.98 L 26.29 34.81 L 26.32 34.68 L 26.32 34.51 L 26.34 34.37 L 26.34 34.21 L 26.37 34.07 L 26.39 33.92 L 26.40 33.77 L 26.40 33.60 L 26.43 33.46 L 26.43 33.30 L 26.44 33.14 L 26.46 32.99 L 26.48 32.86 L 26.48 32.69 L 26.51 32.55 L 26.54 32.41 L 26.54 32.25 L 26.57 32.11 L 26.58 31.96 L 26.59 31.81 L 26.62 31.67 L 26.65 31.53 L 26.66 31.38 L 26.68 31.23 L 26.70 31.09 L 26.73 30.95 L 26.76 30.81 L 26.79 30.68 L 26.81 30.54 L 26.84 30.40 L 26.86 30.25 L 26.90 30.12 L 26.92 29.99 L 26.95 29.85 L 26.98 29.71 L 27.01 29.57 L 27.01 29.46 L 26.90 29.41 L 26.79 29.35 L 26.68 29.30 L 26.57 29.24 L 26.46 29.19 L 26.33 29.14 L 26.22 29.09 L 26.11 29.03 L 26.00 28.98 L 25.90 28.91 L 25.79 28.86 L 25.68 28.80 L 25.57 28.74 L 25.46 28.69 L 25.35 28.63 L 25.24 28.58 L 25.14 28.51 L 25.03 28.46 L 24.92 28.40 L 24.81 28.34 L 24.70 28.29 L 24.59 28.23 L 24.48 28.18 L 24.37 28.12 L 24.26 28.07 L 24.15 28.01 L 24.06 27.94 L 23.94 27.89 L 23.85 27.82 L 23.72 27.78 L 23.63 27.71 L 23.52 27.66 L 23.41 27.60 L 23.30 27.54 L 23.19 27.49 L 23.09 27.42 L 22.98 27.37 L 22.88 27.30 L 22.77 27.24 L 22.66 27.19 L 22.55 27.13 L 22.46 27.06 L 22.34 27.01 L 22.25 26.94 L 22.14 26.88 L 22.03 26.83 L 21.93 26.76 L 21.82 26.70 L 21.72 26.63 L 21.61 26.58 L 21.50 26.52 L 21.41 26.46 L 21.31 26.39 L 21.20 26.33 L 21.10 26.26 L 20.99 26.21 L 20.90 26.14 L 20.79 26.08 L 20.69 26.01 L 20.59 25.94 L 20.48 25.89 L 20.37 25.83 L 20.28 25.77 L 20.18 25.70 L 20.07 25.64 L 19.97 25.57 L 19.88 25.50 L 19.78 25.43 L 19.67 25.38 L 19.57 25.31 L 19.48 25.24 L 19.38 25.17 L 19.27 25.12 L 19.17 25.05 L 19.08 24.98 L 18.98 24.91 L 18.88 24.84 L 18.79 24.77 L 18.69 24.70 L 18.61 24.62 L 18.52 24.54 L 18.44 24.46 L 18.40 24.33 Z"/>
    <path d="M 53.59 59.63 L 53.53 59.77 L 53.45 59.88 L 53.34 59.96 L 53.17 59.99 L 53.03 60.04 L 52.90 60.04 L 52.73 60.07 L 52.54 60.07 L 52.41 60.08 L 52.23 60.10 L 52.04 60.10 L 51.88 60.12 L 51.68 60.12 L 51.50 60.14 L 51.32 60.15 L 51.13 60.15 L 50.94 60.15 L 50.74 60.15 L 50.55 60.15 L 50.39 60.12 L 50.19 60.12 L 50.03 60.10 L 49.86 60.07 L 49.71 60.03 L 49.59 59.96 L 49.45 59.90 L 49.34 59.82 L 49.21 59.75 L 49.10 59.67 L 49.01 59.57 L 48.91 59.48 L 48.83 59.37 L 48.76 59.24 L 48.68 59.13 L 48.61 59.01 L 48.54 58.88 L 48.47 58.76 L 48.40 58.63 L 48.33 58.51 L 48.28 58.37 L 48.21 58.25 L 48.14 58.12 L 48.08 57.99 L 48.01 57.86 L 47.94 57.74 L 47.89 57.60 L 47.82 57.48 L 47.75 57.35 L 47.70 57.21 L 47.61 57.10 L 47.56 56.97 L 47.49 56.84 L 47.42 56.72 L 47.35 56.59 L 47.30 56.46 L 47.23 56.33 L 47.17 56.19 L 47.10 56.07 L 47.03 55.94 L 46.98 55.81 L 46.92 55.67 L 46.87 55.53 L 46.79 55.42 L 46.73 55.28 L 46.68 55.14 L 46.62 55.01 L 46.57 54.87 L 46.51 54.73 L 46.46 54.59 L 46.40 54.46 L 46.33 54.33 L 46.28 54.19 L 46.22 54.06 L 46.15 53.93 L 46.10 53.79 L 46.04 53.66 L 45.99 53.52 L 45.93 53.38 L 45.88 53.24 L 45.82 53.10 L 45.77 52.97 L 45.71 52.83 L 45.66 52.69 L 45.60 52.55 L 45.54 52.41 L 45.49 52.28 L 45.43 52.14 L 45.38 52.00 L 45.31 51.88 L 45.26 51.74 L 45.20 51.60 L 45.13 51.48 L 45.10 51.31 L 45.03 51.19 L 44.99 51.03 L 44.94 50.90 L 44.88 50.76 L 44.83 50.62 L 44.77 50.48 L 44.72 50.34 L 44.66 50.21 L 44.61 50.07 L 44.55 49.93 L 44.50 49.79 L 44.44 49.66 L 44.40 49.50 L 44.34 49.37 L 44.30 49.21 L 44.25 49.08 L 44.19 48.94 L 44.14 48.80 L 44.08 48.66 L 44.06 48.50 L 44.00 48.36 L 43.96 48.21 L 43.92 48.06 L 43.86 47.92 L 43.81 47.78 L 43.75 47.64 L 43.71 47.49 L 43.67 47.34 L 43.61 47.20 L 43.56 47.06 L 43.52 46.91 L 43.48 46.76 L 43.42 46.62 L 43.37 46.48 L 43.32 46.33 L 43.28 46.18 L 43.23 46.04 L 43.17 45.90 L 43.13 45.75 L 43.09 45.60 L 43.03 45.46 L 42.99 45.31 L 42.95 45.16 L 42.90 45.02 L 42.84 44.88 L 42.74 44.79 L 42.58 44.76 L 42.40 44.74 L 42.23 44.72 L 42.06 44.70 L 41.89 44.68 L 41.72 44.65 L 41.54 44.63 L 41.37 44.62 L 41.20 44.59 L 41.01 44.59 L 40.84 44.57 L 40.68 44.54 L 40.51 44.51 L 40.33 44.50 L 40.15 44.48 L 39.99 44.46 L 39.82 44.43 L 39.63 44.43 L 39.46 44.40 L 39.30 44.37 L 39.10 44.37 L 38.94 44.34 L 38.77 44.32 L 38.61 44.29 L 38.44 44.26 L 38.25 44.26 L 38.08 44.23 L 37.92 44.21 L 37.75 44.18 L 37.59 44.15 L 37.41 44.14 L 37.23 44.12 L 37.06 44.10 L 36.90 44.07 L 36.73 44.04 L 36.57 44.01 L 36.37 44.01 L 36.21 43.99 L 36.04 43.96 L 35.88 43.93 L 35.68 43.93 L 35.53 43.89 L 35.35 43.88 L 35.19 43.85 L 35.02 43.82 L 34.86 43.79 L 34.69 43.77 L 34.52 43.74 L 34.37 43.70 L 34.21 43.67 L 34.06 43.63 L 33.89 43.60 L 33.72 43.57 L 33.56 43.54 L 33.39 43.52 L 33.26 43.46 L 33.09 43.43 L 32.94 43.42 L 32.83 43.45 L 32.92 43.54 L 33.01 43.66 L 33.12 43.74 L 33.21 43.83 L 33.31 43.93 L 33.41 44.03 L 33.50 44.12 L 33.60 44.22 L 33.70 44.32 L 33.79 44.41 L 33.89 44.51 L 33.99 44.61 L 34.08 44.70 L 34.18 44.80 L 34.28 44.90 L 34.37 44.99 L 34.46 45.10 L 34.55 45.20 L 34.65 45.30 L 34.74 45.39 L 34.83 45.50 L 34.92 45.60 L 35.02 45.70 L 35.12 45.79 L 35.20 45.90 L 35.30 46.00 L 35.38 46.11 L 35.48 46.21 L 35.56 46.32 L 35.66 46.41 L 35.75 46.51 L 35.83 46.62 L 35.93 46.72 L 36.01 46.83 L 36.11 46.92 L 36.19 47.03 L 36.28 47.14 L 36.37 47.24 L 36.46 47.35 L 36.55 47.45 L 36.63 47.56 L 36.72 47.67 L 36.80 47.78 L 36.88 47.89 L 36.98 47.99 L 37.06 48.10 L 37.14 48.21 L 37.21 48.33 L 37.30 48.44 L 37.38 48.55 L 37.45 48.68 L 37.52 48.80 L 37.59 48.92 L 37.64 49.06 L 37.68 49.21 L 37.70 49.39 L 37.70 49.56 L 37.68 49.74 L 37.66 49.90 L 37.60 50.04 L 37.57 50.21 L 37.52 50.34 L 37.46 50.48 L 37.41 50.62 L 37.34 50.74 L 37.27 50.87 L 37.20 50.99 L 37.12 51.10 L 37.05 51.23 L 36.95 51.32 L 36.87 51.43 L 36.79 51.54 L 36.69 51.64 L 36.59 51.74 L 36.50 51.83 L 36.40 51.93 L 36.30 52.03 L 36.21 52.12 L 36.10 52.21 L 36.00 52.30 L 35.89 52.39 L 35.79 52.48 L 35.68 52.57 L 35.59 52.66 L 35.48 52.74 L 35.37 52.83 L 35.26 52.91 L 35.14 52.99 L 35.05 53.09 L 34.94 53.17 L 34.83 53.26 L 34.73 53.35 L 34.62 53.43 L 34.51 53.52 L 34.41 53.61 L 34.30 53.70 L 34.19 53.78 L 34.08 53.86 L 33.99 53.96 L 33.88 54.04 L 33.78 54.14 L 33.67 54.22 L 33.56 54.30 L 33.46 54.40 L 33.35 54.48 L 33.24 54.57 L 33.14 54.66 L 33.05 54.76 L 32.94 54.84 L 32.83 54.92 L 32.73 55.02 L 32.62 55.10 L 32.52 55.20 L 32.41 55.28 L 32.30 55.37 L 32.21 55.46 L 32.10 55.54 L 31.99 55.63 L 31.89 55.72 L 31.78 55.81 L 31.67 55.89 L 31.57 55.99 L 31.46 56.07 L 31.35 56.15 L 31.24 56.23 L 31.14 56.33 L 31.03 56.41 L 30.94 56.51 L 30.83 56.59 L 30.72 56.68 L 30.62 56.77 L 30.51 56.86 L 30.41 56.95 L 30.30 57.03 L 30.19 57.12 L 30.08 57.20 L 29.99 57.30 L 29.88 57.38 L 29.77 57.46 L 29.67 57.56 L 29.56 57.64 L 29.45 57.72 L 29.34 57.81 L 29.24 57.90 L 29.13 57.99 L 29.02 58.07 L 28.92 58.17 L 28.81 58.25 L 28.70 58.33 L 28.59 58.41 L 28.50 58.51 L 28.37 58.58 L 28.28 58.68 L 28.17 58.76 L 28.06 58.84 L 27.94 58.92 L 27.85 59.02 L 27.72 59.09 L 27.61 59.17 L 27.49 59.24 L 27.38 59.32 L 27.27 59.41 L 27.14 59.48 L 27.02 59.54 L 26.90 59.61 L 26.76 59.67 L 26.62 59.72 L 26.50 59.79 L 26.36 59.85 L 26.22 59.90 L 26.10 59.97 L 25.99 60.06 L 25.86 60.12 L 25.75 60.21 L 25.64 60.29 L 25.53 60.37 L 25.45 60.48 L 25.38 60.61 L 25.37 60.76 L 25.43 60.88 L 25.52 60.99 L 25.60 61.10 L 25.68 61.21 L 25.77 61.32 L 25.85 61.43 L 25.93 61.54 L 26.03 61.64 L 26.11 61.75 L 26.19 61.86 L 26.28 61.97 L 26.36 62.08 L 26.44 62.19 L 26.51 62.32 L 26.58 62.44 L 26.65 62.57 L 26.70 62.70 L 26.73 62.87 L 26.76 63.03 L 26.79 63.20 L 26.79 63.39 L 26.79 63.59 L 26.79 63.78 L 26.73 63.92 Z"/>
  </g>
</svg>
