<svg width="256" height="256" version="1.1" xmlns="http://www.w3.org/2000/svg" desc="Created with imagetracer.js version 1.2.6" ><path fill="rgb(238,238,238)" stroke="rgb(238,238,238)" stroke-width="1" opacity="0.9921568627450981" d="M 162 0 L 169 0 L 169 20.5 L 170 21.5 L 170 43.5 Q 180.5 57 188 73.5 L 196 98.5 L 192.5 103 L 173 109 L 173 116.5 L 174 117.5 L 174 140.5 L 175 141.5 L 175 167.5 L 176 168.5 L 177 256 L 170.5 256 L 170 255.5 L 170 197.5 L 169 196.5 L 169 158.5 L 168 157.5 L 168 129.5 L 167 128.5 L 167 111 L 145.5 115 L 139 120.5 L 137 127.5 L 137 136.5 Q 139.5 138 138 143.5 L 137 144.5 L 137 162.5 L 136 164.5 L 139.5 170 L 142.5 171 L 150 178.5 L 153 186.5 L 153 194.5 L 145 213.5 L 141 256 L 126 256 L 126 213.5 L 125 213.5 Q 113 232.5 98 248.5 L 96 256 L 86 256 L 86 247.5 L 90 236.5 L 123 173.5 L 123 170.5 L 119 151.5 L 119 119.5 L 115.5 114 L 89.5 105 L 73 96.5 L 72 92.5 L 73 91.5 L 73 79.5 L 74 78.5 L 74 68.5 L 75 67.5 L 76 42.5 Q 71.1 40.9 72 33.5 L 77.5 25 L 83.5 24 L 89 28.5 L 90 35.5 L 85 44.5 L 85 60.5 L 84 61.5 L 84 73.5 L 83 74.5 L 82 90.5 Q 101.2 102 128 105 L 129 90.5 L 121 84.5 L 120 78.5 L 125.5 70 Q 130.2 64.7 141.5 66 L 146 69.5 L 147 76.5 Q 144.4 83.9 138.5 88 L 137 88.5 L 137 103.5 Q 134.8 104.8 137.5 106 L 138.5 105 L 154.5 104 L 164.5 102 L 166 100.5 L 165 59.5 L 162.5 57 L 159 54.5 L 158 47.5 L 161.5 42 L 164 40.5 L 163 8.5 L 162 7.5 L 162 0 Z M 172 63 L 171 73 L 172 74 L 172 95 L 173 99 L 185 95 Q 181 76 172 63 Z " /><path fill="rgb(0,0,0)" stroke="rgb(0,0,0)" stroke-width="1" opacity="0" d="M 0 0 L 161.5 0 L 162 0.5 L 162 7.5 L 163 8.5 L 164 40.5 L 159 44.5 L 158 52.5 L 161.5 57 L 165 59.5 L 166 100.5 L 164.5 102 L 154.5 104 L 138.5 105 L 137.5 106 Q 134.8 104.8 137 103.5 L 137 88.5 L 138.5 88 L 146 79.5 L 147 71.5 L 143.5 67 Q 140.3 64.7 133.5 66 L 123 72.5 Q 120 75.5 120 81.5 L 125.5 89 L 129 90.5 L 128 105 Q 101.2 102 82 90.5 L 83 74.5 L 84 73.5 L 84 61.5 L 85 60.5 L 85 44.5 L 90 35.5 L 90 30.5 L 85.5 25 L 79.5 24 L 75 27.5 Q 71.3 30.3 72 37.5 L 76 42.5 L 76 54.5 L 75 55.5 L 75 67.5 L 74 68.5 L 73 91.5 L 72 94.5 L 74.5 98 Q 89.9 106.6 109.5 111 L 117 115.5 L 119 119.5 L 119 151.5 L 123 173.5 L 90 236.5 L 86 247.5 L 86 256 L 0 256 L 0 0 Z " /><path fill="rgb(0,0,0)" stroke="rgb(0,0,0)" stroke-width="1" opacity="0" d="M 169 0 L 256 0 L 256 256 L 177 256 L 177 203.5 L 176 202.5 L 176 168.5 L 175 167.5 L 175 141.5 L 174 140.5 L 174 117.5 L 173 116.5 L 173 109 L 187.5 105 L 195 100.5 L 196 97.5 L 188 73.5 Q 180.5 57 170 43.5 L 169 0 Z " /><path fill="rgb(0,0,0)" stroke="rgb(0,0,0)" stroke-width="1" opacity="0" d="M 171.5 63 Q 180.6 76.4 185 94.5 L 173 99 L 172 94.5 L 172 73.5 L 171 72.5 L 171.5 63 Z " /><path fill="rgb(0,0,0)" stroke="rgb(0,0,0)" stroke-width="1" opacity="0" d="M 165.5 111 L 167 111.5 L 167 128.5 L 168 129.5 L 169 196.5 L 170 197.5 L 170 256 L 141.5 256 Q 140.3 255.8 141 249.5 L 142 248.5 L 145 213.5 L 153 194.5 L 153 186.5 Q 150.7 175.8 142.5 171 L 137 167.5 L 136 163.5 L 137 162.5 L 138 137.5 L 137 136.5 L 137 127.5 L 139 120.5 L 143.5 116 L 165.5 111 Z " /><path fill="rgb(0,0,0)" stroke="rgb(0,0,0)" stroke-width="1" opacity="0" d="M 125.5 213 L 126 256 L 96.5 256 L 96 253.5 L 98 248.5 Q 113.2 232.2 125.5 213 Z " /></svg>