<svg xmlns="http://www.w3.org/2000/svg" viewBox="0 0 64 64" fill="none">
  <g fill="#ffffff" fill-rule="evenodd">
    <path d="M 8.95 8.00 L 9.11 8.04 L 9.25 8.10 L 9.40 8.16 L 9.55 8.22 L 9.69 8.28 L 9.84 8.34 L 9.97 8.41 L 10.11 8.47 L 10.26 8.53 L 10.41 8.58 L 10.54 8.66 L 10.68 8.71 L 10.83 8.77 L 10.97 8.83 L 11.12 8.89 L 11.27 8.95 L 11.41 9.01 L 11.54 9.08 L 11.69 9.14 L 11.82 9.21 L 11.97 9.27 L 12.11 9.33 L 12.26 9.39 L 12.40 9.44 L 12.55 9.50 L 12.68 9.57 L 12.81 9.65 L 12.96 9.71 L 13.10 9.76 L 13.25 9.82 L 13.38 9.90 L 13.53 9.95 L 13.66 10.03 L 13.80 10.09 L 13.95 10.14 L 14.08 10.22 L 14.21 10.29 L 14.36 10.35 L 14.50 10.41 L 14.65 10.46 L 14.78 10.54 L 14.91 10.61 L 15.06 10.67 L 15.20 10.73 L 15.34 10.80 L 15.47 10.87 L 15.61 10.93 L 15.76 10.99 L 15.89 11.06 L 16.02 11.14 L 16.17 11.19 L 16.31 11.25 L 16.44 11.32 L 16.57 11.40 L 16.72 11.46 L 16.85 11.53 L 16.98 11.60 L 17.13 11.66 L 17.27 11.72 L 17.41 11.79 L 17.54 11.86 L 17.68 11.92 L 17.81 12.00 L 17.95 12.07 L 18.09 12.13 L 18.24 12.19 L 18.37 12.26 L 18.50 12.33 L 18.65 12.39 L 18.78 12.46 L 18.91 12.54 L 19.05 12.59 L 19.20 12.65 L 19.33 12.72 L 19.46 12.80 L 19.61 12.86 L 19.75 12.91 L 19.87 13.00 L 20.02 13.06 L 20.16 13.12 L 20.29 13.19 L 20.42 13.26 L 20.57 13.32 L 20.70 13.40 L 20.83 13.47 L 20.98 13.53 L 21.11 13.60 L 21.26 13.66 L 21.39 13.73 L 21.53 13.79 L 21.66 13.86 L 21.80 13.94 L 21.94 13.99 L 22.07 14.07 L 22.20 14.14 L 22.35 14.20 L 22.48 14.27 L 22.61 14.34 L 22.76 14.40 L 22.89 14.48 L 23.02 14.55 L 23.17 14.61 L 23.31 14.66 L 23.44 14.74 L 23.57 14.81 L 23.72 14.87 L 23.87 14.93 L 24.00 15.00 L 24.13 15.07 L 24.27 15.13 L 24.41 15.20 L 24.54 15.28 L 24.68 15.34 L 24.83 15.39 L 24.96 15.47 L 25.09 15.54 L 25.24 15.60 L 25.37 15.67 L 25.50 15.74 L 25.65 15.80 L 25.78 15.88 L 25.91 15.95 L 26.05 16.01 L 26.20 16.06 L 26.33 16.14 L 26.46 16.21 L 26.61 16.27 L 26.75 16.27 L 26.84 16.15 L 26.93 16.04 L 27.03 15.93 L 27.13 15.83 L 27.25 15.74 L 27.40 15.69 L 27.54 15.63 L 27.72 15.60 L 27.89 15.63 L 28.04 15.69 L 28.17 15.76 L 28.29 15.85 L 28.40 15.93 L 28.49 16.05 L 28.58 16.17 L 28.62 16.33 L 28.64 16.52 L 28.64 16.72 L 28.59 16.88 L 28.52 17.01 L 28.53 17.14 L 28.68 17.20 L 28.82 17.26 L 28.96 17.33 L 29.09 17.41 L 29.23 17.46 L 29.38 17.52 L 29.52 17.58 L 29.66 17.65 L 29.79 17.73 L 29.93 17.79 L 30.08 17.84 L 30.22 17.90 L 30.36 17.98 L 30.50 18.03 L 30.63 18.11 L 30.78 18.16 L 30.92 18.22 L 31.07 18.28 L 31.20 18.35 L 31.33 18.43 L 31.48 18.49 L 31.62 18.54 L 31.77 18.60 L 31.92 18.66 L 32.05 18.73 L 32.18 18.81 L 32.33 18.86 L 32.47 18.92 L 32.60 19.00 L 32.75 19.05 L 32.88 19.13 L 33.02 19.19 L 33.17 19.24 L 33.30 19.32 L 33.43 19.39 L 33.58 19.45 L 33.72 19.51 L 33.87 19.56 L 34.00 19.64 L 34.15 19.70 L 34.28 19.77 L 34.42 19.83 L 34.56 19.90 L 34.70 19.96 L 34.83 20.03 L 34.98 20.09 L 35.12 20.15 L 35.27 20.21 L 35.40 20.28 L 35.53 20.35 L 35.68 20.41 L 35.83 20.47 L 35.97 20.53 L 36.10 20.60 L 36.23 20.67 L 36.38 20.73 L 36.52 20.79 L 36.66 20.86 L 36.80 20.92 L 36.93 20.99 L 37.08 21.05 L 37.23 21.11 L 37.36 21.18 L 37.49 21.26 L 37.63 21.31 L 37.78 21.37 L 37.91 21.45 L 38.06 21.50 L 38.19 21.58 L 38.33 21.64 L 38.48 21.69 L 38.62 21.75 L 38.76 21.83 L 38.90 21.88 L 39.03 21.96 L 39.18 22.01 L 39.32 22.07 L 39.46 22.15 L 39.60 22.20 L 39.73 22.28 L 39.88 22.34 L 40.02 22.39 L 40.16 22.47 L 40.29 22.54 L 40.43 22.60 L 40.58 22.66 L 40.73 22.71 L 40.86 22.79 L 40.99 22.86 L 41.13 22.92 L 41.28 22.98 L 41.42 23.04 L 41.56 23.11 L 41.69 23.18 L 41.83 23.24 L 41.98 23.30 L 42.12 23.36 L 42.26 23.43 L 42.40 23.49 L 42.53 23.56 L 42.68 23.62 L 42.82 23.68 L 42.97 23.74 L 43.10 23.81 L 43.25 23.87 L 43.38 23.94 L 43.52 24.00 L 43.67 24.06 L 43.82 24.11 L 43.95 24.19 L 44.09 24.25 L 44.23 24.32 L 44.37 24.38 L 44.52 24.44 L 44.66 24.49 L 44.79 24.57 L 44.92 24.64 L 45.07 24.70 L 45.22 24.76 L 45.36 24.81 L 45.49 24.89 L 45.62 24.96 L 45.77 25.02 L 45.92 25.08 L 46.05 25.15 L 46.19 25.21 L 46.32 25.28 L 46.47 25.34 L 46.62 25.40 L 46.76 25.46 L 46.91 25.51 L 47.04 25.59 L 47.19 25.65 L 47.32 25.72 L 47.46 25.78 L 47.61 25.84 L 47.75 25.89 L 47.89 25.97 L 48.03 26.02 L 48.16 26.10 L 48.31 26.16 L 48.45 26.21 L 48.60 26.27 L 48.73 26.35 L 48.86 26.42 L 49.01 26.48 L 49.15 26.54 L 49.29 26.61 L 49.43 26.67 L 49.56 26.74 L 49.71 26.80 L 49.85 26.86 L 50.00 26.91 L 50.15 26.97 L 50.28 27.05 L 50.42 27.10 L 50.55 27.18 L 50.70 27.24 L 50.85 27.29 L 50.99 27.35 L 51.12 27.43 L 51.27 27.48 L 51.40 27.56 L 51.55 27.61 L 51.69 27.67 L 51.84 27.73 L 51.97 27.80 L 52.11 27.86 L 52.25 27.94 L 52.39 27.99 L 52.52 28.07 L 52.67 28.12 L 52.80 28.20 L 52.95 28.26 L 53.09 28.31 L 53.22 28.39 L 53.37 28.45 L 53.50 28.52 L 53.65 28.58 L 53.79 28.64 L 53.92 28.71 L 54.05 28.78 L 54.20 28.84 L 54.33 28.91 L 54.48 28.97 L 54.61 29.04 L 54.75 29.10 L 54.90 29.16 L 55.03 29.23 L 55.18 29.29 L 55.31 29.36 L 55.45 29.42 L 55.59 29.50 L 55.72 29.57 L 55.86 29.63 L 56.01 29.69 L 56.14 29.76 L 56.29 29.82 L 56.42 29.89 L 56.56 29.95 L 56.71 30.01 L 56.85 30.06 L 56.99 30.14 L 57.13 30.20 L 57.26 30.27 L 57.41 30.33 L 57.55 30.39 L 57.70 30.44 L 57.85 30.50 L 57.99 30.56 L 58.14 30.62 L 58.27 30.60 L 58.33 30.46 L 58.39 30.31 L 58.46 30.18 L 58.52 30.04 L 58.58 29.89 L 58.72 29.95 L 58.84 30.04 L 58.97 30.11 L 59.10 30.18 L 59.22 30.27 L 59.33 30.36 L 59.46 30.43 L 59.58 30.52 L 59.71 30.59 L 59.83 30.68 L 59.96 30.75 L 60.08 30.84 L 60.21 30.91 L 60.33 31.00 L 60.44 31.09 L 60.57 31.16 L 60.69 31.25 L 60.82 31.32 L 60.94 31.41 L 61.05 31.49 L 61.19 31.57 L 61.32 31.64 L 61.43 31.73 L 61.56 31.80 L 61.68 31.89 L 61.81 31.96 L 61.93 32.05 L 62.06 32.12 L 62.19 32.19 L 62.31 32.28 L 62.44 32.35 L 62.57 32.43 L 62.69 32.51 L 62.80 32.60 L 62.95 32.66 L 63.07 32.75 L 63.20 32.82 L 63.31 32.91 L 63.42 33.01 Z"/>
    <path d="M 63.45 33.30 L 62.86 33.48 L 62.15 33.32 L 61.43 33.16 L 60.73 32.98 L 60.02 32.82 L 59.32 32.65 L 58.60 32.49 L 57.90 32.31 L 57.77 31.86 L 57.74 31.30 L 57.15 31.03 L 56.55 30.75 L 55.95 30.47 L 55.35 30.20 L 54.75 29.92 L 54.17 29.63 L 53.56 29.36 L 52.98 29.07 L 52.36 28.81 L 51.76 28.53 L 51.17 28.26 L 50.55 27.99 L 49.97 27.70 L 49.36 27.44 L 48.76 27.16 L 48.16 26.89 L 47.55 26.62 L 46.97 26.33 L 46.35 26.07 L 45.76 25.79 L 45.16 25.51 L 44.56 25.24 L 43.96 24.96 L 43.35 24.70 L 42.75 24.42 L 42.15 24.14 L 41.54 23.88 L 40.94 23.60 L 40.35 23.33 L 39.73 23.06 L 39.15 22.77 L 38.54 22.51 L 37.95 22.22 L 37.34 21.96 L 36.76 21.66 L 36.15 21.40 L 35.55 21.12 L 34.95 20.85 L 34.34 20.59 L 33.75 20.29 L 33.14 20.03 L 32.56 19.74 L 31.95 19.48 L 31.35 19.20 L 30.75 18.92 L 30.14 18.66 L 29.54 18.38 L 28.94 18.11 L 28.34 17.83 L 27.86 18.02 L 27.35 18.38 L 27.18 19.08 L 27.00 19.78 L 26.83 20.48 L 26.65 21.18 L 26.49 21.90 L 26.33 22.61 L 26.19 23.34 L 26.02 24.06 L 25.88 24.79 L 25.75 25.53 L 25.60 26.26 L 25.46 26.99 L 25.34 27.75 L 25.21 28.49 L 25.08 29.23 L 25.19 29.88 L 25.76 30.18 L 26.36 30.46 L 26.94 30.75 L 27.54 31.03 L 28.12 31.32 L 28.71 31.61 L 29.29 31.90 L 29.88 32.19 L 30.46 32.49 L 31.04 32.78 L 31.62 33.07 L 32.19 33.38 L 32.79 33.65 L 33.19 33.17 L 33.54 32.65 L 33.89 32.12 L 34.18 31.54 L 34.03 30.81 L 34.13 30.04 L 34.47 29.50 L 35.01 29.16 L 35.78 29.15 L 36.38 29.42 L 36.86 29.82 L 37.23 30.33 L 37.49 30.94 L 37.50 31.74 L 37.24 32.35 L 36.79 32.78 L 36.09 32.95 L 35.39 32.78 L 34.94 33.03 L 34.61 33.58 L 34.31 34.15 L 34.44 34.57 L 34.96 34.92 L 35.45 35.31 L 35.90 35.74 L 36.32 36.19 L 36.71 36.67 L 37.08 37.18 L 37.41 37.72 L 37.75 38.26 L 38.06 38.83 L 38.35 39.41 L 38.62 40.01 L 38.87 40.64 L 39.11 41.28 L 39.25 42.01 L 39.40 42.74 L 39.91 42.99 L 40.70 42.90 L 41.48 42.81 L 42.27 42.72 L 43.06 42.64 L 43.86 42.56 L 44.63 42.46 L 45.42 42.37 L 46.21 42.29 L 46.95 42.15 L 47.65 41.98 L 48.31 41.76 L 48.96 41.80 L 49.01 42.55 L 48.72 43.13 L 48.16 43.45 L 47.38 43.54 L 46.59 43.63 L 45.80 43.71 L 45.01 43.80 L 44.21 43.88 L 43.41 43.95 L 42.62 44.04 L 41.83 44.12 L 41.05 44.21 L 40.26 44.30 L 39.47 44.39 L 38.74 44.24 L 38.38 43.73 L 38.17 43.06 L 38.03 42.33 L 37.85 41.63 L 37.62 40.99 L 37.36 40.38 L 37.09 39.76 L 36.79 39.19 L 36.48 38.62 L 36.16 38.07 L 35.80 37.56 L 35.40 37.08 L 34.88 36.73 L 34.15 36.73 L 33.59 37.05 L 33.08 37.41 L 32.59 37.79 L 32.14 38.22 L 31.71 38.67 L 31.32 39.15 L 30.95 39.66 L 30.59 40.17 L 30.24 40.70 L 29.89 41.22 L 29.51 41.72 L 29.12 42.20 L 28.71 42.66 L 28.29 43.12 L 27.86 43.57 L 28.04 43.89 L 28.71 44.09 L 29.35 44.33 L 29.99 44.56 L 30.60 44.82 L 31.20 45.10 L 31.79 45.39 L 32.44 45.61 L 33.16 45.77 L 33.84 45.96 L 34.51 46.16 L 35.12 46.43 L 35.74 46.69 L 36.31 47.00 L 36.80 47.38 L 37.18 47.87 L 37.37 48.56 L 37.39 49.42 L 37.36 50.26 L 37.33 51.11 L 37.27 51.92 L 37.23 52.76 L 37.18 53.59 L 37.12 54.40 L 37.08 55.24 L 37.04 56.07 L 36.98 56.88 L 36.95 57.73 L 36.89 58.55 L 36.83 59.36 L 36.77 60.18 L 36.71 61.00 L 36.70 61.77 L 37.40 61.94 L 38.09 62.13 L 38.77 62.32 L 39.22 62.75 L 39.09 63.43 L 38.36 63.52 L 37.63 63.37 L 36.93 63.20 L 36.23 63.02 L 35.55 62.83 L 35.37 62.13 L 35.37 61.26 L 35.40 60.41 L 35.43 59.57 L 35.46 58.72 L 35.49 57.88 L 35.52 57.03 L 35.58 56.21 L 35.61 55.37 L 35.64 54.52 L 35.69 53.70 L 35.72 52.86 L 35.77 52.03 L 35.81 51.20 L 35.84 50.35 L 35.87 49.50 L 35.71 48.79 L 35.08 48.54 L 34.40 48.35 L 33.70 48.18 L 32.94 48.06 L 32.19 47.93 L 31.45 47.80 L 30.69 47.68 L 29.96 47.54 L 29.23 47.39 L 28.50 47.24 L 27.80 47.07 L 27.18 46.91 L 27.15 47.75 L 27.09 48.57 L 27.06 49.42 L 27.00 50.23 L 26.97 51.08 L 26.93 51.91 L 26.89 52.74 L 26.83 53.56 L 26.68 54.29 L 26.46 54.94 L 26.13 55.48 L 25.70 55.94 L 25.25 56.36 L 24.77 56.75 L 24.30 57.16 L 23.82 57.55 L 23.33 57.93 L 22.83 58.31 L 22.31 58.66 L 21.74 58.97 L 21.14 59.25 L 20.51 59.49 L 19.96 59.81 L 19.43 60.16 L 18.92 60.53 L 18.44 60.92 L 17.96 61.29 L 17.80 60.75 L 17.29 60.38 L 16.79 60.68 L 16.28 60.98 L 16.27 60.94 L 16.79 60.59 L 17.30 60.22 L 17.79 59.83 L 18.25 59.42 L 18.73 59.03 L 19.21 58.63 L 19.75 58.30 L 20.34 58.01 L 20.95 57.74 L 21.53 57.45 L 22.03 57.07 L 22.52 56.69 L 22.99 56.29 L 23.44 55.86 L 23.88 55.43 L 24.29 54.96 L 24.61 54.40 L 24.70 53.62 L 24.61 52.83 L 24.52 52.04 L 24.46 51.23 L 24.38 50.44 L 24.35 49.59 L 24.29 48.77 L 24.26 47.93 L 24.23 47.08 L 24.20 46.24 L 24.06 45.51 L 23.68 45.01 L 23.44 44.37 L 23.39 43.55 L 23.56 42.85 L 23.91 42.33 L 24.42 41.96 L 25.09 41.76 L 25.91 41.70 L 26.38 41.29 L 26.78 40.83 L 27.16 40.33 L 27.56 39.85 L 27.94 39.35 L 28.31 38.86 L 28.71 38.38 L 29.09 37.88 L 29.48 37.40 L 29.86 36.90 L 30.24 36.41 L 30.62 35.91 L 31.00 35.42 L 31.39 34.94 L 31.30 34.53 L 30.75 34.21 L 30.18 33.90 L 29.61 33.59 L 29.04 33.29 L 28.47 32.98 L 27.89 32.69 L 27.32 32.38 L 26.75 32.08 L 26.17 31.79 L 25.60 31.48 L 25.03 31.17 L 24.49 30.84 L 24.06 30.40 L 23.91 29.67 L 23.97 28.85 L 24.09 28.10 L 24.20 27.34 L 24.32 26.58 L 24.46 25.85 L 24.58 25.09 L 24.73 24.36 L 24.87 23.63 L 25.02 22.90 L 25.16 22.18 L 25.34 21.48 L 25.49 20.75 L 25.66 20.05 L 25.84 19.35 L 26.01 18.65 L 26.21 17.98 L 26.39 17.27 L 26.08 16.82 L 25.49 16.55 L 24.89 16.27 L 24.30 15.98 L 23.72 15.69 L 23.12 15.41 L 22.52 15.13 L 21.94 14.84 L 21.36 14.55 L 20.77 14.26 L 20.18 13.98 L 19.59 13.69 L 19.00 13.41 L 18.41 13.12 L 17.83 12.83 L 17.25 12.54 L 16.65 12.26 L 16.06 11.97 L 15.47 11.69 L 14.88 11.40 L 14.30 11.11 L 13.70 10.83 L 13.10 10.55 L 12.52 10.26 L 11.92 9.98 L 11.32 9.71 L 10.74 9.41 L 10.14 9.14 L 9.55 8.86 L 8.96 8.57 Z"/>
    <path d="M 16.98 62.09 L 16.95 62.09 L 16.94 62.08 L 16.95 62.06 L 16.97 62.05 L 16.98 62.03 L 17.00 62.02 L 17.00 61.99 L 17.01 61.97 L 17.03 61.96 L 17.04 61.94 L 17.07 61.94 L 17.09 61.93 L 17.10 61.91 L 17.13 61.91 L 17.14 61.90 L 17.16 61.89 L 17.17 61.87 L 17.17 61.84 L 17.19 61.83 L 17.20 61.81 L 17.22 61.80 L 17.25 61.80 L 17.26 61.78 L 17.27 61.77 L 17.29 61.75 L 17.30 61.74 L 17.33 61.74 L 17.35 61.73 L 17.36 61.71 L 17.38 61.70 L 17.39 61.68 L 17.42 61.68 L 17.44 61.67 L 17.44 61.64 L 17.45 61.62 L 17.48 61.62 L 17.49 61.61 L 17.51 61.59 L 17.52 61.58 L 17.54 61.56 L 17.55 61.55 L 17.57 61.54 L 17.58 61.52 L 17.60 61.51 L 17.61 61.49 L 17.62 61.48 L 17.64 61.46 L 17.65 61.45 L 17.68 61.45 L 17.71 61.45 L 17.73 61.43 L 17.74 61.42 L 17.76 61.40 L 17.76 61.38 L 17.77 61.36 L 17.80 61.36 L 17.83 61.36 L 17.84 61.35 L 17.86 61.33 L 17.89 61.33 L 17.90 61.32 L 17.90 61.29 L 17.92 61.27 L 17.93 61.29 L 17.95 61.30 L 17.96 61.32 L 17.95 61.33 L 17.93 61.35 L 17.92 61.36 L 17.90 61.38 L 17.89 61.39 L 17.86 61.39 L 17.84 61.40 L 17.83 61.42 L 17.81 61.43 L 17.80 61.45 L 17.79 61.46 L 17.77 61.48 L 17.76 61.49 L 17.74 61.51 L 17.73 61.52 L 17.71 61.54 L 17.68 61.54 L 17.67 61.55 L 17.65 61.56 L 17.64 61.58 L 17.62 61.59 L 17.61 61.61 L 17.60 61.62 L 17.58 61.64 L 17.57 61.65 L 17.55 61.67 L 17.54 61.68 L 17.51 61.68 L 17.49 61.70 L 17.48 61.71 L 17.46 61.73 L 17.45 61.74 L 17.44 61.75 L 17.42 61.77 L 17.39 61.77 L 17.38 61.78 L 17.36 61.80 L 17.35 61.81 L 17.33 61.83 L 17.32 61.84 L 17.30 61.86 L 17.27 61.86 L 17.26 61.87 L 17.25 61.89 L 17.23 61.90 L 17.22 61.91 L 17.20 61.93 L 17.19 61.94 L 17.16 61.94 L 17.14 61.96 L 17.13 61.97 L 17.11 61.99 L 17.10 62.00 L 17.09 62.02 L 17.07 62.03 L 17.04 62.03 L 17.03 62.05 L 17.01 62.06 L 17.00 62.08 L 16.98 62.09 Z"/>
    <path d="M 16.59 63.97 L 16.57 63.96 L 16.56 63.94 L 16.55 63.93 L 16.53 63.91 L 16.52 63.90 L 16.50 63.88 L 16.49 63.87 L 16.47 63.85 L 16.46 63.84 L 16.44 63.83 L 16.44 63.80 L 16.43 63.78 L 16.41 63.77 L 16.40 63.75 L 16.39 63.74 L 16.37 63.72 L 16.36 63.71 L 16.34 63.69 L 16.33 63.68 L 16.31 63.66 L 16.30 63.65 L 16.30 63.62 L 16.28 63.61 L 16.27 63.59 L 16.25 63.58 L 16.24 63.56 L 16.22 63.55 L 16.21 63.53 L 16.21 63.50 L 16.20 63.49 L 16.18 63.48 L 16.17 63.46 L 16.15 63.45 L 16.14 63.43 L 16.12 63.42 L 16.12 63.39 L 16.11 63.37 L 16.09 63.36 L 16.08 63.34 L 16.06 63.33 L 16.05 63.31 L 16.04 63.30 L 16.02 63.29 L 16.01 63.27 L 16.01 63.24 L 15.99 63.23 L 15.98 63.21 L 15.98 63.18 L 15.96 63.17 L 15.95 63.15 L 15.93 63.14 L 15.92 63.12 L 15.90 63.11 L 15.89 63.10 L 15.88 63.08 L 15.86 63.07 L 15.85 63.05 L 15.83 63.04 L 15.82 63.02 L 15.80 63.01 L 15.80 62.98 L 15.79 62.96 L 15.77 62.95 L 15.76 62.94 L 15.74 62.92 L 15.73 62.91 L 15.71 62.89 L 15.71 62.86 L 15.70 62.85 L 15.69 62.83 L 15.67 62.82 L 15.66 62.80 L 15.64 62.79 L 15.63 62.77 L 15.63 62.75 L 15.64 62.73 L 15.67 62.73 L 15.69 62.75 L 15.70 62.76 L 15.71 62.77 L 15.71 62.80 L 15.73 62.82 L 15.74 62.83 L 15.74 62.86 L 15.76 62.88 L 15.77 62.89 L 15.79 62.91 L 15.80 62.92 L 15.82 62.94 L 15.83 62.95 L 15.83 62.98 L 15.85 62.99 L 15.86 63.01 L 15.88 63.02 L 15.89 63.04 L 15.90 63.05 L 15.93 63.05 L 15.95 63.07 L 15.95 63.10 L 15.96 63.11 L 15.98 63.12 L 15.99 63.14 L 16.01 63.15 L 16.01 63.18 L 16.02 63.20 L 16.04 63.21 L 16.05 63.23 L 16.06 63.24 L 16.08 63.26 L 16.09 63.27 L 16.11 63.29 L 16.12 63.30 L 16.14 63.31 L 16.15 63.33 L 16.17 63.34 L 16.18 63.36 L 16.20 63.37 L 16.21 63.39 L 16.22 63.40 L 16.24 63.42 L 16.24 63.45 L 16.25 63.46 L 16.27 63.48 L 16.28 63.49 L 16.30 63.50 L 16.31 63.52 L 16.33 63.53 L 16.34 63.55 L 16.36 63.56 L 16.36 63.59 L 16.37 63.61 L 16.39 63.62 L 16.40 63.64 L 16.41 63.65 L 16.43 63.66 L 16.44 63.68 L 16.44 63.71 L 16.46 63.72 L 16.47 63.74 L 16.49 63.75 L 16.50 63.77 L 16.52 63.78 L 16.53 63.80 L 16.53 63.83 L 16.53 63.85 L 16.55 63.87 L 16.56 63.88 L 16.57 63.90 L 16.59 63.91 L 16.60 63.93 L 16.62 63.94 L 16.62 63.97 Z"/>
  </g>
</svg>
